<svg width="238" height="54" viewBox="0 0 238 54" fill="none" xmlns="http://www.w3.org/2000/svg">
<path d="M3 28.7321C1.66666 27.9623 1.66667 26.0378 3 25.268L12 20.0718L12 33.9282L3 28.7321Z" fill="#333333"/>
<path d="M12 8C12 3.58172 15.5817 0 20 0H230C234.418 0 238 3.58172 238 8V46C238 50.4183 234.418 54 230 54H20C15.5817 54 12 50.4183 12 46V8Z" fill="#333333"/>
<path d="M41.372 16.9H43.1V17.992H41.372V23.848H40.172V12.712H41.372V16.9ZM35.444 13.24C37.028 13.24 38.324 14.296 38.324 16.972V18.664C38.324 21.34 37.028 22.396 35.444 22.396C33.836 22.396 32.54 21.34 32.54 18.664V16.972C32.54 14.296 33.836 13.24 35.444 13.24ZM37.136 18.652V16.984C37.136 15.04 36.392 14.332 35.444 14.332C34.484 14.332 33.74 15.04 33.74 16.984V18.652C33.74 20.584 34.484 21.304 35.444 21.304C36.392 21.304 37.136 20.584 37.136 18.652ZM52.1749 18.964V12.712H53.3749V18.964H52.1749ZM50.4109 18.784L47.3149 16.744C46.7269 17.584 45.8029 18.328 44.5189 19.012L43.9549 18.052C45.9349 16.948 46.8949 15.82 46.8949 14.308H44.3989V13.24H50.5669V14.308H48.0589C48.0589 14.836 47.9749 15.328 47.8069 15.784L50.9989 17.8L50.4109 18.784ZM52.1749 20.752H45.8869V19.66H53.3749V23.968H52.1749V20.752ZM67.0712 16.9H68.7992V17.992H67.0712V23.848H65.8712V12.712H67.0712V16.9ZM59.5472 16.54H62.5832V13.42H63.7712V22.048H58.3592V13.42H59.5472V16.54ZM59.5472 17.62V20.956H62.5832V17.62H59.5472ZM78.4501 16.9H80.1781V17.992H78.4501V23.848H77.2501V12.712H78.4501V16.9ZM71.0101 20.944H71.9341C73.1581 20.944 74.7181 20.812 76.1101 20.596L76.2541 21.664C74.9221 21.88 73.2781 22.036 71.7181 22.036H69.7981V13.528H75.2101V14.632H71.0101V20.944ZM92.2064 23.848V12.712H93.3944V23.848H92.2064ZM88.7744 14.68H84.5984V13.588H89.9744V14.572C89.9744 17.728 88.1744 20.476 85.0784 22.516L84.3584 21.568C87.2384 19.72 88.7744 17.164 88.7744 14.812V14.68ZM101.065 17.836V18.82H105.697V19.792H95.2333V18.82H99.8773V17.836H96.6253V14.92H103.105V13.936H96.5773V12.952H104.305V15.88H97.8253V16.864H104.533V17.836H101.065ZM103.225 21.76H96.5173V20.728H104.425V23.968H103.225V21.76ZM116.152 23.848H114.952V12.712H116.152V23.848ZM109.996 22.396C108.364 22.396 107.032 21.34 107.032 18.664V16.972C107.032 14.296 108.364 13.24 109.996 13.24C111.604 13.24 112.936 14.296 112.936 16.972V18.664C112.936 21.34 111.604 22.396 109.996 22.396ZM109.996 21.304C110.98 21.304 111.748 20.584 111.748 18.652V16.984C111.748 15.04 110.98 14.332 109.996 14.332C109.012 14.332 108.232 15.04 108.232 16.984V18.652C108.232 20.584 109.012 21.304 109.996 21.304ZM129.297 16.108H127.317C127.113 17.536 125.889 18.244 124.365 18.244C122.697 18.244 121.377 17.404 121.377 15.7V15.508C121.377 13.792 122.697 12.952 124.365 12.952C125.865 12.952 127.089 13.648 127.305 15.052H129.297V12.712H130.485V18.496H129.297V16.108ZM122.577 15.52V15.676C122.577 16.672 123.333 17.188 124.365 17.188C125.385 17.188 126.141 16.672 126.141 15.676V15.52C126.141 14.524 125.385 14.008 124.365 14.008C123.333 14.008 122.577 14.524 122.577 15.52ZM123.645 20.608H125.601V19.204H126.645V23.848H122.601V19.204H123.645V20.608ZM129.501 21.22L131.541 23.224L130.761 24.028L129.009 22.288C128.637 22.876 128.097 23.464 127.341 24.028L126.657 23.14C128.109 21.988 128.529 20.968 128.529 19.96V19.204H129.693V19.96C129.693 20.38 129.633 20.8 129.501 21.22ZM123.645 21.58V22.864H125.601V21.58H123.645ZM140.651 17.008V12.712H141.851V23.848H140.651V18.1H138.635V18.664C138.635 21.34 137.303 22.396 135.695 22.396C134.063 22.396 132.731 21.34 132.731 18.664V16.972C132.731 14.296 134.063 13.24 135.695 13.24C137.303 13.24 138.635 14.296 138.635 16.972V17.008H140.651ZM137.447 18.652V16.984C137.447 15.04 136.679 14.332 135.695 14.332C134.711 14.332 133.931 15.04 133.931 16.984V18.652C133.931 20.584 134.711 21.304 135.695 21.304C136.679 21.304 137.447 20.584 137.447 18.652ZM149.798 19.252H148.058C146.054 19.252 144.77 17.968 144.77 16.252C144.77 14.572 146.054 13.288 148.058 13.288H149.798C151.802 13.288 153.086 14.572 153.086 16.252C153.086 17.968 151.802 19.252 149.798 19.252ZM149.582 14.356H148.262C146.822 14.356 145.97 15.148 145.97 16.264C145.97 17.392 146.822 18.184 148.262 18.184H149.582C151.034 18.184 151.898 17.392 151.898 16.264C151.898 15.148 151.034 14.356 149.582 14.356ZM151.49 19.888V21.916H154.154V23.008H143.69V21.916H146.366V19.888H147.542V21.916H150.326V19.888H151.49ZM156.161 23.38C155.705 23.38 155.333 23.02 155.333 22.564C155.333 22.108 155.705 21.736 156.161 21.736C156.617 21.736 156.977 22.108 156.977 22.564C156.977 23.02 156.617 23.38 156.161 23.38ZM40.808 34.008V29.712H41.996V40.848H40.808V35.1H38.516V39.048H32.996V30.42H34.184V33.54H37.34V30.42H38.516V34.008H40.808ZM34.184 34.62V37.956H37.34V34.62H34.184ZM46.4269 34.044H53.1349V35.04H45.2269V29.952H52.9069V30.948H46.4269V31.98H52.9069V32.964H46.4269V34.044ZM43.8349 37.2V36.156H54.2989V37.2H43.8349ZM45.2269 38.052H46.4269V39.768H53.1949V40.848H45.2269V38.052ZM61.3458 33.408H59.5578C57.6978 33.408 56.4378 32.868 56.4378 31.572C56.4378 30.3 57.6978 29.772 59.5578 29.772H61.3458C63.2058 29.772 64.4538 30.3 64.4538 31.572C64.4538 32.868 63.2058 33.408 61.3458 33.408ZM59.7858 32.46H61.1178C62.5098 32.46 63.2658 32.172 63.2658 31.584C63.2658 30.996 62.5098 30.732 61.1178 30.732H59.7858C58.3938 30.732 57.6378 30.996 57.6378 31.584C57.6378 32.184 58.3938 32.46 59.7858 32.46ZM65.6778 35.184H55.2138V34.212H65.6778V35.184ZM64.6938 40.908H56.4978V38.004H63.2058V37.056H56.4378V36.108H64.4058V38.952H57.6978V39.924H64.6938V40.908ZM72.1261 32.292H78.6661V33.324H70.9261V29.892H72.1261V32.292ZM79.9981 34.152V35.136H75.3661V36.108H78.7261V38.952H72.0181V39.936H79.0141V40.908H70.8181V38.004H77.5261V37.068H70.7581V36.108H74.1781V35.136H69.5341V34.152H79.9981ZM89.265 34.008V29.712H90.453V40.848H89.265V35.1H87.429V34.008H89.265ZM82.713 38.184H83.805C85.053 38.184 86.613 38.052 87.945 37.848L88.077 38.88C86.817 39.12 85.161 39.264 83.589 39.264H81.513V34.308H85.497V31.608H81.513V30.528H86.685V35.364H82.713V38.184ZM101.665 36.012L98.6413 34.092C98.0653 34.896 97.1413 35.568 95.8933 36.192L95.3653 35.196C97.1413 34.284 98.1013 33.288 98.1853 31.98H95.7373V30.924H98.2093V29.58H99.3733V30.924H101.869V31.98H99.3613C99.3373 32.376 99.2653 32.748 99.1573 33.096L102.253 35.028L101.665 36.012ZM101.413 33.684V32.652H103.585V29.712H104.773V36.948H103.585V33.684H101.413ZM101.461 38.172L105.469 39.84L105.001 40.908L100.753 39.108C99.9493 39.888 98.6653 40.512 97.0693 40.968L96.6613 39.9C98.9653 39.204 100.513 38.244 100.513 37.044V36.54H101.737V37.044C101.737 37.44 101.641 37.824 101.461 38.172ZM115.386 36.828V38.916H120.018V40.02H109.554V38.916H114.198V36.828H110.838V33.108H117.546V31.536H110.778V30.456H118.746V34.164H112.038V35.772H118.974V36.828H115.386ZM128.805 31.92V31.668H122.097V30.576H130.005V31.596C130.005 33.3 129.753 35.496 129.393 37.488L128.217 37.284C128.565 35.376 128.805 33.156 128.805 31.92ZM120.933 40.02V38.916H131.397V40.02H120.933ZM141.611 34.164H133.703V31.596H140.183V30.804H133.655V29.892H141.383V32.484H134.903V33.264H141.611V34.164ZM142.775 35.796H132.311V34.884H142.775V35.796ZM141.791 40.908H133.595V38.244H140.303V37.452H133.535V36.54H141.503V39.156H134.795V39.972H141.791V40.908ZM155.548 32.148H157.264V33.252H155.548V35.964H154.348V29.712H155.548V32.148ZM152.62 35.784L149.668 33.768C149.104 34.596 148.216 35.328 146.992 36.012L146.416 35.064C148.324 33.96 149.236 32.832 149.236 31.32V31.308H146.848V30.24H152.8V31.308H150.4V31.32C150.4 31.836 150.316 32.328 150.16 32.784L153.232 34.812L152.62 35.784ZM154.348 37.752H148.288V36.66H155.548V40.968H154.348V37.752ZM167.551 35.784H166.351V32.82H163.939V31.764H166.351V29.712H167.551V35.784ZM164.311 35.58L161.347 33.492C160.783 34.332 159.931 35.076 158.755 35.76L158.119 34.8C160.087 33.648 160.975 32.376 160.975 30.792V30.072H162.139V30.792C162.139 31.392 162.043 31.956 161.863 32.484L164.959 34.644L164.311 35.58ZM162.607 36.372H165.031C166.663 36.372 167.695 37.332 167.695 38.664C167.695 40.008 166.663 40.968 165.031 40.968H162.607C160.987 40.968 159.955 40.008 159.955 38.664C159.955 37.332 160.987 36.372 162.607 36.372ZM162.799 39.888H164.851C165.955 39.888 166.495 39.372 166.495 38.664C166.495 37.956 165.955 37.44 164.851 37.44H162.799C161.695 37.44 161.143 37.956 161.143 38.664C161.143 39.372 161.695 39.888 162.799 39.888ZM177.934 33.9V29.712H179.098V40.848H177.934V34.992H176.518V40.62H175.378V29.88H176.518V33.9H177.934ZM171.418 29.724H172.63V31.344H174.634V32.424H169.402V31.344H171.418V29.724ZM172.042 33.42C173.314 33.42 174.19 34.44 174.19 36.048V36.696C174.19 38.304 173.314 39.336 172.042 39.336C170.746 39.336 169.858 38.304 169.858 36.696V36.048C169.858 34.44 170.746 33.42 172.042 33.42ZM173.086 36.624V36.132C173.086 35.112 172.654 34.5 172.03 34.5C171.406 34.5 170.962 35.112 170.962 36.132V36.624C170.962 37.644 171.406 38.268 172.03 38.268C172.654 38.268 173.086 37.644 173.086 36.624ZM186.601 36.54V38.916H191.233V40.02H180.769V38.916H185.413V36.54H182.053V30.396H183.253V32.436H188.761V30.396H189.961V36.54H186.601ZM188.761 33.516H183.253V35.46H188.761V33.516ZM200.691 40.848V29.712H201.855V40.848H200.691ZM196.503 33.552H198.279V29.88H199.419V40.62H198.279V34.644H196.503V33.552ZM195.375 30.36V31.836C195.375 32.772 195.291 33.66 195.111 34.512L197.595 38.532L196.635 39.216L194.691 36.048C194.283 37.2 193.695 38.292 192.903 39.336L191.991 38.616C193.503 36.6 194.235 34.452 194.235 31.836V30.36H195.375ZM209.634 36.252H207.894C205.89 36.252 204.606 34.968 204.606 33.252C204.606 31.572 205.89 30.288 207.894 30.288H209.634C211.638 30.288 212.922 31.572 212.922 33.252C212.922 34.968 211.638 36.252 209.634 36.252ZM209.418 31.356H208.098C206.658 31.356 205.806 32.148 205.806 33.264C205.806 34.392 206.658 35.184 208.098 35.184H209.418C210.87 35.184 211.734 34.392 211.734 33.264C211.734 32.148 210.87 31.356 209.418 31.356ZM211.326 36.888V38.916H213.99V40.008H203.526V38.916H206.202V36.888H207.378V38.916H210.162V36.888H211.326ZM216.765 37.188H215.649L215.529 30.18H216.873L216.765 37.188ZM216.201 40.38C215.745 40.38 215.385 40.02 215.385 39.564C215.385 39.108 215.745 38.736 216.201 38.736C216.657 38.736 217.029 39.108 217.029 39.564C217.029 40.02 216.657 40.38 216.201 40.38Z" fill="white"/>
</svg>
