<svg width="61" height="61" viewBox="0 0 61 61" fill="none" xmlns="http://www.w3.org/2000/svg">
<path d="M25.0657 40.9058C25.0657 40.9058 30.8343 47.3515 32.2486 41.1629L25.0657 40.9058Z" fill="#757577"/>
<path d="M26.2228 41.7458C26.2228 41.7458 28.22 44.1543 30.2086 43.8201C30.2086 43.8201 31.7257 43.6915 32.2314 41.0601" stroke="#6B6B6B" stroke-miterlimit="10" stroke-linecap="round" stroke-linejoin="round"/>
<path d="M31.8029 17.1714C31.8029 17.1714 36.0286 16.1771 44 17.1714C44 17.1714 46.8286 20.7885 46.76 27.7057L31.8029 17.1714Z" fill="#757577"/>
<path d="M31.8029 41.1798C31.8029 41.1798 36.0286 42.1741 44 41.1798C44 41.1798 46.8286 37.5627 46.76 30.6455L31.8029 41.1798Z" fill="#757577"/>
<path d="M31.8029 17.1713C31.8029 17.1713 35.7029 16.2541 43.0743 17.0598C43.6914 17.1284 44.2486 17.4884 44.5486 18.0284C45.3714 19.477 46.8114 22.7427 46.76 27.7056L31.8029 17.1713Z" stroke="#6B6B6B" stroke-miterlimit="10" stroke-linejoin="round"/>
<path d="M31.8029 41.1798C31.8029 41.1798 35.7029 42.0969 43.0743 41.2912C43.6914 41.2227 44.2486 40.8627 44.5486 40.3227C45.3714 38.8741 46.8114 35.6084 46.76 30.6455L31.8029 41.1798Z" stroke="#6B6B6B" stroke-miterlimit="10" stroke-linejoin="round"/>
<path d="M54.26 34.3058L53.1886 30.6543C53.1114 30.3972 53.12 30.1229 53.2057 29.8658L54.2343 26.7543C54.3457 26.4115 54.2257 26.0772 53.9857 25.8801C53.7371 25.6658 53.48 25.6915 53.0857 25.7858C52.3571 25.9743 51.4571 26.2829 50.4886 26.7801C49.3743 27.3543 48.5171 28.0143 47.9086 28.5629H46.9914C46.2629 21.8858 35.8657 17.4801 29.9257 17.0772C19.8714 16.3915 15.4914 21.8772 13.64 25.2629C13.1857 26.0858 12.8257 26.9515 12.3286 27.7572C10.5457 30.6458 9.83429 32.1715 9.83429 32.1715C9.83429 32.1715 12.5 37.9315 22.2886 41.1115L22.28 41.0943C24.5771 41.9172 28.9743 42.0972 31.7086 41.8829C40.3743 41.2058 45.2171 36.4658 46.5971 31.9486H47.8914C48.4143 32.5401 49.2114 33.3201 50.3343 34.0143C51.3543 34.6486 52.3143 35.0001 53.0429 35.2229C53.9 35.4715 54.4657 35.0172 54.26 34.3058Z" fill="white"/>
<path d="M30.7229 17.2656C30.7229 17.2656 38.7715 30.1228 28.4772 41.8828L32.2743 41.6171C32.2743 41.6171 42.2086 31.7342 35.3772 17.5656L30.7229 17.2656Z" fill="#757577"/>
<path d="M39.9371 19.6143C39.9371 19.6143 46.0571 32.0514 36.38 40.8971L40.52 39.44C40.52 39.44 48.4657 32.36 43.2629 22.4171L39.9371 19.6143Z" fill="#757577"/>
<path d="M46.4428 27.9028C46.4428 27.9028 47.0257 30.08 45.8 32.9085L48.14 31.5714C48.14 31.5714 49.0314 30.0885 48.14 28.7514L47.3171 28.6743L46.4428 27.9028Z" fill="#757577"/>
<path d="M50.8057 26.6171C50.8057 26.6171 53.2829 30.0543 50.8057 34.28L53.8057 35.5914L54.3029 35.1971L53.0343 30.6543L54.2172 26.7543L53.7457 25.6143L50.8057 26.6171Z" fill="#757577"/>
<path d="M19.1857 19.083L21.8086 18.2259L24.8429 17.2573C24.8429 17.2573 34.6486 30.2516 23.2743 41.1288L20.3857 40.0573C20.3943 40.0659 29.5314 28.5888 19.1857 19.083Z" fill="#757577"/>
<path d="M16.6914 30.0286C17.0938 30.0286 17.42 29.5489 17.42 28.9572C17.42 28.3654 17.0938 27.8857 16.6914 27.8857C16.289 27.8857 15.9628 28.3654 15.9628 28.9572C15.9628 29.5489 16.289 30.0286 16.6914 30.0286Z" fill="#121212"/>
<path d="M24.3029 29.6598C24.3029 29.6598 27.4657 25.717 30.3371 25.8198C31.6143 25.8627 32.6429 27.1227 32.6429 28.5713C32.6429 29.7198 32.2314 31.297 30.6543 33.0798C30.14 33.6627 29.4114 33.9627 28.6829 33.877C27.3457 33.7056 25.2457 32.9084 24.3029 29.6598Z" fill="#757577"/>
<path d="M26.2486 27.7058C26.2486 27.7058 31.3829 23.3858 32.2743 27.8001C32.6172 29.4887 32.1715 31.2801 31.0743 32.6087C30.02 33.903 28.3057 34.8373 25.9315 32.5658" stroke="#6B6B6B" stroke-miterlimit="10" stroke-linecap="round" stroke-linejoin="round"/>
<path d="M54.26 34.3058L53.1886 30.6544C53.1114 30.3973 53.12 30.123 53.2057 29.8658L54.2343 26.7544C54.3457 26.4115 54.2257 26.0773 53.9857 25.8801C53.7371 25.6658 53.48 25.6915 53.0857 25.7858C52.3571 25.9744 51.4571 26.283 50.4886 26.7801C49.3743 27.3544 48.5171 28.0144 47.9086 28.563H46.9914C46.2628 21.8858 35.8571 17.5401 29.9257 17.0773C19.6314 16.2715 15.4914 21.8773 13.64 25.263C13.1857 26.0858 12.8257 26.9515 12.3286 27.7573C11.2914 29.4373 10.4343 30.5601 9.90284 31.2115L10.3828 31.9573L9.79999 32.7115C11.0343 34.443 14.6686 38.6344 22.3057 41.1201L22.2971 41.103C24.5943 41.9258 28.9914 42.1058 31.7257 41.8915C40.3914 41.2144 45.2343 36.4744 46.6143 31.9573H47.9086C48.4314 32.5487 49.2286 33.3287 50.3514 34.023C51.3714 34.6573 52.3314 35.0087 53.06 35.2315C53.9 35.4715 54.4657 35.0173 54.26 34.3058Z" stroke="#6B6B6B" stroke-miterlimit="10" stroke-linejoin="round"/>
</svg>
