<svg width="30" height="31" viewBox="0 0 30 31" fill="none" xmlns="http://www.w3.org/2000/svg">
<path d="M11.3003 13.8387L11.4703 5.40869L26.3103 8.13869C27.1503 8.28869 27.7503 9.05869 27.7403 9.94869V10.0687C27.7203 10.9587 27.0903 11.6887 26.2403 11.8087L11.3003 13.8387Z" fill="#CCCCCC" stroke="#A4A4A4" stroke-miterlimit="10" stroke-linecap="round" stroke-linejoin="round"/>
<path d="M12.6564 9.69457C12.7054 7.36439 12.0826 5.4615 11.2653 5.44433C10.4481 5.42717 9.74596 7.30223 9.69702 9.63241C9.64807 11.9626 10.2709 13.8655 11.0881 13.8826C11.9053 13.8998 12.6075 12.0247 12.6564 9.69457Z" fill="#A4A4A4"/>
<path d="M12.6564 9.69457C12.7054 7.36439 12.0826 5.4615 11.2653 5.44433C10.4481 5.42717 9.74596 7.30223 9.69702 9.63241C9.64807 11.9626 10.2709 13.8655 11.0881 13.8826C11.9053 13.8998 12.6075 12.0247 12.6564 9.69457Z" stroke="#A4A4A4" stroke-miterlimit="10.0004" stroke-linecap="round"/>
<path d="M11.1201 5.4585C5.3601 5.8985 1.8501 9.4485 1.8501 9.4485C4.5701 12.7985 10.9401 13.8585 10.9401 13.8585" stroke="#A4A4A4" stroke-miterlimit="10" stroke-linecap="round" stroke-linejoin="round"/>
<path d="M17.3403 13.0088C17.3403 13.0088 19.5703 10.4588 17.4803 6.50879L17.3403 13.0088Z" fill="#CCCCCC"/>
<path d="M17.3403 13.0088C17.3403 13.0088 19.5703 10.4588 17.4803 6.50879" stroke="#A4A4A4" stroke-miterlimit="10" stroke-linecap="round" stroke-linejoin="round"/>
<path d="M23.1499 12.1589C23.1499 12.1589 24.7899 10.3989 23.2499 7.64893L23.1499 12.1589Z" fill="#CCCCCC"/>
<path d="M23.1499 12.1589C23.1499 12.1589 24.7899 10.3989 23.2499 7.64893" stroke="#A4A4A4" stroke-miterlimit="10" stroke-linecap="round" stroke-linejoin="round"/>
<path d="M1.74023 2.90869V27.9087" stroke="#A4A4A4" stroke-miterlimit="10" stroke-linecap="round" stroke-linejoin="round"/>
</svg>
