<svg width="36" height="31" viewBox="0 0 36 31" fill="none" xmlns="http://www.w3.org/2000/svg">
<path d="M34.6668 27.8204V8.20497C34.6668 7.62693 34.4473 7.07257 34.0566 6.66384C33.6659 6.2551 33.136 6.02548 32.5835 6.02548H27.621C27.2342 6.02526 26.8551 5.9124 26.5262 5.69953C26.1972 5.48666 25.9314 5.18219 25.7585 4.82022L24.8252 2.87176C24.6523 2.50979 24.3865 2.20532 24.0575 1.99245C23.7286 1.77958 23.3495 1.66672 22.9627 1.6665H13.0377C12.6509 1.66672 12.2718 1.77958 11.9428 1.99245C11.6139 2.20532 11.3481 2.50979 11.1752 2.87176L10.2418 4.82022C10.0689 5.18219 9.80313 5.48666 9.47418 5.69953C9.14523 5.9124 8.76613 6.02526 8.37933 6.02548H3.41683C2.8643 6.02548 2.33439 6.2551 1.94369 6.66384C1.55299 7.07257 1.3335 7.62693 1.3335 8.20497V27.8204C1.3335 28.3984 1.55299 28.9527 1.94369 29.3615C2.33439 29.7702 2.8643 29.9998 3.41683 29.9998H32.5835C33.136 29.9998 33.6659 29.7702 34.0566 29.3615C34.4473 28.9527 34.6668 28.3984 34.6668 27.8204Z" stroke="#121212" stroke-width="2"/>
<path d="M24.6668 16.6667C24.6668 18.4348 23.9645 20.1305 22.7142 21.3807C21.464 22.631 19.7683 23.3333 18.0002 23.3333C16.2321 23.3333 14.5364 22.631 13.2861 21.3807C12.0359 20.1305 11.3335 18.4348 11.3335 16.6667C11.3335 14.8986 12.0359 13.2029 13.2861 11.9526C14.5364 10.7024 16.2321 10 18.0002 10C19.7683 10 21.464 10.7024 22.7142 11.9526C23.9645 13.2029 24.6668 14.8986 24.6668 16.6667Z" stroke="#121212" stroke-width="2"/>
</svg>
