<svg width="46" height="45" viewBox="0 0 46 45" fill="none" xmlns="http://www.w3.org/2000/svg">
<path d="M18.5 27.75H27.5M20 19.875H18.5M27.5 19.875H26M36.5 22.5C36.5 24.2728 36.1508 26.0283 35.4724 27.6662C34.7939 29.3041 33.7995 30.7923 32.5459 32.0459C31.2923 33.2995 29.8041 34.2939 28.1662 34.9724C26.5283 35.6508 24.7728 36 23 36C21.2272 36 19.4717 35.6508 17.8338 34.9724C16.1959 34.2939 14.7076 33.2995 13.4541 32.0459C12.2005 30.7923 11.2061 29.3041 10.5276 27.6662C9.84919 26.0283 9.5 24.2728 9.5 22.5C9.5 18.9196 10.9223 15.4858 13.4541 12.9541C15.9858 10.4223 19.4196 9 23 9C26.5804 9 30.0142 10.4223 32.5459 12.9541C35.0777 15.4858 36.5 18.9196 36.5 22.5Z" stroke="#A4A4A4" stroke-linecap="round" stroke-linejoin="round"/>
</svg>
