<svg width="58" height="58" viewBox="0 0 58 58" fill="none" xmlns="http://www.w3.org/2000/svg">
<path d="M30.33 10.4492H22.88C22.35 10.4492 21.83 10.6192 21.46 10.9192C21.08 11.2192 20.87 11.6292 20.87 12.0492V24.8492C20.87 25.2692 21.08 25.6792 21.46 25.9792C21.84 26.2792 22.35 26.4492 22.88 26.4492H34.96C35.49 26.4492 36.01 26.2792 36.38 25.9792C36.76 25.6792 36.97 25.2692 36.97 24.8492V18.9292" stroke="#1392FF" stroke-linecap="round" stroke-linejoin="round"/>
<path d="M37.55 14.0692C37.95 13.6692 38.17 13.1292 38.17 12.5692C38.17 12.0092 37.95 11.4692 37.55 11.0692C37.15 10.6692 36.61 10.4492 36.05 10.4492C35.49 10.4492 34.95 10.6692 34.55 11.0692L29.54 16.0792C29.3 16.3192 29.13 16.6092 29.03 16.9292L28.19 19.7992C28.16 19.8892 28.16 19.9792 28.19 20.0592C28.21 20.1492 28.26 20.2292 28.32 20.2892C28.38 20.3492 28.46 20.3992 28.55 20.4192C28.64 20.4392 28.73 20.4392 28.81 20.4192L31.68 19.5792C32 19.4892 32.3 19.3092 32.53 19.0692L37.55 14.0692Z" fill="#1392FF" stroke="#1392FF" stroke-linecap="round" stroke-linejoin="round"/>
<path d="M26.8664 37.222C26.9877 37.1007 27.1137 37.04 27.2444 37.04C27.375 37.0493 27.473 37.0773 27.5384 37.124C27.613 37.18 27.669 37.2827 27.7064 37.432C27.7624 37.6093 27.7904 39.0793 27.7904 41.842C27.7904 44.6047 27.7624 46.0513 27.7064 46.182C27.641 46.3313 27.5477 46.434 27.4264 46.49C27.3704 46.518 27.3004 46.532 27.2164 46.532C27.151 46.532 27.0764 46.518 26.9924 46.49L26.9364 46.462C26.8057 46.4153 26.7357 46.238 26.7264 45.93C26.7077 45.5193 26.6984 44.432 26.6984 42.668V37.39L26.8664 37.222ZM19.2364 38.692C19.2364 38.58 19.2644 38.4867 19.3204 38.412C19.3857 38.328 19.4697 38.272 19.5724 38.244C19.6657 38.2253 20.4217 38.216 21.8404 38.216C23.287 38.2253 24.071 38.2393 24.1924 38.258C24.295 38.2673 24.3884 38.3187 24.4724 38.412C24.519 38.468 24.547 38.524 24.5564 38.58C24.5657 38.5987 24.5704 38.6407 24.5704 38.706C24.5704 39.07 24.4864 39.4387 24.3184 39.812C24.225 40.0267 24.0197 40.4467 23.7024 41.072C23.441 41.576 23.2217 41.9727 23.0444 42.262C23.007 42.318 22.867 42.5093 22.6244 42.836L22.3164 43.242C22.0084 43.662 21.775 43.9653 21.6164 44.152L21.2384 44.558C20.9117 44.922 20.655 45.1133 20.4684 45.132L20.3144 45.146C20.0064 45.146 19.8244 45.0293 19.7684 44.796L19.7544 44.712C19.7544 44.6373 19.787 44.544 19.8524 44.432C19.9457 44.292 20.1417 44.0727 20.4404 43.774C20.851 43.3447 21.1124 43.0647 21.2244 42.934C21.3457 42.7753 21.4344 42.668 21.4904 42.612C21.5277 42.584 21.7844 42.2247 22.2604 41.534C22.4004 41.3193 22.559 41.0253 22.7364 40.652C22.9417 40.232 23.0957 39.8727 23.1984 39.574V39.56C23.273 39.364 23.2777 39.2473 23.2124 39.21C23.147 39.182 22.8577 39.168 22.3444 39.168H22.3024C21.7517 39.168 21.1264 39.154 20.4264 39.126C20.0624 39.1167 19.7917 39.098 19.6144 39.07C19.5117 39.0607 19.4277 39.0233 19.3624 38.958C19.2784 38.8833 19.2364 38.7947 19.2364 38.692ZM30.7946 36.816C30.8972 36.788 31.8912 36.774 33.7766 36.774H34.1686C35.4752 36.7833 36.2452 36.7973 36.4786 36.816C36.7119 36.844 36.8706 36.928 36.9546 37.068C36.9639 37.0773 36.9686 37.0913 36.9686 37.11C37.0432 37.2127 37.0806 37.474 37.0806 37.894C37.0806 38.3793 37.0432 38.72 36.9686 38.916C36.8939 39.1027 36.7399 39.266 36.5066 39.406C36.3572 39.49 35.7319 39.532 34.6306 39.532C34.0892 39.532 33.6599 39.5273 33.3426 39.518H32.6566C32.1339 39.518 31.8446 39.5273 31.7886 39.546C31.7419 39.5927 31.7046 39.6953 31.6766 39.854C31.6672 39.8913 31.6626 39.938 31.6626 39.994C31.6626 40.0873 31.6859 40.1573 31.7326 40.204C31.7792 40.2507 31.9192 40.274 32.1526 40.274C32.3206 40.2833 32.5352 40.288 32.7966 40.288C33.0579 40.2787 33.3286 40.274 33.6086 40.274C33.7486 40.2647 33.9866 40.26 34.3226 40.26C34.7706 40.2507 35.3072 40.246 35.9326 40.246C36.3806 40.246 36.6466 40.2507 36.7306 40.26C36.9826 40.2693 37.1692 40.344 37.2906 40.484C37.3839 40.596 37.4306 40.7033 37.4306 40.806C37.4306 41.002 37.3326 41.1467 37.1366 41.24C37.0152 41.2867 36.6699 41.31 36.1006 41.31C35.0272 41.31 34.4719 41.3287 34.4346 41.366C34.4066 41.394 34.3926 41.4547 34.3926 41.548C34.3926 41.632 34.3972 41.6973 34.4066 41.744L34.4486 42.08L36.3526 42.094C37.6219 42.122 38.2986 42.1547 38.3826 42.192C38.5412 42.2667 38.6206 42.4207 38.6206 42.654C38.6206 42.8873 38.5926 43.018 38.5366 43.046C38.4152 43.13 37.7059 43.1767 36.4086 43.186H34.1966C32.1712 43.186 30.9066 43.1767 30.4026 43.158C30.0292 43.1393 29.7772 43.0833 29.6466 42.99C29.5719 42.934 29.5346 42.8547 29.5346 42.752C29.5346 42.6867 29.5486 42.6213 29.5766 42.556C29.6512 42.3693 29.7632 42.262 29.9126 42.234C30.1086 42.206 30.6686 42.1873 31.5926 42.178C32.5819 42.1687 33.1139 42.15 33.1886 42.122C33.2259 42.1127 33.2446 41.9773 33.2446 41.716C33.2259 41.4547 33.2026 41.31 33.1746 41.282C33.1466 41.254 32.7872 41.2307 32.0966 41.212C31.5272 41.1933 31.1912 41.1747 31.0886 41.156C30.9672 41.128 30.8552 41.0487 30.7526 40.918C30.7059 40.8433 30.6779 40.75 30.6686 40.638C30.6499 40.4887 30.6406 40.232 30.6406 39.868C30.6312 39.4293 30.6312 39.1633 30.6406 39.07C30.6592 38.958 30.6919 38.8693 30.7386 38.804C30.8319 38.6547 31.0139 38.566 31.2846 38.538C31.3779 38.5287 31.6299 38.524 32.0406 38.524C32.6192 38.524 33.1139 38.5287 33.5246 38.538C33.8326 38.538 34.0472 38.5427 34.1686 38.552C34.4206 38.552 34.6586 38.5567 34.8826 38.566C35.1159 38.566 35.3072 38.5613 35.4566 38.552C35.6526 38.552 35.7739 38.5287 35.8206 38.482C35.9046 38.398 35.9466 38.2767 35.9466 38.118C35.9466 37.9687 35.9046 37.88 35.8206 37.852C35.7552 37.8147 34.9199 37.782 33.3146 37.754C31.7466 37.726 30.9066 37.6887 30.7946 37.642C30.7106 37.6047 30.6312 37.5253 30.5566 37.404C30.5099 37.3107 30.4866 37.25 30.4866 37.222C30.4866 37.2127 30.5099 37.152 30.5566 37.04C30.6219 36.928 30.7012 36.8533 30.7946 36.816ZM30.7106 44.18C30.7106 44.152 30.7339 44.0913 30.7806 43.998C30.8832 43.8113 31.0232 43.6993 31.2006 43.662C31.3592 43.6247 31.8912 43.606 32.7966 43.606C33.9166 43.5873 34.6352 43.5687 34.9526 43.55C35.5686 43.5033 35.9839 43.4893 36.1986 43.508C36.4412 43.5267 36.6139 43.564 36.7166 43.62C36.8659 43.6947 36.9592 43.7647 36.9966 43.83C37.0526 43.914 37.0852 44.0633 37.0946 44.278L37.1086 44.628C37.1086 44.7307 37.0992 44.95 37.0806 45.286L37.0386 46.098C37.0292 46.2193 37.0059 46.3593 36.9686 46.518C36.9406 46.6393 36.9079 46.714 36.8706 46.742C36.7772 46.77 36.7119 46.7887 36.6746 46.798C36.6372 46.8073 36.5812 46.812 36.5066 46.812C36.4132 46.812 36.3432 46.8027 36.2966 46.784C36.1752 46.7467 36.0866 46.6907 36.0306 46.616C35.9839 46.5413 35.9606 46.4573 35.9606 46.364C35.9512 46.28 35.9606 46.0093 35.9886 45.552L36.0166 44.838C36.0166 44.6793 36.0072 44.5907 35.9886 44.572C35.9792 44.5627 35.8066 44.558 35.4706 44.558C34.7799 44.558 34.1452 44.5673 33.5666 44.586L31.5366 44.614C31.2752 44.614 31.0979 44.5907 31.0046 44.544C30.8926 44.488 30.8086 44.4133 30.7526 44.32C30.7152 44.264 30.7012 44.2173 30.7106 44.18Z" fill="#1392FF"/>
</svg>
