<svg width="30" height="31" viewBox="0 0 30 31" fill="none" xmlns="http://www.w3.org/2000/svg">
<path d="M16.026 18.2346L14.9976 25.4346M11.9976 17.0346L10.9692 24.2346M20.3976 17.0346L19.3692 24.2346M10.1976 11.0778C11.0951 11.2075 11.9265 11.6243 12.5676 12.2658M7.79757 19.029C6.85468 18.581 6.1124 17.798 5.71544 16.8325C5.31847 15.8671 5.29527 14.7884 5.65035 13.8067C6.00543 12.8251 6.71335 12.0108 7.6361 11.5228C8.55885 11.0347 9.63029 10.9077 10.6416 11.1666C11.1529 9.91851 12.0698 8.87904 13.2442 8.2158C14.4187 7.55256 15.7822 7.30419 17.1151 7.51077C18.448 7.71734 19.6724 8.3668 20.591 9.35442C21.5096 10.342 22.0688 11.6103 22.1784 12.9546C22.6751 13.092 23.1327 13.3438 23.5146 13.6899C23.8965 14.036 24.192 14.4667 24.3775 14.9475C24.5629 15.4283 24.6332 15.9459 24.5827 16.4588C24.5321 16.9717 24.3621 17.4656 24.0864 17.901" stroke="#A4A4A4" stroke-linecap="round" stroke-linejoin="round"/>
</svg>
