<svg width="46" height="45" viewBox="0 0 46 45" fill="none" xmlns="http://www.w3.org/2000/svg">
<path d="M23.0101 39.2891C25.5401 37.1191 29.7201 36.4491 32.5001 33.8191C32.5001 33.8191 35.5501 31.4491 36.3401 26.6491L37.3801 27.5891C37.6501 27.8391 38.0901 27.5691 37.9901 27.2091L36.6101 22.4091C36.4601 21.8991 35.7901 21.7591 35.4501 22.1791L32.2501 26.0691C32.0301 26.3391 32.2701 26.7391 32.6201 26.6591L34.5601 26.2491C34.5601 26.2491 33.8901 27.9691 32.2301 29.5491C31.4201 30.3191 30.3801 30.7991 29.2701 30.9691C27.5301 31.2391 25.9101 30.0491 25.6801 28.3391C25.1801 24.5791 24.8801 20.7991 24.7801 17.0091L24.7201 14.8191H30.9601C31.1501 15.4791 31.5201 15.9391 31.9601 15.9391C32.5801 15.9391 33.0901 15.0091 33.0901 13.8491C33.0901 12.6891 32.5801 11.7591 31.9601 11.7591C31.5201 11.7591 31.1501 12.2191 30.9601 12.8791H24.6701L24.6101 10.4691C25.9301 9.86906 26.8501 8.55906 26.8501 7.04906C26.8501 4.97906 25.1301 3.28906 23.0001 3.28906C20.8701 3.28906 19.1501 4.97906 19.1501 7.05906C19.1501 8.57906 20.0701 9.88906 21.4001 10.4891L21.3401 12.8991H15.0401C14.8501 12.2391 14.4801 11.7791 14.0401 11.7791C13.4101 11.7791 12.9101 12.7091 12.9101 13.8691C12.9101 15.0291 13.4201 15.9591 14.0401 15.9591C14.4801 15.9591 14.8501 15.4991 15.0401 14.8391H21.2901L21.2301 17.0291C21.1301 20.8191 20.8301 24.5991 20.3301 28.3591C20.1001 30.0691 18.4801 31.2591 16.7401 30.9891C15.6301 30.8191 14.5901 30.3291 13.7801 29.5691C12.1201 27.9891 11.4501 26.2691 11.4501 26.2691L13.3901 26.6791C13.7301 26.7491 13.9901 26.3591 13.7601 26.0891L10.5601 22.1991C10.2201 21.7891 9.55012 21.9191 9.40012 22.4291L8.02012 27.2291C7.92012 27.5891 8.36012 27.8491 8.64012 27.5991L9.68012 26.6591C10.4801 31.4591 13.5201 33.8291 13.5201 33.8291C16.3001 36.4391 20.4701 37.1091 23.0101 39.2891ZM23.0001 5.16906C24.0601 5.16906 24.9301 6.00906 24.9301 7.05906C24.9301 8.09906 24.0701 8.94906 23.0101 8.94906H22.9601C21.9201 8.91906 21.0801 8.08906 21.0801 7.06906C21.0701 6.01906 21.9301 5.16906 23.0001 5.16906Z" fill="#1392FF"/>
<path d="M23.0101 39.2891C25.5401 37.1191 29.7201 36.4491 32.5001 33.8191C32.5001 33.8191 35.5501 31.4491 36.3401 26.6491L37.3801 27.5891C37.6501 27.8391 38.0901 27.5691 37.9901 27.2091L36.6101 22.4091C36.4601 21.8991 35.7901 21.7591 35.4501 22.1791L32.2501 26.0691C32.0301 26.3391 32.2701 26.7391 32.6201 26.6591L34.5601 26.2491C34.5601 26.2491 33.8901 27.9691 32.2301 29.5491C31.4201 30.3191 30.3801 30.7991 29.2701 30.9691C27.5301 31.2391 25.9101 30.0491 25.6801 28.3391C25.1801 24.5791 24.8801 20.7991 24.7801 17.0091L24.7201 14.8191H30.9601C31.1501 15.4791 31.5201 15.9391 31.9601 15.9391C32.5801 15.9391 33.0901 15.0091 33.0901 13.8491C33.0901 12.6891 32.5801 11.7591 31.9601 11.7591C31.5201 11.7591 31.1501 12.2191 30.9601 12.8791H24.6701L24.6101 10.4691C25.9301 9.86906 26.8501 8.55906 26.8501 7.04906C26.8501 4.97906 25.1301 3.28906 23.0001 3.28906C20.8701 3.28906 19.1501 4.97906 19.1501 7.05906C19.1501 8.57906 20.0701 9.88906 21.4001 10.4891L21.3401 12.8991H15.0401C14.8501 12.2391 14.4801 11.7791 14.0401 11.7791C13.4101 11.7791 12.9101 12.7091 12.9101 13.8691C12.9101 15.0291 13.4201 15.9591 14.0401 15.9591C14.4801 15.9591 14.8501 15.4991 15.0401 14.8391H21.2901L21.2301 17.0291C21.1301 20.8191 20.8301 24.5991 20.3301 28.3591C20.1001 30.0691 18.4801 31.2591 16.7401 30.9891C15.6301 30.8191 14.5901 30.3291 13.7801 29.5691C12.1201 27.9891 11.4501 26.2691 11.4501 26.2691L13.3901 26.6791C13.7301 26.7491 13.9901 26.3591 13.7601 26.0891L10.5601 22.1991C10.2201 21.7891 9.55012 21.9191 9.40012 22.4291L8.02012 27.2291C7.92012 27.5891 8.36012 27.8491 8.64012 27.5991L9.68012 26.6591C10.4801 31.4591 13.5201 33.8291 13.5201 33.8291C16.3001 36.4391 20.4701 37.1091 23.0101 39.2891ZM23.0001 5.16906C24.0601 5.16906 24.9301 6.00906 24.9301 7.05906C24.9301 8.09906 24.0701 8.94906 23.0101 8.94906H22.9601C21.9201 8.91906 21.0801 8.08906 21.0801 7.06906C21.0701 6.01906 21.9301 5.16906 23.0001 5.16906Z" stroke="#0074DA" stroke-miterlimit="10" stroke-linejoin="round"/>
</svg>
