<svg width="46" height="45" viewBox="0 0 46 45" fill="none" xmlns="http://www.w3.org/2000/svg">
<path d="M23.0101 42.2207C25.5401 40.0507 29.7201 39.3807 32.5001 36.7507C32.5001 36.7507 35.5501 34.3807 36.3401 29.5807L37.3801 30.5207C37.6501 30.7707 38.0901 30.5007 37.9901 30.1407L36.6101 25.3407C36.4601 24.8307 35.7901 24.6907 35.4501 25.1107L32.2501 29.0007C32.0301 29.2707 32.2701 29.6707 32.6201 29.5907L34.5601 29.1807C34.5601 29.1807 33.8901 30.9007 32.2301 32.4807C31.4201 33.2507 30.3801 33.7307 29.2701 33.9007C27.5301 34.1707 25.9101 32.9807 25.6801 31.2707C25.1801 27.5107 24.8801 23.7307 24.7801 19.9407L24.7201 17.7507H30.9601C31.1501 18.4107 31.5201 18.8707 31.9601 18.8707C32.5801 18.8707 33.0901 17.9407 33.0901 16.7807C33.0901 15.6207 32.5801 14.6907 31.9601 14.6907C31.5201 14.6907 31.1501 15.1507 30.9601 15.8107H24.6701L24.6101 13.4007C25.9301 12.8007 26.8501 11.4907 26.8501 9.9807C26.8501 7.9107 25.1301 6.2207 23.0001 6.2207C20.8701 6.2207 19.1501 7.9107 19.1501 9.9907C19.1501 11.5107 20.0701 12.8207 21.4001 13.4207L21.3401 15.8307H15.0401C14.8501 15.1707 14.4801 14.7107 14.0401 14.7107C13.4101 14.7107 12.9101 15.6407 12.9101 16.8007C12.9101 17.9607 13.4201 18.8907 14.0401 18.8907C14.4801 18.8907 14.8501 18.4307 15.0401 17.7707H21.2901L21.2301 19.9607C21.1301 23.7507 20.8301 27.5307 20.3301 31.2907C20.1001 33.0007 18.4801 34.1907 16.7401 33.9207C15.6301 33.7507 14.5901 33.2607 13.7801 32.5007C12.1201 30.9207 11.4501 29.2007 11.4501 29.2007L13.3901 29.6107C13.7301 29.6807 13.9901 29.2907 13.7601 29.0207L10.5601 25.1307C10.2201 24.7207 9.55012 24.8507 9.40012 25.3607L8.02012 30.1607C7.92012 30.5207 8.36012 30.7807 8.64012 30.5307L9.68012 29.5907C10.4801 34.3907 13.5201 36.7607 13.5201 36.7607C16.3001 39.3707 20.4701 40.0407 23.0101 42.2207ZM23.0001 8.1007C24.0601 8.1007 24.9301 8.9407 24.9301 9.9907C24.9301 11.0307 24.0701 11.8807 23.0101 11.8807H22.9601C21.9201 11.8507 21.0801 11.0207 21.0801 10.0007C21.0701 8.9507 21.9301 8.1007 23.0001 8.1007Z" fill="#CECECE"/>
<path d="M23.0101 42.2207C25.5401 40.0507 29.7201 39.3807 32.5001 36.7507C32.5001 36.7507 35.5501 34.3807 36.3401 29.5807L37.3801 30.5207C37.6501 30.7707 38.0901 30.5007 37.9901 30.1407L36.6101 25.3407C36.4601 24.8307 35.7901 24.6907 35.4501 25.1107L32.2501 29.0007C32.0301 29.2707 32.2701 29.6707 32.6201 29.5907L34.5601 29.1807C34.5601 29.1807 33.8901 30.9007 32.2301 32.4807C31.4201 33.2507 30.3801 33.7307 29.2701 33.9007C27.5301 34.1707 25.9101 32.9807 25.6801 31.2707C25.1801 27.5107 24.8801 23.7307 24.7801 19.9407L24.7201 17.7507H30.9601C31.1501 18.4107 31.5201 18.8707 31.9601 18.8707C32.5801 18.8707 33.0901 17.9407 33.0901 16.7807C33.0901 15.6207 32.5801 14.6907 31.9601 14.6907C31.5201 14.6907 31.1501 15.1507 30.9601 15.8107H24.6701L24.6101 13.4007C25.9301 12.8007 26.8501 11.4907 26.8501 9.9807C26.8501 7.9107 25.1301 6.2207 23.0001 6.2207C20.8701 6.2207 19.1501 7.9107 19.1501 9.9907C19.1501 11.5107 20.0701 12.8207 21.4001 13.4207L21.3401 15.8307H15.0401C14.8501 15.1707 14.4801 14.7107 14.0401 14.7107C13.4101 14.7107 12.9101 15.6407 12.9101 16.8007C12.9101 17.9607 13.4201 18.8907 14.0401 18.8907C14.4801 18.8907 14.8501 18.4307 15.0401 17.7707H21.2901L21.2301 19.9607C21.1301 23.7507 20.8301 27.5307 20.3301 31.2907C20.1001 33.0007 18.4801 34.1907 16.7401 33.9207C15.6301 33.7507 14.5901 33.2607 13.7801 32.5007C12.1201 30.9207 11.4501 29.2007 11.4501 29.2007L13.3901 29.6107C13.7301 29.6807 13.9901 29.2907 13.7601 29.0207L10.5601 25.1307C10.2201 24.7207 9.55012 24.8507 9.40012 25.3607L8.02012 30.1607C7.92012 30.5207 8.36012 30.7807 8.64012 30.5307L9.68012 29.5907C10.4801 34.3907 13.5201 36.7607 13.5201 36.7607C16.3001 39.3707 20.4701 40.0407 23.0101 42.2207ZM23.0001 8.1007C24.0601 8.1007 24.9301 8.9407 24.9301 9.9907C24.9301 11.0307 24.0701 11.8807 23.0101 11.8807H22.9601C21.9201 11.8507 21.0801 11.0207 21.0801 10.0007C21.0701 8.9507 21.9301 8.1007 23.0001 8.1007Z" stroke="#A4A4A4" stroke-miterlimit="10" stroke-linejoin="round"/>
</svg>
