<svg width="30" height="31" viewBox="0 0 30 31" fill="none" xmlns="http://www.w3.org/2000/svg">
<path d="M10 12.1346C10.9349 12.2698 11.801 12.7039 12.4688 13.3721M5 16.4646C5 17.6249 5.46094 18.7377 6.28141 19.5582C7.10188 20.3787 8.21468 20.8396 9.375 20.8396H21.5625C22.3938 20.8394 23.1968 20.5379 23.8229 19.991C24.449 19.4441 24.8557 18.6888 24.9676 17.8651C25.0796 17.0414 24.8893 16.205 24.4319 15.5108C23.9745 14.8167 23.2811 14.3118 22.48 14.0896C22.3685 12.6877 21.7875 11.3643 20.8309 10.3335C19.8742 9.30264 18.5978 8.62457 17.2081 8.4089C15.8184 8.19323 14.3966 8.45257 13.1725 9.14498C11.9484 9.83739 10.9936 10.9224 10.4625 12.2246C9.81609 12.0587 9.1403 12.0429 8.48685 12.1784C7.83339 12.3139 7.21959 12.5971 6.69241 13.0062C6.16523 13.4154 5.73865 13.9398 5.44531 14.5392C5.15197 15.1387 4.99965 15.7973 5 16.4646Z" stroke="#A4A4A4" stroke-linecap="round" stroke-linejoin="round"/>
</svg>
