<svg width="24" height="24" viewBox="0 0 24 24" fill="none" xmlns="http://www.w3.org/2000/svg">
<path d="M14.6076 7.22271H14.6181M10.3865 19.8894H6.16552C5.32591 19.8894 4.52068 19.5557 3.92699 18.9619C3.33329 18.368 2.99976 17.5626 2.99976 16.7227V6.16716C2.99976 5.3273 3.33329 4.52185 3.92699 3.92798C4.52068 3.33412 5.32591 3.00049 6.16552 3.00049H16.7181C17.5577 3.00049 18.3629 3.33412 18.9566 3.92798C19.5503 4.52185 19.8839 5.3273 19.8839 6.16716V10.3894" stroke="#121212" stroke-width="2" stroke-linecap="round" stroke-linejoin="round"/>
<path d="M2.99976 14.6113L7.22078 10.3891C8.20006 9.44648 9.40727 9.44648 10.3865 10.3891L13.5523 13.5558L14.6076 12.5002C14.9347 12.1856 15.2872 11.9756 15.6491 11.8711M18.2165 15.2552C18.4223 15.0494 18.6666 14.8861 18.9355 14.7747C19.2044 14.6633 19.4926 14.6059 19.7836 14.6059C20.0746 14.6059 20.3628 14.6633 20.6317 14.7747C20.9006 14.8861 21.1449 15.0494 21.3507 15.2552C21.5564 15.461 21.7197 15.7054 21.8311 15.9744C21.9424 16.2433 21.9998 16.5316 21.9998 16.8227C21.9998 17.1138 21.9424 17.4021 21.8311 17.671C21.7197 17.94 21.5564 18.1844 21.3507 18.3902L17.7733 22.0002H14.6076V18.8335L18.2165 15.2552Z" stroke="#121212" stroke-width="2" stroke-linecap="round" stroke-linejoin="round"/>
</svg>
