<svg width="61" height="61" viewBox="0 0 61 61" fill="none" xmlns="http://www.w3.org/2000/svg">
<path d="M49.2972 28.6656L45.3972 27.4228L48.7915 25.1256C49.9143 24.3628 49.3572 22.6056 48.0029 22.6399L44.4286 22.7171L46.6657 19.9314C47.5143 18.8771 46.46 17.3599 45.1743 17.7885L41.2915 19.0828L42.6886 15.2342C43.1515 13.9571 41.6686 12.8685 40.5886 13.6828L37.7429 15.8428L37.9143 12.2771C37.9829 10.9228 36.2429 10.3142 35.4457 11.4199L33.0629 14.7542L31.9315 10.8199C31.5543 9.51707 29.7115 9.5085 29.3172 10.8028L28.28 14.2142L26.3257 11.2228C25.58 10.0914 23.8143 10.6228 23.8229 11.9771L23.8486 16.0742L20.6172 13.5542C19.5457 12.7228 18.0457 13.7942 18.5 15.0714L19.6743 18.4485L16.3315 17.1799C15.0629 16.6999 13.9486 18.1656 14.7543 19.2628L17.1886 22.5628L13.0915 22.4256C11.7372 22.3828 11.1543 24.1314 12.2686 24.9028L15.2086 26.9428L11.7629 27.8771C10.4515 28.2371 10.4172 30.0799 11.7115 30.4828L15.6115 31.7256L12.2172 34.0228C11.0943 34.7856 11.6515 36.5428 13.0057 36.5085L16.58 36.4314L14.3429 39.2171C13.4943 40.2714 14.5486 41.7885 15.8343 41.3599L19.7172 40.0656L18.32 43.9142C17.8572 45.1914 19.34 46.2799 20.42 45.4656L23.2657 43.3056L23.0943 46.8713C23.0257 48.2256 24.7657 48.8342 25.5629 47.7285L27.9457 44.3942L29.0772 48.3285C29.4543 49.6314 31.2972 49.6399 31.6915 48.3456L32.72 44.9256L34.6743 47.9171C35.42 49.0485 37.1857 48.5171 37.1772 47.1628L37.1515 43.0656L40.3829 45.5856C41.4543 46.4171 42.9543 45.3456 42.5 44.0685L41.3257 40.6914L44.6686 41.9599C45.9372 42.4399 47.0515 40.9742 46.2457 39.8771L43.8115 36.5771L47.9086 36.7142C49.2629 36.7571 49.8457 35.0085 48.7315 34.2371L45.7915 32.1971L49.2372 31.2628C50.5486 30.9114 50.5915 29.0685 49.2972 28.6656Z" fill="#757577"/>
<path d="M34.0486 31.5716C34.451 31.5716 34.7772 31.0919 34.7772 30.5001C34.7772 29.9084 34.451 29.4287 34.0486 29.4287C33.6462 29.4287 33.32 29.9084 33.32 30.5001C33.32 31.0919 33.6462 31.5716 34.0486 31.5716Z" fill="#121212"/>
<path d="M26.6857 31.5716C27.0881 31.5716 27.4143 31.0919 27.4143 30.5001C27.4143 29.9084 27.0881 29.4287 26.6857 29.4287C26.2833 29.4287 25.9572 29.9084 25.9572 30.5001C25.9572 31.0919 26.2833 31.5716 26.6857 31.5716Z" fill="#121212"/>
<path d="M49.2972 28.6655L45.5429 27.4741L48.8257 25.2969C49.9572 24.5512 49.4172 22.7855 48.0543 22.8026L44.3172 22.8455L46.6572 19.9312C47.5057 18.8769 46.4515 17.3598 45.1657 17.7884L41.4286 19.0312L42.8086 15.3455C43.28 14.0769 41.8057 12.9712 40.7172 13.7769L37.7172 16.0141L37.8972 12.2769C37.9657 10.9226 36.2257 10.3141 35.4286 11.4198L33.14 14.6169L32.0857 10.8198C31.7257 9.51693 29.8829 9.48265 29.48 10.7769L28.3657 14.3512L26.3172 11.2226C25.5715 10.0912 23.8057 10.6226 23.8143 11.9769L23.84 15.9112L20.7543 13.4598C19.6914 12.6198 18.1829 13.6741 18.62 14.9598L19.82 18.4998L16.3229 17.1712C15.0543 16.6912 13.94 18.1569 14.7457 19.2541L17.0857 22.4255L13.1515 22.2541C11.7972 22.1941 11.1972 23.9426 12.3029 24.7226L15.3543 26.8826L11.7457 27.8684C10.4343 28.2284 10.4 30.0712 11.6943 30.4741L15.4486 31.6655L12.1657 33.8426C11.0343 34.5884 11.5743 36.3541 12.9372 36.3369L16.6743 36.2941L14.3343 39.2084C13.4857 40.2626 14.54 41.7798 15.8257 41.3512L19.5629 40.1084L18.1829 43.7941C17.7114 45.0626 19.1857 46.1684 20.2743 45.3626L23.2743 43.1255L23.0943 46.8626C23.0257 48.2169 24.7657 48.8255 25.5629 47.7198L27.8515 44.5226L28.9057 48.3198C29.2657 49.6227 31.1086 49.6569 31.5115 48.3626L32.6257 44.7884L34.6743 47.9169C35.42 49.0484 37.1857 48.5169 37.1772 47.1626L37.1514 43.2284L40.2372 45.6798C41.3 46.5198 42.8086 45.4655 42.3714 44.1798L41.1715 40.6398L44.6686 41.9684C45.9372 42.4484 47.0514 40.9826 46.2457 39.8855L43.9057 36.7141L47.84 36.8855C49.1943 36.9455 49.7943 35.1969 48.6886 34.4169L45.6372 32.2569L49.2457 31.2712C50.5486 30.9112 50.5915 29.0684 49.2972 28.6655Z" stroke="#6B6B6B" stroke-miterlimit="10" stroke-linejoin="round"/>
</svg>
