<svg width="46" height="45" viewBox="0 0 46 45" fill="none" xmlns="http://www.w3.org/2000/svg">
<path d="M27.1199 34.1691C27.0899 34.1691 27.0599 34.1591 27.0399 34.1491C26.5999 34.0191 26.3499 33.5491 26.4699 33.1091L33.7299 8.32907C33.8599 7.88907 34.3299 7.64907 34.7599 7.76907C35.1999 7.89907 35.45 8.36907 35.33 8.80907L28.0599 33.5891C27.9399 33.9991 27.5299 34.2491 27.1199 34.1691Z" fill="#A4A4A4"/>
<path d="M26.95 34.1198C26.92 34.1198 26.89 34.1098 26.87 34.0998C26.43 33.9698 26.18 33.4998 26.3 33.0698L33.58 8.29977C33.71 7.85977 34.18 7.61977 34.61 7.73977C35.05 7.86977 35.3 8.33977 35.18 8.76977L27.91 33.5398C27.78 33.9598 27.37 34.1998 26.95 34.1198Z" stroke="#A4A4A4" stroke-miterlimit="10" stroke-linecap="round"/>
<path d="M14.1799 20.4102L21.6799 9.41016C21.6799 9.41016 24.1199 6.41016 30.6399 8.41016L37.2699 11.4002C37.9099 11.7202 38.0199 12.6102 37.4799 13.0802L34.9999 15.3502C34.7299 15.5902 34.5999 15.9702 34.6799 16.3302L36.8499 26.5802L14.1799 20.4102Z" fill="#CECECE"/>
<path d="M18.5999 13.9297L23.9499 15.3397C26.5699 16.0297 28.5299 18.2297 28.9499 20.9597L29.4699 24.2697L14.1899 20.4097L18.5999 13.9297Z" fill="#A4A4A4"/>
<path d="M14.1799 20.5391L21.6799 9.53906C21.6799 9.53906 24.1199 6.53906 30.6399 8.53906L37.2699 11.5291C37.9099 11.8491 38.0199 12.7391 37.4799 13.2091L34.9999 15.4791C34.7299 15.7191 34.5999 16.0991 34.6799 16.4591L36.8499 26.7091L14.1799 20.5391Z" stroke="#A4A4A4" stroke-miterlimit="10"/>
<path d="M14.48 20.1203L18.6 14.0703L25.49 16.1003C25.49 16.1003 29.29 17.3203 29.47 24.4203" stroke="#A4A4A4" stroke-miterlimit="10"/>
<path d="M22.4999 15.0898L20.8599 21.9498" stroke="#A4A4A4" stroke-miterlimit="10"/>
<path d="M42.24 28.2493C37 26.5493 14.84 19.4693 4.45996 18.1293C3.18996 17.9693 2.18996 19.1993 2.57996 20.4493L6.37996 32.6993C7.82996 37.3893 12.09 40.5793 16.9 40.5793H36.51C39.86 40.5793 42.73 38.1093 43.25 34.7193C43.46 33.3893 43.55 31.7893 43.46 29.8593C43.42 29.1193 42.94 28.4693 42.24 28.2493Z" fill="#CECECE"/>
<path d="M5.33997 29.3496C14.61 31.7196 24.06 33.2696 33.6 33.9996L43.25 34.7296L43.06 36.4096C42.84 38.3996 41.42 40.0696 39.51 40.4696C39.15 40.5396 38.82 40.5796 38.52 40.5796H16.75C12.18 40.5796 8.11997 37.6196 6.63997 33.2096L5.33997 29.3496Z" fill="#A4A4A4"/>
<path d="M5.33997 29.4805C5.33997 29.4805 24.86 34.8805 43.26 34.8605" stroke="#A4A4A4" stroke-miterlimit="10"/>
<path d="M42.24 28.3802C37 26.6802 14.84 19.6002 4.45996 18.2602C3.18996 18.1002 2.18996 19.3302 2.57996 20.5802L6.37996 32.8302C7.82996 37.5202 12.09 40.7102 16.9 40.7102H36.51C42.89 40.7102 42.73 38.2402 43.25 34.8502C43.42 33.4302 43.55 31.9202 43.46 29.9902C43.42 29.2502 42.94 28.6002 42.24 28.3802Z" stroke="#A4A4A4" stroke-miterlimit="10" stroke-linecap="round"/>
</svg>
