<svg width="61" height="61" viewBox="0 0 61 61" fill="none" xmlns="http://www.w3.org/2000/svg">
<path d="M25.8029 23.343C25.8029 23.343 27.14 20.7887 34.4429 20.583L31.58 23.0516C31.58 23.0516 42.2686 25.2202 47.5657 29.9859C47.5657 29.9944 36.3029 21.1916 25.8029 23.343Z" fill="#4384A8" stroke="#4384A8" stroke-miterlimit="10" stroke-linejoin="round"/>
<path d="M25.6743 37.4773C25.6743 37.4773 26.7972 40.1344 34.0486 40.9487L31.4 38.2487C31.4 38.2487 42.2343 36.9801 47.9172 32.6773C47.9172 32.6687 35.96 40.4944 25.6743 37.4773Z" stroke="#4384A8" stroke-miterlimit="10" stroke-linejoin="round"/>
<path d="M55.9057 36.0456C55.4857 35.3171 55.0314 34.6314 54.5428 33.9714C53.9 33.0971 53.2057 32.2742 52.4771 31.4856C53.1457 30.7314 53.7885 29.9599 54.38 29.1371C54.8343 28.4942 55.2714 27.8256 55.6743 27.1314C56.0685 26.4285 56.4457 25.6999 56.7371 24.8942C55.9314 25.1856 55.2114 25.5628 54.5 25.9571C53.7971 26.3599 53.1371 26.7971 52.4943 27.2514C51.3714 28.0656 50.3257 28.9571 49.3314 29.9085V29.8571C49.3314 29.8571 48.6628 30.6628 47.54 29.9771C44.9685 27.2599 36.86 23.5742 27.2514 23.5742C15.5771 23.5742 6.96283 29.8656 6.96283 32.4971C6.96283 36.4314 15.5685 37.9485 27.2514 37.9485C36.62 37.9485 44.5657 34.9742 47.3428 32.8828L47.3514 32.8742C47.4114 32.8314 47.4714 32.7885 47.5228 32.7371C47.8228 32.5314 48.4571 32.2399 49.1 32.8828V32.8571C50.1885 33.9456 51.3457 34.9656 52.6057 35.8828C53.2657 36.3628 53.9514 36.8256 54.68 37.2456C55.4085 37.6571 56.1628 38.0514 57.0028 38.3599C56.7114 37.5285 56.3171 36.7828 55.9057 36.0456Z" fill="white"/>
<path d="M7.14288 33.3798C7.14288 33.3798 35.7372 32.5826 47.36 32.0426L52.4857 31.4855L47.5657 29.9941L39.6372 25.2884C39.6372 25.2884 31.9743 22.9141 29.8143 23.5912C29.8143 23.5912 8.33431 23.5912 7.14288 33.3798Z" fill="#A6E0F4"/>
<path d="M13.2629 32.5999C13.6653 32.5999 13.9914 32.1202 13.9914 31.5285C13.9914 30.9367 13.6653 30.457 13.2629 30.457C12.8605 30.457 12.5343 30.9367 12.5343 31.5285C12.5343 32.1202 12.8605 32.5999 13.2629 32.5999Z" fill="#121212"/>
<path d="M25.3657 30.2258C25.3657 30.2258 27.7229 28.4429 31.7514 28.6658C31.7514 28.6658 28.1857 31.9743 23.5314 32.7115L25.3657 30.2258Z" fill="white"/>
<path d="M25.3657 30.2258C25.3657 30.2258 27.7229 28.4429 31.7514 28.6658C31.7514 28.6658 28.1857 31.9743 23.5314 32.7115L25.3657 30.2258Z" stroke="#4384A8" stroke-miterlimit="10" stroke-linejoin="round"/>
<path d="M55.9057 36.0456C55.4857 35.3171 55.0314 34.6314 54.5428 33.9714C53.9 33.0971 53.2057 32.2742 52.4771 31.4856C53.1457 30.7314 53.7885 29.9599 54.38 29.1371C54.8343 28.4942 55.2714 27.8256 55.6743 27.1314C56.0685 26.4285 56.4457 25.6999 56.7371 24.8942C55.9314 25.1856 55.2114 25.5628 54.5 25.9571C53.7971 26.3599 53.1371 26.7971 52.4943 27.2514C51.3714 28.0656 50.3257 28.9571 49.3314 29.9085V29.8571C49.3314 29.8571 48.6628 30.6628 47.54 29.9771C44.9685 27.2599 36.86 23.5742 27.2514 23.5742C15.5771 23.5742 6.96283 29.8656 6.96283 32.4971C6.96283 32.8056 7.02283 33.0885 7.12569 33.3628C7.5714 33.5085 8.6514 33.7314 11.0943 33.6542C11.0943 33.6542 9.0714 34.6314 7.66569 34.5885C9.7914 37.2028 17.3685 37.9485 27.2514 37.9485C36.62 37.9485 44.5657 34.9742 47.3428 32.8828L47.3514 32.8742C47.4114 32.8314 47.4714 32.7885 47.5228 32.7371C47.8228 32.5314 48.4571 32.2399 49.1 32.8828V32.8571C50.1885 33.9456 51.3457 34.9656 52.6057 35.8828C53.2657 36.3628 53.9514 36.8256 54.68 37.2456C55.4085 37.6571 56.1628 38.0514 57.0028 38.3599C56.7114 37.5285 56.3171 36.7828 55.9057 36.0456Z" stroke="#4384A8" stroke-miterlimit="10" stroke-linejoin="round"/>
<path d="M52.4 31.623C52.4 31.623 47.8572 32.6088 36.6886 32.583" stroke="#4384A8" stroke-miterlimit="10" stroke-linecap="round" stroke-linejoin="round"/>
</svg>
