<svg width="61" height="61" viewBox="0 0 61 61" fill="none" xmlns="http://www.w3.org/2000/svg">
<path d="M22.28 27.2256C22.28 27.2256 18.3885 18.8428 30.0543 15.5342C30.0543 15.5342 21.8771 19.5113 25.9485 25.8799L22.28 27.2256Z" fill="#CE6B29" stroke="#AA4D00" stroke-miterlimit="10" stroke-linecap="round" stroke-linejoin="round"/>
<path d="M24.1914 27.7998C24.1914 27.7998 20.3 19.417 31.9657 16.1084C31.9657 16.1084 23.7886 20.0855 27.86 26.4541L24.1914 27.7998Z" fill="#CE6B29" stroke="#AA4D00" stroke-miterlimit="10" stroke-linecap="round" stroke-linejoin="round"/>
<path d="M28.0228 28.9571C28.0228 28.9571 24.1314 20.5742 35.7971 17.2656C35.7971 17.2656 27.62 21.2428 31.6914 27.6113L28.0228 28.9571Z" fill="#CE6B29" stroke="#AA4D00" stroke-miterlimit="10" stroke-linecap="round" stroke-linejoin="round"/>
<path d="M30.0543 30.98C30.0543 30.98 26.1628 22.5971 37.8286 19.2886C37.8286 19.2886 29.6514 23.2657 33.7228 29.6343L30.0543 30.98Z" fill="#CE6B29" stroke="#AA4D00" stroke-miterlimit="10" stroke-linecap="round" stroke-linejoin="round"/>
<path d="M21.6114 29.9257C21.6114 29.9257 14.18 24.0543 23.1972 16.2886C23.1972 16.2886 17.6514 23.2229 24.2943 27.2171L21.6114 29.9257Z" fill="#CE6B29" stroke="#AA4D00" stroke-miterlimit="10" stroke-linecap="round" stroke-linejoin="round"/>
<path d="M22.28 37.6572C22.28 37.6572 18.3885 46.0401 30.0543 49.3487C30.0543 49.3487 21.8771 45.3715 25.9485 39.0029L22.28 37.6572Z" fill="#CE6B29" stroke="#AA4D00" stroke-miterlimit="10" stroke-linecap="round" stroke-linejoin="round"/>
<path d="M25.1086 36.7744C25.1086 36.7744 21.2172 45.1573 32.8829 48.4658C32.8829 48.4658 24.7057 44.4887 28.7772 38.1201L25.1086 36.7744Z" fill="#CE6B29" stroke="#AA4D00" stroke-miterlimit="10" stroke-linecap="round" stroke-linejoin="round"/>
<path d="M28.0228 35.9258C28.0228 35.9258 24.1314 44.3086 35.7971 47.6172C35.7971 47.6172 27.62 43.6401 31.6914 37.2715L28.0228 35.9258Z" fill="#CE6B29" stroke="#AA4D00" stroke-miterlimit="10" stroke-linecap="round" stroke-linejoin="round"/>
<path d="M30.0543 33.9028C30.0543 33.9028 26.1628 42.2857 37.8286 45.5943C37.8286 45.5943 29.6514 41.6171 33.7228 35.2485L30.0543 33.9028Z" fill="#CE6B29" stroke="#AA4D00" stroke-miterlimit="10" stroke-linecap="round" stroke-linejoin="round"/>
<path d="M21.6114 34.957C21.6114 34.957 14.18 40.8285 23.1972 48.5942C23.1972 48.5942 17.6514 41.6599 24.2943 37.6656L21.6114 34.957Z" fill="#CE6B29" stroke="#AA4D00" stroke-miterlimit="10" stroke-linecap="round" stroke-linejoin="round"/>
<path d="M44.4286 29.943C44.9171 29.9344 45.3971 29.7972 45.8171 29.5487L49.7771 27.2172C50.48 26.9515 51.2686 27.1915 51.7057 27.8087C52.8114 29.3772 54.3714 34.2544 51.9714 37.4258C51.56 37.9658 50.8314 38.163 50.1886 37.9572L45.6971 35.7544C45.2943 35.5572 44.8485 35.4544 44.3943 35.463L43.8628 35.4715C43.0057 35.4801 42.2257 35.9001 41.6685 36.5515C38.8828 39.8258 32.8143 42.1058 25.76 42.1058C16.0657 42.1058 5.47998 37.4087 8.20569 32.5315C11.1971 27.183 18.0114 22.1001 25.76 22.1001C32 22.1001 38.78 25.4687 41.6685 28.9658C42.2085 29.6172 43.0314 29.9687 43.8885 29.9515L44.4286 29.943Z" fill="white"/>
<path d="M13.2629 34.3142C13.6653 34.3142 13.9914 33.8345 13.9914 33.2428C13.9914 32.6511 13.6653 32.1714 13.2629 32.1714C12.8605 32.1714 12.5343 32.6511 12.5343 33.2428C12.5343 33.8345 12.8605 34.3142 13.2629 34.3142Z" fill="#121212"/>
<path d="M16.46 24.5685C16.46 24.5685 21.1743 33.3971 16.46 40.8457L19.3572 41.4542C19.3572 41.4542 23.7715 35.3 19.3572 23.2485L16.46 24.5685Z" fill="#CE6B29"/>
<path d="M22.3657 22.6229C22.3657 22.6229 27.08 32.9258 22.3657 41.6258L25.2629 42.3372C25.2629 42.3372 30.0629 34.3058 25.2629 21.9458L22.3657 22.6229Z" fill="#CE6B29"/>
<path d="M28.2457 22.623C28.2457 22.623 32.96 32.9259 28.2457 41.6259L31.1429 41.4802C31.1429 41.4802 35.9429 35.1716 31.1429 22.803L28.2457 22.623Z" fill="#CE6B29"/>
<path d="M33.7657 23.48C33.7657 23.48 38.6086 32.3086 33.8943 41L36.6629 40.0143C36.6629 40.0143 40.7857 34.3143 36.6629 24.9286L33.7657 23.48Z" fill="#CE6B29"/>
<path d="M42.3543 31.117C42.3543 31.117 45.0457 32.197 52.5972 29.2827" stroke="#AA4D00" stroke-miterlimit="10"/>
<path d="M42.3543 34.3656C42.3543 34.3656 45.0457 33.2856 52.5972 36.1999" stroke="#AA4D00" stroke-miterlimit="10"/>
<path d="M42.3543 32.7114H53.2143" stroke="#AA4D00" stroke-miterlimit="10" stroke-linecap="round" stroke-linejoin="round"/>
<path d="M39.86 27.4741C39.86 27.4741 41.96 33.0198 39.86 37.9484L42.2771 35.7884C42.2771 35.7884 43.64 33.5855 42.2771 29.6855L39.86 27.4741Z" fill="#CE6B29"/>
<path d="M44.4286 29.943C44.9171 29.9344 45.3971 29.7972 45.8171 29.5487L49.7771 27.2172C50.48 26.9515 51.2686 27.1915 51.7057 27.8087C52.8114 29.3772 54.3714 34.2544 51.9714 37.4258C51.56 37.9658 50.8314 38.163 50.1886 37.9572L45.6971 35.7544C45.2943 35.5572 44.8486 35.4544 44.3943 35.463L43.8628 35.4715C43.0057 35.4801 42.2257 35.9001 41.6686 36.5515C38.8828 39.8258 32.8143 42.1058 25.76 42.1058C16.0657 42.1058 5.47998 37.4087 8.20569 32.5315C11.1971 27.183 18.0114 22.1001 25.76 22.1001C32 22.1001 38.78 25.4687 41.6686 28.9658C42.2086 29.6172 43.0314 29.9687 43.8886 29.9515L44.4286 29.943Z" stroke="#AA4D00" stroke-miterlimit="10" stroke-linecap="round" stroke-linejoin="round"/>
<path d="M21.0114 18.4998C21.0114 18.4998 21.6371 18.3198 21.7657 18.7655L21.0114 18.4998Z" fill="#C1611A"/>
<path d="M21.0114 18.4998C21.0114 18.4998 21.6371 18.3198 21.7657 18.7655" stroke="#AA4D00" stroke-miterlimit="10" stroke-linecap="round" stroke-linejoin="round"/>
</svg>
