<svg width="30" height="31" viewBox="0 0 30 31" fill="none" xmlns="http://www.w3.org/2000/svg">
<path d="M5 13.7325V6.75C5 6.41848 5.1317 6.10054 5.36612 5.86612C5.60054 5.6317 5.91848 5.5 6.25 5.5H13.2325C13.564 5.50007 13.8819 5.63181 14.1163 5.86625L24.7412 16.4913C24.9756 16.7257 25.1072 17.0435 25.1072 17.375C25.1072 17.7065 24.9756 18.0243 24.7412 18.2587L17.7587 25.2412C17.5243 25.4756 17.2065 25.6072 16.875 25.6072C16.5435 25.6072 16.2257 25.4756 15.9913 25.2412L5.36625 14.6163C5.13181 14.3819 5.00007 14.064 5 13.7325Z" stroke="#1392FF" stroke-width="2" stroke-linejoin="round"/>
<path d="M10.625 13C11.6605 13 12.5 12.1605 12.5 11.125C12.5 10.0895 11.6605 9.25 10.625 9.25C9.58947 9.25 8.75 10.0895 8.75 11.125C8.75 12.1605 9.58947 13 10.625 13Z" fill="#1392FF"/>
</svg>
