<svg width="30" height="30" viewBox="0 0 30 30" fill="none" xmlns="http://www.w3.org/2000/svg">
<path d="M11.7099 28C11.5199 27.98 11.3299 27.98 11.1499 27.98C10.9299 27.98 10.6999 27.99 10.4799 28C10.1999 28 10.0099 27.93 9.86986 27.78C9.65986 27.56 9.67986 27.27 9.68986 27.16C9.86986 24.54 10.0499 21.98 10.3199 19.38L10.4499 18.19C10.6199 16.62 10.7999 15 10.8299 13.41C10.8699 11.77 10.6999 10.11 10.5099 8.41L10.4099 8.44L10.1299 9.14C9.81986 9.91 9.49986 10.68 9.17986 11.45C8.97986 11.92 8.76986 12.4 8.56986 12.87C8.26986 13.57 7.95986 14.27 7.66986 14.98C7.43986 15.54 7.05986 15.66 6.77986 15.66C6.63986 15.66 6.48986 15.63 6.29986 15.57C6.01986 15.48 5.34986 15.27 5.55986 14.36C6.06986 12.2 6.64986 9.75 7.53986 7.4L7.79986 6.73C8.49986 5.04 9.74986 3.97 11.5199 3.54C12.3499 3.34 12.8099 3.12 12.9599 2.51C12.9899 2.39 13.1299 2.01 13.6599 2.01C13.9199 2.01 15.6099 2.01 16.1899 2C16.4999 2 16.8599 2.1 17.0199 2.59C17.1399 2.96 17.4099 3.2 17.8399 3.36L18.0599 3.44C18.2099 3.49 18.3499 3.55 18.5099 3.58C20.3399 4.05 21.6199 5.23 22.3299 7.1C23.2699 9.58 23.9099 12.17 24.4799 14.45C24.5399 14.67 24.5899 15.21 23.9099 15.46C23.5899 15.58 23.3699 15.65 23.1599 15.65C22.5999 15.65 22.4199 15.2 22.2199 14.72L19.6199 8.51C19.5499 8.35 19.5099 8.35 19.4899 8.35C19.4599 8.35 19.4399 8.46 19.4299 8.54C19.2399 10.05 19.1699 11.57 19.1299 12.99C19.1299 14.19 19.2399 15.4 19.3399 16.57C19.3799 16.98 19.4099 17.38 19.4399 17.79C19.6099 19.52 19.7799 21.27 19.9399 23.01L19.9599 23.24C20.0699 24.43 20.1799 25.62 20.2799 26.81C20.3099 27.22 20.3399 27.51 20.1099 27.75C19.8899 27.99 19.5899 27.99 19.1899 27.99C17.6999 27.99 17.4999 27.83 17.1899 26.43C16.5999 23.83 16.0199 21.29 15.4299 18.74L15.3099 18.21C15.2199 17.83 15.0999 17.83 15.0299 17.83C14.8299 17.83 14.7499 18.06 14.7199 18.19C14.2999 20 13.8799 21.8 13.4699 23.61L12.9399 25.9C12.8799 26.18 12.8199 26.47 12.7599 26.76L12.6599 27.26C12.5099 27.87 12.1099 28 11.7999 28C11.7899 28 11.7199 28 11.7099 28Z" fill="#CCCCCC"/>
<path d="M16.2099 2.5C16.3899 2.5 16.4799 2.57 16.5299 2.75C16.7199 3.3 17.1199 3.64 17.6599 3.83C17.8999 3.91 18.1299 4.01 18.3699 4.06C20.1199 4.51 21.2199 5.63 21.8399 7.27C22.7399 9.65 23.3599 12.1 23.9699 14.56C24.0299 14.79 23.9399 14.9 23.7199 14.98C23.4399 15.08 23.2699 15.14 23.1399 15.14C22.9299 15.14 22.8499 14.97 22.6599 14.52C21.7899 12.45 20.9199 10.38 20.0599 8.31C19.9399 8.03 19.7599 7.85 19.4699 7.85C19.4299 7.85 19.3899 7.85 19.3399 7.86C18.9799 7.92 18.9499 8.19 18.9099 8.48C18.7199 9.99 18.6499 11.5 18.6099 12.97C18.6099 14.63 18.7999 16.22 18.9299 17.82C19.0999 19.56 19.2699 21.31 19.4299 23.05C19.5499 24.31 19.6699 25.58 19.7699 26.84C19.8199 27.48 19.8099 27.48 19.1799 27.48C19.1699 27.48 19.1499 27.48 19.1399 27.48C17.9199 27.48 17.9299 27.47 17.6599 26.27C17.0399 23.54 16.4099 20.82 15.7799 18.09C15.6599 17.57 15.3999 17.32 15.0099 17.32C14.6399 17.32 14.3199 17.58 14.2099 18.07C13.6099 20.64 13.0199 23.2 12.4299 25.77C12.3299 26.22 12.2399 26.68 12.1399 27.14C12.0999 27.34 12.0399 27.49 11.7899 27.49C11.7699 27.49 11.7499 27.49 11.7399 27.49C11.5399 27.47 11.3399 27.47 11.1399 27.47C10.9099 27.47 10.6799 27.48 10.4499 27.49C10.4399 27.49 10.4299 27.49 10.4199 27.49C10.2099 27.49 10.1499 27.41 10.1699 27.18C10.3499 24.59 10.5299 22.01 10.7999 19.42C11.0099 17.42 11.2699 15.42 11.3099 13.4C11.3499 11.7 11.1799 10.02 10.9899 8.33C10.9599 8.08 10.8299 7.88 10.5499 7.85C10.5199 7.85 10.4799 7.84 10.4499 7.84C10.1999 7.84 10.0199 7.97 9.91989 8.22C9.50989 9.22 9.10989 10.22 8.68989 11.22C8.18989 12.4 7.65989 13.57 7.17989 14.76C7.06989 15.03 6.92989 15.12 6.74989 15.12C6.65989 15.12 6.54989 15.09 6.41989 15.05C6.07989 14.94 5.91989 14.85 6.00989 14.43C6.55989 12.1 7.10989 9.78 7.96989 7.54C8.05989 7.33 8.15989 7.12 8.23989 6.9C8.86989 5.37 9.98989 4.4 11.6099 4.01C12.4299 3.81 13.1799 3.55 13.4199 2.62C13.4499 2.51 13.5399 2.49 13.6299 2.49C13.6599 2.49 13.6899 2.49 13.7099 2.49C14.5299 2.49 15.3399 2.49 16.1599 2.48C16.1999 2.5 16.2099 2.5 16.2099 2.5ZM16.2099 1.5C16.1999 1.5 16.1599 1.5 16.1499 1.5C15.3599 1.51 14.5499 1.51 13.7399 1.51H13.6599C12.9499 1.51 12.5799 1.98 12.4799 2.39C12.3999 2.69 12.2399 2.85 11.3999 3.05C9.45989 3.52 8.09989 4.69 7.33989 6.53C7.27989 6.66 7.22989 6.78 7.17989 6.9L7.05989 7.17C6.13989 9.59 5.55989 12.05 5.04989 14.22C4.90989 14.84 4.97989 15.65 6.11989 16.02C6.27989 16.07 6.49989 16.13 6.74989 16.13C7.09989 16.13 7.74989 16 8.09989 15.15C8.38989 14.43 8.69989 13.72 9.00989 13.02C9.20989 12.55 9.41989 12.09 9.60989 11.62C9.79989 11.17 9.98989 10.72 10.1699 10.27C10.2599 11.32 10.3199 12.35 10.2999 13.38C10.2699 14.96 10.0899 16.58 9.91989 18.14C9.87989 18.53 9.82989 18.92 9.78989 19.31C9.51989 21.92 9.33989 24.49 9.15989 27.11C9.12989 27.52 9.23989 27.86 9.47989 28.11C9.63989 28.28 9.92989 28.49 10.4099 28.49C10.4199 28.49 10.4599 28.49 10.4699 28.49C10.6899 28.48 10.9099 28.47 11.1299 28.47C11.2999 28.47 11.4699 28.47 11.6499 28.49C11.6999 28.49 11.7499 28.5 11.7899 28.5C12.0499 28.5 12.8999 28.42 13.1199 27.35L13.2199 26.87C13.2799 26.58 13.3399 26.29 13.3999 26.01L13.8899 23.89C14.2599 22.3 14.6199 20.71 14.9899 19.12C15.5599 21.58 16.1299 24.03 16.6799 26.49L16.6899 26.54C17.0599 28.16 17.4699 28.48 19.1399 28.48C19.6399 28.48 20.0999 28.48 20.4799 28.08C20.8499 27.68 20.8099 27.19 20.7799 26.76C20.6799 25.49 20.5599 24.22 20.4399 22.96C20.2799 21.22 20.1099 19.47 19.9399 17.73C19.9099 17.34 19.8699 16.93 19.8399 16.52C19.7399 15.36 19.6299 14.17 19.6299 12.97C19.6599 12.07 19.6899 11.13 19.7699 10.17C20.4399 11.76 21.0999 13.34 21.7599 14.91C21.9599 15.4 22.2699 16.14 23.1599 16.14C23.4699 16.14 23.7599 16.04 24.0899 15.91C24.7999 15.65 25.1499 15.02 24.9699 14.31C24.3999 12.01 23.7599 9.41 22.8099 6.91C22.0399 4.88 20.6399 3.59 18.6499 3.09C18.4999 3.05 18.3699 3 18.2399 2.96L18.0199 2.88C17.6699 2.76 17.5699 2.59 17.5099 2.43C17.2999 1.85 16.8199 1.5 16.2099 1.5Z" fill="#A4A4A4"/>
</svg>
