<svg width="24" height="24" viewBox="0 0 24 24" fill="none" xmlns="http://www.w3.org/2000/svg">
<path d="M15 12C15 12.7956 14.6839 13.5587 14.1213 14.1213C13.5587 14.6839 12.7956 15 12 15C11.2044 15 10.4413 14.6839 9.87868 14.1213C9.31607 13.5587 9 12.7956 9 12C9 11.2044 9.31607 10.4413 9.87868 9.87868C10.4413 9.31607 11.2044 9 12 9C12.7956 9 13.5587 9.31607 14.1213 9.87868C14.6839 10.4413 15 11.2044 15 12Z" stroke="#121212" stroke-width="2" stroke-linejoin="round"/>
<path d="M10.47 4.31995C11.072 3.01395 12.928 3.01395 13.53 4.31995L13.748 4.79295C13.9253 5.17776 14.2413 5.48155 14.6327 5.64374C15.0242 5.80592 15.4624 5.81456 15.86 5.66795L16.35 5.48795C17.698 4.98995 19.01 6.30195 18.512 7.65095L18.332 8.13995C18.1854 8.53751 18.194 8.97572 18.3562 9.36718C18.5184 9.75863 18.8222 10.0746 19.207 10.252L19.681 10.47C20.986 11.072 20.986 12.928 19.681 13.53L19.207 13.748C18.8222 13.9253 18.5184 14.2413 18.3562 14.6327C18.194 15.0242 18.1854 15.4624 18.332 15.86L18.512 16.35C19.01 17.698 17.698 19.01 16.349 18.512L15.86 18.332C15.4624 18.1853 15.0242 18.194 14.6327 18.3562C14.2413 18.5184 13.9253 18.8221 13.748 19.207L13.53 19.68C12.928 20.986 11.072 20.986 10.47 19.68L10.252 19.207C10.0746 18.8221 9.75864 18.5184 9.36718 18.3562C8.97572 18.194 8.53751 18.1853 8.13996 18.332L7.64996 18.512C6.30196 19.01 4.98996 17.698 5.48696 16.349L5.66796 15.86C5.81457 15.4624 5.80592 15.0242 5.64374 14.6327C5.48156 14.2413 5.17777 13.9253 4.79296 13.748L4.31896 13.53C3.01396 12.928 3.01396 11.072 4.31896 10.47L4.79296 10.252C5.17777 10.0746 5.48156 9.75863 5.64374 9.36718C5.80592 8.97572 5.81457 8.53751 5.66796 8.13995L5.48796 7.64995C4.98996 6.30195 6.30196 4.98995 7.65096 5.48695L8.13996 5.66795C8.53751 5.81456 8.97572 5.80592 9.36718 5.64374C9.75864 5.48155 10.0746 5.17776 10.252 4.79295L10.47 4.31895V4.31995Z" stroke="#121212" stroke-width="2" stroke-linejoin="round"/>
</svg>
