<svg width="30" height="31" viewBox="0 0 30 31" fill="none" xmlns="http://www.w3.org/2000/svg">
<path d="M11.0801 15.7283L14.3501 8.02832L26.8701 16.5483C27.5801 17.0283 27.8401 17.9783 27.5001 18.7883L27.4501 18.8983C27.1101 19.7083 26.2501 20.1283 25.4501 19.8983L11.0801 15.7283Z" fill="#CCCCCC" stroke="#A4A4A4" stroke-miterlimit="10" stroke-linecap="round" stroke-linejoin="round"/>
<path d="M13.871 12.3943C14.7628 10.2649 14.8787 8.28448 14.1298 7.97085C13.381 7.65723 12.051 9.12922 11.1592 11.2586C10.2674 13.388 10.1515 15.3685 10.9004 15.6821C11.6492 15.9957 12.9792 14.5238 13.871 12.3943Z" fill="#CCCCCC" stroke="#A4A4A4" stroke-miterlimit="10.0004" stroke-linecap="round" stroke-linejoin="round"/>
<path d="M13.871 12.3943C14.7628 10.2649 14.8787 8.28448 14.1298 7.97085C13.381 7.65723 12.051 9.12922 11.1592 11.2586C10.2674 13.388 10.1515 15.3685 10.9004 15.6821C11.6492 15.9957 12.9792 14.5238 13.871 12.3943Z" fill="#A4A4A4"/>
<path d="M14.0001 7.92851C8.59008 6.00851 4.08008 7.85851 4.08008 7.85851C5.33008 12.0485 10.7401 15.5985 10.7401 15.5985" stroke="#A4A4A4" stroke-miterlimit="10" stroke-linecap="round" stroke-linejoin="round"/>
<path d="M16.8901 17.4087C16.8901 17.4087 19.8701 15.9688 19.4101 11.4688L16.8901 17.4087Z" fill="#CCCCCC"/>
<path d="M16.8901 17.4087C16.8901 17.4087 19.8701 15.9688 19.4101 11.4688" stroke="#A4A4A4" stroke-miterlimit="10" stroke-linecap="round" stroke-linejoin="round"/>
<path d="M22.5 18.9686C22.5 18.9686 24.65 18.0086 24.25 14.8486L22.5 18.9686Z" fill="#CCCCCC"/>
<path d="M22.5 18.9686C22.5 18.9686 24.65 18.0086 24.25 14.8486" stroke="#A4A4A4" stroke-miterlimit="10" stroke-linecap="round" stroke-linejoin="round"/>
<path d="M3.6499 2.90869V27.9087" stroke="#A4A4A4" stroke-miterlimit="10" stroke-linecap="round" stroke-linejoin="round"/>
</svg>
