<svg width="61" height="61" viewBox="0 0 61 61" fill="none" xmlns="http://www.w3.org/2000/svg">
<path d="M20.2743 28.7342C20.9429 29.6171 21.2515 30.0713 21.0715 30.8428C20.8915 31.6142 20.4115 31.8885 19.4257 32.3942C18.3543 32.9342 16.8972 33.6799 16.4429 35.6599C15.9886 37.6399 16.9743 38.9513 17.6943 39.9028C18.3629 40.7856 18.6715 41.2399 18.4915 42.0113C18.3115 42.7913 17.8315 43.0656 16.8457 43.5628C15.7743 44.1028 14.3172 44.8485 13.8629 46.8285C13.7 47.5228 14.1372 48.2085 14.8229 48.3713C14.9172 48.3971 15.02 48.4056 15.1143 48.4056C15.6972 48.4056 16.2286 48.0028 16.3657 47.4113C16.5457 46.6313 17.0257 46.3571 18.0115 45.8599C19.0829 45.3199 20.54 44.5742 20.9943 42.5942C21.4486 40.6142 20.4629 39.3028 19.7429 38.3513C19.0743 37.4685 18.7657 37.0142 18.9457 36.2428C19.1257 35.4713 19.6057 35.1971 20.5915 34.6913C21.6629 34.1513 23.12 33.4056 23.5743 31.4256C23.8486 30.2513 23.6086 29.3171 23.2143 28.5542H20.1286C20.1886 28.6142 20.2315 28.6742 20.2743 28.7342Z" fill="#DEC5FF"/>
<path d="M25.9829 28.6228C26.78 29.3856 27.1572 29.7885 27.1057 30.5856C27.0543 31.3828 26.6172 31.7256 25.7257 32.3685C24.7572 33.0713 23.4286 34.0313 23.2914 36.0628C23.1543 38.0942 24.3372 39.2256 25.2029 40.0571C26 40.8199 26.3772 41.2228 26.3257 42.0199C26.2743 42.8171 25.8372 43.1599 24.9457 43.8113C23.9772 44.5142 22.6486 45.4828 22.5114 47.5056C22.46 48.2171 23 48.8256 23.7029 48.8771C23.7286 48.8771 23.7629 48.8771 23.7886 48.8771C24.4572 48.8771 25.0229 48.3542 25.0657 47.6771C25.1172 46.8799 25.5543 46.5371 26.4457 45.8856C27.4143 45.1828 28.7429 44.2142 28.88 42.1913C29.0172 40.1599 27.8343 39.0285 26.9686 38.1971C26.1714 37.4342 25.7943 37.0313 25.8457 36.2342C25.8972 35.4371 26.3343 35.0942 27.2257 34.4513C28.1943 33.7485 29.5229 32.7885 29.66 30.7571C29.72 29.8656 29.5143 29.1542 29.2057 28.5542H25.8972C25.9314 28.5713 25.9572 28.5971 25.9829 28.6228Z" fill="#DEC5FF"/>
<path d="M47.1286 46.8285C46.6743 44.8485 45.2086 44.1028 44.1457 43.5628C43.16 43.0656 42.68 42.7913 42.5 42.0113C42.32 41.2313 42.6371 40.7771 43.2971 39.9028C44.0171 38.9513 45.0114 37.6399 44.5486 35.6599C44.0943 33.6799 42.6286 32.9342 41.5657 32.3942C40.58 31.8971 40.1 31.6228 39.92 30.8428C39.74 30.0713 40.0571 29.6085 40.7171 28.7342C40.76 28.6742 40.8114 28.6142 40.8543 28.5542H37.7686C37.3829 29.3171 37.1429 30.2513 37.4086 31.4256C37.8629 33.4056 39.3286 34.1513 40.3914 34.6913C41.3771 35.1885 41.8571 35.4628 42.0371 36.2428C42.2171 37.0228 41.9 37.4771 41.24 38.3599C40.52 39.3113 39.5257 40.6228 39.9886 42.6028C40.4429 44.5828 41.9086 45.3285 42.9714 45.8685C43.9571 46.3656 44.4371 46.6399 44.6171 47.4199C44.7543 48.0113 45.2857 48.4142 45.8686 48.4142C45.9629 48.4142 46.0571 48.4056 46.16 48.3799C46.8543 48.2171 47.2829 47.5228 47.1286 46.8285Z" fill="#DEC5FF"/>
<path d="M31.3315 30.7573C31.4686 32.7887 32.7972 33.7487 33.7658 34.4516C34.6572 35.103 35.0858 35.4458 35.1458 36.243C35.1972 37.0401 34.82 37.443 34.0229 38.2058C33.1572 39.0373 31.9743 40.1687 32.1115 42.2001C32.2486 44.2316 33.5772 45.1916 34.5458 45.8944C35.4372 46.5458 35.8658 46.8887 35.9258 47.6858C35.9686 48.363 36.5343 48.8858 37.2029 48.8858C37.2286 48.8858 37.2629 48.8858 37.2886 48.8858C38 48.8344 38.5315 48.2258 38.48 47.5144C38.3429 45.483 37.0143 44.523 36.0458 43.8201C35.1543 43.1687 34.7258 42.8258 34.6658 42.0287C34.6143 41.2316 34.9915 40.8287 35.7886 40.0658C36.6543 39.2344 37.8372 38.103 37.7 36.0716C37.5629 34.0401 36.2343 33.0801 35.2658 32.3773C34.3743 31.7258 33.9458 31.383 33.8858 30.5944C33.8343 29.7973 34.2115 29.3944 35.0086 28.6316C35.0343 28.6058 35.06 28.5887 35.0772 28.563H31.7858C31.4686 29.1458 31.2715 29.8573 31.3315 30.7573Z" fill="#DEC5FF"/>
<path d="M20.2743 28.7342C20.9429 29.6171 21.2515 30.0713 21.0715 30.8428C20.8915 31.6142 20.4115 31.8885 19.4257 32.3942C18.3543 32.9342 16.8972 33.6799 16.4429 35.6599C15.9886 37.6399 16.9743 38.9513 17.6943 39.9028C18.3629 40.7856 18.6715 41.2399 18.4915 42.0113C18.3115 42.7913 17.8315 43.0656 16.8457 43.5628C15.7743 44.1028 14.3172 44.8485 13.8629 46.8285C13.7 47.5228 14.1372 48.2085 14.8229 48.3713C14.9172 48.3971 15.02 48.4056 15.1143 48.4056C15.6972 48.4056 16.2286 48.0028 16.3657 47.4113C16.5457 46.6313 17.0257 46.3571 18.0115 45.8599C19.0829 45.3199 20.54 44.5742 20.9943 42.5942C21.4486 40.6142 20.4629 39.3028 19.7429 38.3513C19.0743 37.4685 18.7657 37.0142 18.9457 36.2428C19.1257 35.4713 19.6057 35.1971 20.5915 34.6913C21.6629 34.1513 23.12 33.4056 23.5743 31.4256C23.8486 30.2513 23.6086 29.3171 23.2143 28.5542H20.1286C20.1886 28.6142 20.2315 28.6742 20.2743 28.7342Z" stroke="#967BC9" stroke-miterlimit="10" stroke-linecap="round" stroke-linejoin="round"/>
<path d="M25.9829 28.6228C26.78 29.3856 27.1572 29.7885 27.1057 30.5856C27.0543 31.3828 26.6172 31.7256 25.7257 32.3685C24.7572 33.0713 23.4286 34.0313 23.2914 36.0628C23.1543 38.0942 24.3372 39.2256 25.2029 40.0571C26 40.8199 26.3772 41.2228 26.3257 42.0199C26.2743 42.8171 25.8372 43.1599 24.9457 43.8113C23.9772 44.5142 22.6486 45.4828 22.5114 47.5056C22.46 48.2171 23 48.8256 23.7029 48.8771C23.7286 48.8771 23.7629 48.8771 23.7886 48.8771C24.4572 48.8771 25.0229 48.3542 25.0657 47.6771C25.1172 46.8799 25.5543 46.5371 26.4457 45.8856C27.4143 45.1828 28.7429 44.2142 28.88 42.1913C29.0172 40.1599 27.8343 39.0285 26.9686 38.1971C26.1714 37.4342 25.7943 37.0313 25.8457 36.2342C25.8972 35.4371 26.3343 35.0942 27.2257 34.4513C28.1943 33.7485 29.5229 32.7885 29.66 30.7571C29.72 29.8656 29.5143 29.1542 29.2057 28.5542H25.8972C25.9314 28.5713 25.9572 28.5971 25.9829 28.6228Z" stroke="#967BC9" stroke-miterlimit="10" stroke-linecap="round" stroke-linejoin="round"/>
<path d="M47.1286 46.8285C46.6743 44.8485 45.2086 44.1028 44.1457 43.5628C43.16 43.0656 42.68 42.7913 42.5 42.0113C42.32 41.2313 42.6371 40.7771 43.2971 39.9028C44.0171 38.9513 45.0114 37.6399 44.5486 35.6599C44.0943 33.6799 42.6286 32.9342 41.5657 32.3942C40.58 31.8971 40.1 31.6228 39.92 30.8428C39.74 30.0713 40.0571 29.6085 40.7171 28.7342C40.76 28.6742 40.8114 28.6142 40.8543 28.5542H37.7686C37.3829 29.3171 37.1429 30.2513 37.4086 31.4256C37.8629 33.4056 39.3286 34.1513 40.3914 34.6913C41.3771 35.1885 41.8571 35.4628 42.0371 36.2428C42.2171 37.0228 41.9 37.4771 41.24 38.3599C40.52 39.3113 39.5257 40.6228 39.9886 42.6028C40.4429 44.5828 41.9086 45.3285 42.9714 45.8685C43.9571 46.3656 44.4371 46.6399 44.6171 47.4199C44.7543 48.0113 45.2857 48.4142 45.8686 48.4142C45.9629 48.4142 46.0571 48.4056 46.16 48.3799C46.8543 48.2171 47.2829 47.5228 47.1286 46.8285Z" stroke="#967BC9" stroke-miterlimit="10" stroke-linecap="round" stroke-linejoin="round"/>
<path d="M31.3315 30.7573C31.4686 32.7887 32.7972 33.7487 33.7658 34.4516C34.6572 35.103 35.0858 35.4458 35.1458 36.243C35.1972 37.0401 34.82 37.443 34.0229 38.2058C33.1572 39.0373 31.9743 40.1687 32.1115 42.2001C32.2486 44.2316 33.5772 45.1916 34.5458 45.8944C35.4372 46.5458 35.8658 46.8887 35.9258 47.6858C35.9686 48.363 36.5343 48.8858 37.2029 48.8858C37.2286 48.8858 37.2629 48.8858 37.2886 48.8858C38 48.8344 38.5315 48.2258 38.48 47.5144C38.3429 45.483 37.0143 44.523 36.0458 43.8201C35.1543 43.1687 34.7258 42.8258 34.6658 42.0287C34.6143 41.2316 34.9915 40.8287 35.7886 40.0658C36.6543 39.2344 37.8372 38.103 37.7 36.0716C37.5629 34.0401 36.2343 33.0801 35.2658 32.3773C34.3743 31.7258 33.9458 31.383 33.8858 30.5944C33.8343 29.7973 34.2115 29.3944 35.0086 28.6316C35.0343 28.6058 35.06 28.5887 35.0772 28.563H31.7858C31.4686 29.1458 31.2715 29.8573 31.3315 30.7573Z" stroke="#967BC9" stroke-miterlimit="10" stroke-linecap="round" stroke-linejoin="round"/>
<path d="M48.5 26.5143C48.5 32.3943 40.3829 33.74 30.3714 33.74C20.36 33.74 12.2429 32.3943 12.2429 26.5143C12.2429 20.6343 20.36 13.2886 30.3714 13.2886C40.3829 13.2886 48.5 20.6343 48.5 26.5143Z" fill="#DEC5FF"/>
<path d="M48.5 26.5143C48.5 32.3943 40.3829 33.74 30.3714 33.74C20.36 33.74 12.2429 32.3943 12.2429 26.5143C12.2429 20.6343 20.36 13.2886 30.3714 13.2886C40.3829 13.2886 48.5 20.6343 48.5 26.5143Z" stroke="#967BC9" stroke-miterlimit="10"/>
<path d="M34.0571 27.2859C34.4595 27.2859 34.7857 26.8062 34.7857 26.2145C34.7857 25.6228 34.4595 25.1431 34.0571 25.1431C33.6547 25.1431 33.3286 25.6228 33.3286 26.2145C33.3286 26.8062 33.6547 27.2859 34.0571 27.2859Z" fill="#121212"/>
<path d="M26.6857 27.2859C27.0881 27.2859 27.4143 26.8062 27.4143 26.2145C27.4143 25.6228 27.0881 25.1431 26.6857 25.1431C26.2833 25.1431 25.9572 25.6228 25.9572 26.2145C25.9572 26.8062 26.2833 27.2859 26.6857 27.2859Z" fill="#121212"/>
<path d="M33.6157 18.5063C33.7164 18.0438 33.1682 17.5316 32.3911 17.3624C31.614 17.1931 30.9024 17.4309 30.8017 17.8934C30.7009 18.356 31.2492 18.8682 32.0263 19.0374C32.8034 19.2066 33.515 18.9689 33.6157 18.5063Z" fill="#967BC9"/>
<path d="M28.9775 19.0366C29.7545 18.8673 30.3028 18.3552 30.2021 17.8926C30.1013 17.4301 29.3897 17.1923 28.6127 17.3615C27.8356 17.5308 27.2873 18.0429 27.388 18.5055C27.4888 18.968 28.2004 19.2058 28.9775 19.0366Z" fill="#967BC9"/>
<path d="M32.3893 16.8764C33.1664 16.7072 33.7147 16.195 33.6139 15.7325C33.5132 15.2699 32.8016 15.0321 32.0245 15.2014C31.2474 15.3706 30.6992 15.8828 30.7999 16.3453C30.9006 16.8079 31.6122 17.0456 32.3893 16.8764Z" fill="#967BC9"/>
<path d="M30.2053 16.3432C30.306 15.8807 29.7578 15.3685 28.9807 15.1993C28.2036 15.03 27.492 15.2678 27.3913 15.7304C27.2905 16.1929 27.8388 16.7051 28.6159 16.8743C29.393 17.0435 30.1046 16.8058 30.2053 16.3432Z" fill="#967BC9"/>
</svg>
