<svg width="24" height="24" viewBox="0 0 24 24" fill="none" xmlns="http://www.w3.org/2000/svg">
<path d="M3.6499 14.7301C3.6499 16.7301 5.2699 18.3501 7.2699 18.3501C7.7999 18.3501 8.2899 18.2301 8.7399 18.0301C9.3099 19.2701 10.5599 20.1401 12.0199 20.1401C13.4599 20.1401 14.6999 19.2901 15.2799 18.0601C15.7299 18.2601 16.2199 18.3701 16.7399 18.3701C18.7399 18.3701 20.3599 16.7501 20.3599 14.7501C20.3599 9.96012 16.9899 7.67012 14.5399 6.63012L14.9899 6.17012C15.9399 5.19012 14.9299 3.87012 13.2299 3.87012H10.8299C9.1299 3.87012 8.1199 5.19012 9.0699 6.17012L9.5699 6.68012C3.6599 9.27012 3.6499 14.7301 3.6499 14.7301Z" stroke="black" stroke-width="2" stroke-miterlimit="10" stroke-linecap="round" stroke-linejoin="round"/>
<path d="M16.2099 13.5302L14.7299 10.9502" stroke="black" stroke-width="2" stroke-miterlimit="10" stroke-linecap="round"/>
<path d="M9.22988 10.98L7.62988 13.5" stroke="black" stroke-width="2" stroke-miterlimit="10" stroke-linecap="round"/>
<path d="M11.9199 10.4399V15.0299" stroke="black" stroke-width="2" stroke-miterlimit="10" stroke-linecap="round"/>
</svg>
