<svg width="30" height="31" viewBox="0 0 30 31" fill="none" xmlns="http://www.w3.org/2000/svg">
<path d="M12.5 5.21484V4.58984M4.375 13.3398H3.75M18.245 7.59484L18.6875 7.15234M6.755 7.59484L6.3125 7.15234M11.25 17.1348C12.1849 17.27 13.051 17.7041 13.7188 18.3723M15.8063 9.58984C15.0311 8.90621 14.0632 8.47957 13.0357 8.36863C12.0081 8.25768 10.9714 8.46789 10.0682 8.97033C9.16507 9.47276 8.43979 10.2427 7.99218 11.1743C7.54457 12.1059 7.39665 13.1533 7.56875 14.1723M6.25 21.4648C6.25 22.6252 6.71094 23.738 7.53141 24.5584C8.35188 25.3789 9.46468 25.8398 10.625 25.8398H22.8125C23.6438 25.8396 24.4468 25.5381 25.0729 24.9912C25.699 24.4443 26.1057 23.6891 26.2176 22.8653C26.3296 22.0416 26.1393 21.2052 25.6819 20.5111C25.2245 19.8169 24.5311 19.312 23.73 19.0898C23.6183 17.688 23.0371 16.3648 22.0804 15.3341C21.1236 14.3035 19.8473 13.6256 18.4576 13.4101C17.0679 13.1946 15.6462 13.454 14.4222 14.1465C13.1982 14.8389 12.2435 15.9239 11.7125 17.2261C11.0663 17.0613 10.3909 17.0462 9.73798 17.182C9.08504 17.3178 8.47173 17.601 7.94483 18.0098C7.41793 18.4187 6.99136 18.9425 6.69764 19.5412C6.40392 20.14 6.25082 20.7979 6.25 21.4648Z" stroke="#A4A4A4" stroke-linecap="round" stroke-linejoin="round"/>
</svg>
