<svg width="24" height="24" viewBox="0 0 24 24" fill="none" xmlns="http://www.w3.org/2000/svg">
<path d="M5 17H7M7 17H17M7 17V11C7 9.67392 7.52678 8.40215 8.46447 7.46447C9.40215 6.52678 10.6739 6 12 6C13.3261 6 14.5979 6.52678 15.5355 7.46447C16.4732 8.40215 17 9.67392 17 11V17M17 17H19M11.5 5.5V4C11.5 3.86739 11.5527 3.74021 11.6464 3.64645C11.7402 3.55268 11.8674 3.5 12 3.5C12.1326 3.5 12.2598 3.55268 12.3536 3.64645C12.4473 3.74021 12.5 3.86739 12.5 4V5.5M13 20C13 20.2652 12.8946 20.5196 12.7071 20.7071C12.5196 20.8946 12.2652 21 12 21C11.7348 21 11.4804 20.8946 11.2929 20.7071C11.1054 20.5196 11 20.2652 11 20H13Z" stroke="#121212" stroke-width="2" stroke-linecap="round" stroke-linejoin="round"/>
</svg>
