<svg width="30" height="30" viewBox="0 0 30 30" fill="none" xmlns="http://www.w3.org/2000/svg">
<path d="M11.71 28C11.52 27.98 11.33 27.98 11.15 27.98C10.93 27.98 10.7 27.99 10.48 28C10.19 28 10.01 27.93 9.87004 27.78C9.66004 27.56 9.68004 27.27 9.69004 27.16C9.87004 24.54 10.05 21.98 10.32 19.38L10.45 18.19C10.62 16.62 10.8 15 10.83 13.4C10.87 11.76 10.7 10.1 10.51 8.4L10.41 8.43L10.13 9.12C9.82004 9.89 9.50004 10.66 9.18004 11.43C8.98004 11.9 8.78004 12.36 8.58004 12.83C8.27004 13.54 7.96004 14.24 7.67004 14.96C7.44004 15.52 7.05004 15.64 6.78004 15.64C6.64004 15.64 6.49004 15.61 6.30004 15.55C6.00004 15.46 5.33004 15.24 5.54004 14.34C6.05004 12.18 6.62004 9.73 7.52004 7.38L7.80004 6.73C8.50004 5.04 9.75004 3.97 11.52 3.54C12.36 3.34 12.81 3.12 12.96 2.51C12.99 2.39 13.13 2.01 13.66 2.01C13.92 2.01 15.61 2.01 16.19 2C16.45 2 16.85 2.08 17.02 2.6C17.14 2.97 17.4 3.22 17.83 3.36L18.04 3.44C18.19 3.49 18.34 3.55 18.49 3.59C20.32 4.06 21.6 5.24 22.31 7.11C23.25 9.58 23.89 12.17 24.46 14.46C24.52 14.68 24.57 15.22 23.89 15.47C23.57 15.59 23.35 15.66 23.14 15.66C22.58 15.66 22.4 15.21 22.2 14.73L19.6 8.52C19.53 8.36 19.49 8.36 19.47 8.36C19.44 8.36 19.42 8.47 19.41 8.54C19.22 10.05 19.15 11.57 19.11 12.99C19.11 14.23 19.22 15.47 19.34 16.68L19.44 17.79C19.61 19.52 19.78 21.27 19.94 23.01C20.06 24.28 20.18 25.54 20.28 26.81C20.31 27.22 20.34 27.51 20.11 27.75C19.89 27.99 19.59 27.99 19.19 27.99C17.7 27.99 17.5 27.83 17.19 26.43C16.57 23.68 15.94 20.97 15.32 18.27C15.22 17.83 15.1 17.83 15.02 17.83C14.81 17.83 14.73 18.08 14.71 18.19C14.29 20 13.87 21.8 13.46 23.6L12.93 25.89C12.86 26.19 12.8 26.5 12.74 26.8L12.65 27.25C12.51 27.87 12.11 28 11.8 28C11.79 28 11.72 28 11.71 28Z" fill="#1392FF"/>
<path d="M16.22 2.5C16.4 2.5 16.49 2.57 16.54 2.75C16.72 3.31 17.13 3.65 17.67 3.83C17.91 3.91 18.14 4.01 18.38 4.06C20.13 4.51 21.23 5.63 21.85 7.27C22.76 9.65 23.37 12.1 23.98 14.56C24.04 14.79 23.95 14.9 23.73 14.98C23.45 15.08 23.28 15.14 23.15 15.14C22.94 15.14 22.86 14.97 22.67 14.52C21.8 12.45 20.93 10.38 20.07 8.31C19.95 8.03 19.77 7.85 19.48 7.85C19.44 7.85 19.4 7.85 19.35 7.86C18.99 7.92 18.96 8.19 18.92 8.48C18.73 9.99 18.66 11.5 18.62 12.97C18.62 14.63 18.81 16.22 18.95 17.82C19.12 19.56 19.29 21.31 19.45 23.05C19.57 24.31 19.69 25.58 19.79 26.84C19.84 27.48 19.83 27.48 19.2 27.48C19.19 27.48 19.17 27.48 19.16 27.48C17.94 27.48 17.95 27.47 17.68 26.27C17.06 23.54 16.43 20.82 15.8 18.09C15.68 17.57 15.42 17.32 15.03 17.32C14.66 17.32 14.34 17.58 14.23 18.07C13.63 20.64 13.04 23.2 12.45 25.77C12.35 26.22 12.26 26.68 12.16 27.14C12.12 27.34 12.06 27.49 11.81 27.49C11.79 27.49 11.77 27.49 11.76 27.49C11.56 27.47 11.36 27.47 11.16 27.47C10.93 27.47 10.7 27.48 10.47 27.49C10.46 27.49 10.45 27.49 10.44 27.49C10.23 27.49 10.17 27.41 10.19 27.18C10.37 24.59 10.55 22.01 10.82 19.42C11.03 17.42 11.29 15.42 11.33 13.4C11.37 11.7 11.2 10.02 11.01 8.33C10.98 8.08 10.85 7.88 10.57 7.85C10.54 7.85 10.5 7.84 10.47 7.84C10.22 7.84 10.04 7.97 9.94001 8.22C9.53001 9.22 9.13001 10.22 8.71001 11.22C8.21001 12.4 7.68001 13.57 7.20001 14.76C7.09001 15.03 6.95001 15.12 6.77001 15.12C6.68001 15.12 6.57001 15.09 6.44001 15.05C6.10001 14.94 5.94001 14.85 6.03001 14.43C6.58001 12.1 7.14001 9.78 7.99001 7.54C8.08001 7.33 8.18001 7.12 8.26001 6.9C8.89001 5.37 10.01 4.4 11.64 4.01C12.46 3.81 13.21 3.55 13.45 2.62C13.48 2.51 13.57 2.49 13.66 2.49C13.69 2.49 13.72 2.49 13.74 2.49C14.56 2.49 15.37 2.49 16.19 2.48C16.2 2.5 16.21 2.5 16.22 2.5ZM16.22 1.5C16.21 1.5 16.17 1.5 16.16 1.5C15.37 1.51 14.56 1.51 13.75 1.51H13.67C12.96 1.51 12.59 1.98 12.49 2.39C12.41 2.69 12.25 2.85 11.41 3.05C9.46001 3.52 8.10001 4.69 7.34001 6.53C7.28001 6.66 7.23001 6.78 7.18001 6.9L7.06001 7.17C6.14001 9.59 5.56001 12.05 5.05001 14.22C4.91001 14.84 4.98001 15.65 6.13001 16.02C6.29001 16.07 6.51001 16.13 6.76001 16.13C7.11001 16.13 7.76001 16 8.11001 15.15C8.40001 14.43 8.71002 13.72 9.02002 13.02C9.22002 12.55 9.43002 12.08 9.63001 11.61C9.82001 11.16 10.01 10.71 10.19 10.26C10.28 11.31 10.34 12.35 10.32 13.37C10.29 14.95 10.11 16.57 9.94001 18.13C9.90001 18.52 9.85002 18.91 9.81002 19.31C9.54002 21.91 9.36001 24.48 9.18002 27.11C9.15001 27.52 9.26002 27.86 9.50001 28.11C9.66001 28.28 9.95002 28.49 10.43 28.49C10.44 28.49 10.48 28.49 10.49 28.49C10.71 28.48 10.93 28.47 11.15 28.47C11.32 28.47 11.49 28.47 11.67 28.49C11.72 28.49 11.77 28.5 11.81 28.5C12.07 28.5 12.92 28.42 13.14 27.35L13.24 26.87C13.3 26.58 13.36 26.29 13.42 26.01L13.91 23.87C14.27 22.29 14.64 20.71 15.01 19.13C15.58 21.59 16.15 24.05 16.7 26.5L16.71 26.55C17.08 28.17 17.49 28.49 19.16 28.49C19.66 28.49 20.12 28.49 20.5 28.09C20.87 27.69 20.83 27.2 20.8 26.77C20.7 25.5 20.58 24.23 20.46 22.96C20.3 21.22 20.13 19.47 19.95 17.73C19.92 17.37 19.89 17 19.85 16.62C19.74 15.43 19.63 14.2 19.63 12.97C19.66 12.07 19.69 11.13 19.77 10.17C20.44 11.76 21.1 13.34 21.76 14.91C21.96 15.4 22.27 16.14 23.16 16.14C23.47 16.14 23.76 16.04 24.09 15.91C24.8 15.65 25.15 15.02 24.97 14.31C24.4 12.01 23.76 9.41 22.81 6.91C22.04 4.88 20.64 3.59 18.65 3.09C18.5 3.05 18.37 3 18.24 2.96L18.02 2.88C17.67 2.76 17.57 2.59 17.52 2.44C17.3 1.85 16.82 1.5 16.22 1.5Z" fill="#0074DA"/>
</svg>
