<svg width="35" height="34" viewBox="0 0 35 34" fill="none" xmlns="http://www.w3.org/2000/svg">
<path d="M21.5 9.33333H21.5167M17.3333 31H6.5C5.17392 31 3.90215 30.4732 2.96447 29.5355C2.02678 28.5979 1.5 27.3261 1.5 26V6C1.5 4.67392 2.02678 3.40215 2.96447 2.46447C3.90215 1.52678 5.17392 1 6.5 1H26.5C27.8261 1 29.0979 1.52678 30.0355 2.46447C30.9732 3.40215 31.5 4.67392 31.5 6V16.8333" stroke="#121212" stroke-width="2" stroke-linecap="round" stroke-linejoin="round"/>
<path d="M1.5 22.6666L9.83333 14.3333C11.38 12.845 13.2867 12.845 14.8333 14.3333L20.6667 20.1666" stroke="#121212" stroke-width="2" stroke-linecap="round" stroke-linejoin="round"/>
<path d="M19.833 19.3333L21.4997 17.6667C22.6313 16.5783 23.9547 16.285 25.1897 16.79M28.1663 32.6667V22.6667M28.1663 22.6667L33.1663 27.6667M28.1663 22.6667L23.1663 27.6667" stroke="#121212" stroke-width="2" stroke-linecap="round" stroke-linejoin="round"/>
</svg>
