<svg width="58" height="58" viewBox="0 0 58 58" fill="none" xmlns="http://www.w3.org/2000/svg">
<path d="M29 10.2602C28.44 10.2602 27.99 9.80023 27.99 9.25023C27.99 8.69023 28.45 8.24023 29 8.24023C29.56 8.24023 30.01 8.70023 30.01 9.25023C30.01 9.80023 29.56 10.2602 29 10.2602Z" stroke="#666666" stroke-miterlimit="10" stroke-linecap="round"/>
<path d="M38.05 19.4509C38.05 15.7309 35.04 12.7109 31.34 12.7109H26.66C22.95 12.7109 19.95 15.7309 19.95 19.4509C19.95 23.1709 22.96 25.3709 26.66 25.3709H31.01L30.25 27.7609C30.26 27.7609 38.05 27.8109 38.05 19.4509Z" stroke="#666666" stroke-miterlimit="10" stroke-linecap="round" stroke-linejoin="round"/>
<path d="M26.2 18.5895C26.6197 18.5895 26.96 18.1821 26.96 17.6795C26.96 17.177 26.6197 16.7695 26.2 16.7695C25.7803 16.7695 25.44 17.177 25.44 17.6795C25.44 18.1821 25.7803 18.5895 26.2 18.5895Z" fill="#666666"/>
<path d="M31.8 18.5895C32.2197 18.5895 32.56 18.1821 32.56 17.6795C32.56 17.177 32.2197 16.7695 31.8 16.7695C31.3802 16.7695 31.04 17.177 31.04 17.6795C31.04 18.1821 31.3802 18.5895 31.8 18.5895Z" fill="#666666"/>
<path d="M25.31 12.6298V11.7998C25.31 10.9498 26.01 10.2598 26.86 10.2598H31.13C31.98 10.2598 32.68 10.9498 32.68 11.7998V12.6298" stroke="#666666" stroke-miterlimit="10" stroke-linecap="round"/>
<path d="M32.62 21.1692L31.43 19.9892C29.94 18.5192 28.05 18.5192 26.56 19.9892L25.37 21.1692C25.37 21.1692 26.57 22.6192 28.99 20.7792C29 20.7792 30.75 22.6592 32.62 21.1692Z" stroke="#666666" stroke-miterlimit="10" stroke-linecap="round" stroke-linejoin="round"/>
<path d="M20.7003 36.746C20.9243 36.746 21.083 36.7413 21.1763 36.732C21.3723 36.732 21.559 36.732 21.7363 36.732C21.9136 36.7227 22.0583 36.7227 22.1703 36.732C22.3383 36.7413 22.4503 36.7833 22.5063 36.858C22.5716 36.9327 22.6043 37.026 22.6043 37.138C22.6043 37.3527 22.4923 37.5207 22.2683 37.642C22.1563 37.698 22.0396 37.726 21.9183 37.726C21.8343 37.7353 21.5123 37.74 20.9523 37.74L19.8463 37.712L19.6923 37.544C19.5896 37.4227 19.5383 37.3107 19.5383 37.208C19.5383 37.1147 19.5756 37.0167 19.6503 36.914L19.7623 36.76L20.7003 36.746ZM18.6283 38.958C18.6283 38.9487 18.6236 38.9393 18.6143 38.93C18.6143 38.9207 18.619 38.9067 18.6283 38.888C18.6283 38.776 18.6843 38.6733 18.7963 38.58C18.927 38.468 19.0856 38.412 19.2723 38.412L21.2603 38.37L23.1083 38.328H23.1643C23.2576 38.328 23.365 38.3513 23.4863 38.398C23.6263 38.454 23.715 38.5147 23.7523 38.58C23.7896 38.6453 23.8083 38.734 23.8083 38.846C23.799 38.958 23.771 39.0513 23.7243 39.126C23.659 39.2193 23.547 39.28 23.3883 39.308C23.2203 39.3547 22.9076 39.3827 22.4503 39.392L21.5963 39.434L21.5823 39.658V39.742C21.5823 39.8073 21.5963 39.8633 21.6243 39.91C21.6523 39.9473 21.7783 40.078 22.0023 40.302C22.2543 40.554 22.581 40.8573 22.9823 41.212C23.0196 41.2493 23.057 41.282 23.0943 41.31C23.1316 41.338 23.1643 41.366 23.1923 41.394L23.5423 41.73C23.6076 41.8047 23.6403 41.9073 23.6403 42.038C23.6403 42.122 23.5936 42.2107 23.5003 42.304C23.4163 42.388 23.3136 42.4533 23.1923 42.5C23.043 42.5373 22.7676 42.374 22.3663 42.01C21.657 41.3473 21.2323 41.016 21.0923 41.016C21.0083 41.016 20.719 41.338 20.2243 41.982C19.9163 42.3833 19.7063 42.6213 19.5943 42.696C19.501 42.7333 19.4356 42.752 19.3983 42.752C19.2863 42.752 19.1603 42.6913 19.0203 42.57C18.9176 42.486 18.8663 42.3787 18.8663 42.248C18.8663 42.1733 18.885 42.0987 18.9223 42.024C19.0063 41.8 19.2163 41.506 19.5523 41.142C20.0003 40.6567 20.2663 40.3533 20.3503 40.232C20.453 40.092 20.495 39.924 20.4763 39.728L20.4623 39.434L19.7623 39.406C19.3143 39.3967 19.039 39.364 18.9363 39.308C18.7496 39.2053 18.647 39.0887 18.6283 38.958ZM20.1683 46.336C20.1683 46.2427 20.2196 46.1447 20.3223 46.042C20.4343 45.9207 20.6536 45.72 20.9803 45.44C21.2323 45.2253 21.3676 45.1087 21.3863 45.09C21.489 44.9873 21.6476 44.8473 21.8623 44.67C22.273 44.306 22.553 44.04 22.7023 43.872C22.8703 43.704 22.987 43.55 23.0523 43.41C23.239 43.0553 23.4256 42.836 23.6123 42.752C23.7243 42.696 23.813 42.668 23.8783 42.668C23.953 42.6867 24.023 42.724 24.0883 42.78C24.191 42.864 24.247 43.0087 24.2563 43.214C24.2656 43.3353 24.289 43.4287 24.3263 43.494C24.3543 43.5687 24.415 43.6387 24.5083 43.704C24.639 43.8253 24.7743 43.9233 24.9143 43.998C25.0823 44.0727 25.5583 44.3853 26.3423 44.936C26.501 45.0387 26.5896 45.0993 26.6083 45.118L27.0703 45.412C27.4436 45.636 27.6303 45.8693 27.6303 46.112C27.6303 46.252 27.5836 46.3687 27.4903 46.462C27.397 46.5553 27.285 46.602 27.1543 46.602C27.1076 46.602 27.0703 46.5973 27.0423 46.588C26.893 46.532 26.5896 46.3407 26.1323 46.014C25.6843 45.706 25.3203 45.4727 25.0403 45.314C24.7043 45.118 24.401 44.9173 24.1303 44.712C23.8876 44.5253 23.7523 44.432 23.7243 44.432C23.6963 44.432 23.5143 44.586 23.1783 44.894L22.8143 45.216C22.5996 45.412 22.4783 45.5193 22.4503 45.538C22.245 45.7153 22.021 45.916 21.7783 46.14C21.5543 46.364 21.3256 46.546 21.0923 46.686C20.8963 46.798 20.747 46.854 20.6443 46.854C20.551 46.854 20.4436 46.784 20.3223 46.644C20.2196 46.5227 20.1683 46.42 20.1683 46.336ZM24.5783 40.456C24.6063 39.3453 24.639 38.3933 24.6763 37.6C24.6856 37.3013 24.737 37.1147 24.8303 37.04C24.933 36.9373 25.0496 36.886 25.1803 36.886C25.311 36.9047 25.4183 36.9607 25.5023 37.054C25.549 37.1007 25.5816 37.18 25.6003 37.292C25.6096 37.3573 25.6143 37.628 25.6143 38.104C25.6143 38.7293 25.6283 39.0793 25.6563 39.154C25.6843 39.21 25.7263 39.2473 25.7823 39.266C25.8103 39.2753 25.9923 39.2707 26.3283 39.252C26.7203 39.2333 26.9303 39.2193 26.9583 39.21C26.977 39.1913 27.0003 38.846 27.0283 38.174C27.0283 37.95 27.033 37.7773 27.0423 37.656C27.0516 37.5347 27.0563 37.3947 27.0563 37.236V37.096C27.075 37.0493 27.117 36.984 27.1823 36.9C27.2476 36.8067 27.3643 36.76 27.5323 36.76C27.7096 36.76 27.831 36.8067 27.8963 36.9C27.943 36.9653 27.9756 37.1193 27.9943 37.362L27.9663 39.84L27.9523 41.044C27.9523 41.7067 27.9476 42.1033 27.9383 42.234C27.929 42.5327 27.8963 42.7333 27.8403 42.836C27.7563 43.004 27.635 43.088 27.4763 43.088C27.4203 43.088 27.3503 43.074 27.2663 43.046C27.1356 42.99 27.0563 42.892 27.0283 42.752C26.991 42.6027 26.9676 42.1967 26.9583 41.534L26.9303 40.26L26.4683 40.246H26.3983C26.2303 40.2273 26.1463 40.218 26.1463 40.218C26.109 40.218 26.0436 40.2273 25.9503 40.246L25.7963 40.274L25.7123 40.358C25.675 40.4047 25.6563 40.4467 25.6563 40.484C25.647 40.512 25.6423 40.5867 25.6423 40.708C25.633 40.7827 25.6283 40.876 25.6283 40.988C25.6283 41.128 25.633 41.2587 25.6423 41.38V41.492L25.6843 42.542L25.5443 42.696C25.4883 42.7707 25.4416 42.8127 25.4043 42.822C25.3856 42.8313 25.3343 42.836 25.2503 42.836C25.0356 42.836 24.891 42.8127 24.8163 42.766C24.7416 42.7287 24.667 42.64 24.5923 42.5C24.5643 42.444 24.5503 42.192 24.5503 41.744L24.5783 40.456ZM31.3145 36.844C31.3705 36.7787 31.4778 36.746 31.6365 36.746C31.8045 36.7647 31.9118 36.802 31.9585 36.858C32.1265 37.0353 32.2105 37.3247 32.2105 37.726C32.2105 37.9407 32.2292 38.062 32.2665 38.09C32.3038 38.1087 32.5512 38.118 33.0085 38.118L34.3385 38.104C35.6732 38.0853 36.3592 38.0667 36.3965 38.048C36.4338 38.0107 36.4525 37.8613 36.4525 37.6C36.4525 37.2827 36.4945 37.0633 36.5785 36.942C36.6625 36.8207 36.8118 36.76 37.0265 36.76C37.1665 36.76 37.2785 36.816 37.3625 36.928L37.4885 37.096L37.5025 38.748V38.762V39.406C37.5025 39.8913 37.4932 40.2087 37.4745 40.358C37.4465 40.526 37.3578 40.6427 37.2085 40.708C37.0965 40.764 36.6905 40.792 35.9905 40.792C35.3092 40.792 34.9358 40.8153 34.8705 40.862C34.8238 40.89 34.8005 40.9973 34.8005 41.184C34.8005 41.52 34.8285 41.6927 34.8845 41.702C34.9778 41.7207 35.6638 41.73 36.9425 41.73C37.9692 41.73 38.5478 41.7347 38.6785 41.744C38.8558 41.7533 38.9865 41.786 39.0705 41.842C39.1918 41.9353 39.2525 42.0847 39.2525 42.29C39.2525 42.486 39.1872 42.6213 39.0565 42.696C38.9632 42.7333 38.2678 42.7613 36.9705 42.78C35.6732 42.7893 34.9965 42.822 34.9405 42.878C34.9032 42.906 34.8845 43.0133 34.8845 43.2C34.8845 43.4147 34.8985 43.606 34.9265 43.774C34.9358 43.83 34.9732 43.8907 35.0385 43.956C35.1318 44.0307 35.1972 44.068 35.2345 44.068C35.3092 44.068 35.4352 44.124 35.6125 44.236C35.8552 44.3667 36.0138 44.4507 36.0885 44.488L36.3125 44.628L36.6905 44.852L36.9985 45.02C37.1758 45.1133 37.2832 45.1693 37.3205 45.188C37.6565 45.3747 37.8898 45.5007 38.0205 45.566C38.2352 45.678 38.3892 45.7807 38.4825 45.874C38.5665 45.9673 38.6132 46.0793 38.6225 46.21C38.6412 46.3127 38.6412 46.3873 38.6225 46.434C38.6132 46.462 38.5758 46.5087 38.5105 46.574C38.4172 46.6673 38.3098 46.714 38.1885 46.714C38.1418 46.714 38.1045 46.7093 38.0765 46.7C37.9178 46.6533 37.5865 46.4853 37.0825 46.196C36.5225 45.888 36.0045 45.6173 35.5285 45.384C34.8005 45.0293 34.4225 44.852 34.3945 44.852C34.3478 44.852 34.2172 44.936 34.0025 45.104C33.7132 45.328 33.2465 45.65 32.6025 46.07C31.8932 46.5273 31.5012 46.77 31.4265 46.798C31.3332 46.826 31.2632 46.84 31.2165 46.84C31.1792 46.84 31.1138 46.8167 31.0205 46.77C30.8058 46.658 30.6985 46.4993 30.6985 46.294C30.6985 46.1727 30.8012 46.0373 31.0065 45.888C31.2025 45.7293 31.6785 45.3933 32.4345 44.88C33.0785 44.4507 33.4658 44.124 33.5965 43.9C33.6618 43.8067 33.7178 43.6153 33.7645 43.326C33.7832 43.2327 33.7925 43.1253 33.7925 43.004C33.7925 42.9107 33.7832 42.8593 33.7645 42.85C33.6805 42.7753 32.9105 42.7333 31.4545 42.724C30.7638 42.724 30.3718 42.7193 30.2785 42.71C30.1292 42.6913 30.0265 42.6587 29.9705 42.612C29.8212 42.5 29.7465 42.3787 29.7465 42.248C29.7465 42.1827 29.7652 42.1173 29.8025 42.052C29.8492 41.94 29.9192 41.8653 30.0125 41.828C30.0965 41.8093 30.7032 41.7907 31.8325 41.772C32.9432 41.7627 33.5172 41.7393 33.5545 41.702C33.5732 41.6833 33.5918 41.5433 33.6105 41.282V41.114C33.6105 40.9833 33.6012 40.8993 33.5825 40.862C33.5732 40.8247 33.2418 40.806 32.5885 40.806C32.0472 40.806 31.7065 40.7873 31.5665 40.75C31.4172 40.7127 31.3098 40.6193 31.2445 40.47C31.2165 40.3953 31.1932 39.8213 31.1745 38.748L31.1605 37.796C31.1605 37.348 31.1745 37.096 31.2025 37.04C31.2118 36.984 31.2492 36.9187 31.3145 36.844ZM32.2525 39.42C32.2525 39.5693 32.2665 39.672 32.2945 39.728C32.3225 39.7933 32.3738 39.826 32.4485 39.826C33.0552 39.826 33.8252 39.8073 34.7585 39.77C35.7945 39.742 36.3218 39.7187 36.3405 39.7C36.3872 39.6533 36.4105 39.5693 36.4105 39.448C36.3918 39.308 36.3685 39.224 36.3405 39.196C36.3032 39.1587 35.9158 39.126 35.1785 39.098C34.2638 39.0513 33.6152 39.028 33.2325 39.028C32.7752 39.028 32.4905 39.0513 32.3785 39.098C32.3318 39.1073 32.2992 39.1353 32.2805 39.182C32.2618 39.238 32.2525 39.3173 32.2525 39.42Z" fill="#666666"/>
</svg>
