<svg width="58" height="58" viewBox="0 0 58 58" fill="none" xmlns="http://www.w3.org/2000/svg">
<g clip-path="url(#clip0_1706_9404)">
<path d="M21 25.2109V11.2109C21 10.6809 21.21 10.1709 21.59 9.80094C21.96 9.42094 22.47 9.21094 23 9.21094H36.4C36.56 9.21094 36.71 9.27094 36.82 9.39094C36.94 9.50094 37 9.65094 37 9.81094V23.2109L23 22.9309C23 22.9309 21 22.9909 21 25.2109ZM23 23.2109H37H23ZM23 27.2109H37H23Z" fill="#1392FF"/>
<path d="M37 23.2109V9.81094C37 9.65094 36.94 9.50094 36.82 9.39094C36.71 9.27094 36.56 9.21094 36.4 9.21094H23C22.47 9.21094 21.96 9.42094 21.59 9.80094C21.21 10.1709 21 10.6809 21 11.2109V25.2109C21 22.9909 23 22.9309 23 22.9309L37 23.2109ZM37 23.2109H23M23 27.2109H37" stroke="#1392FF" stroke-linecap="round" stroke-linejoin="round"/>
<path d="M23 27.2109C22.47 27.2109 21.96 27.0009 21.59 26.6209C21.21 26.2509 21 25.7409 21 25.2109C21 24.6809 21.21 24.1709 21.59 23.8009C21.97 23.4209 22.47 23.2109 23 23.2109" stroke="#1392FF" stroke-linecap="round" stroke-linejoin="round"/>
<path d="M24.39 15.7217C24.39 15.7217 23.67 14.2717 24.29 13.7817C25.02 13.2117 26.32 14.8817 26.32 14.8817C26.32 14.8817 30.21 10.3617 34.21 14.7717C34.71 15.3217 34.68 16.1617 34.19 16.7017C32.86 18.1517 29.94 20.2917 26.31 16.6517C26.31 16.6517 24.99 18.2017 24.29 17.6417C23.68 17.1517 24.39 15.7217 24.39 15.7217Z" fill="white"/>
</g>
<path d="M17.8855 37.236C17.9975 37.2173 18.0721 37.208 18.1095 37.208C18.3428 37.208 18.4875 37.2967 18.5435 37.474C18.5995 37.614 18.6321 39.0513 18.6415 41.786C18.6508 42.6633 18.6555 43.634 18.6555 44.698V45.286C18.6368 45.7713 18.6135 46.042 18.5855 46.098C18.4921 46.294 18.3568 46.392 18.1795 46.392C18.0955 46.392 17.9975 46.364 17.8855 46.308C17.7641 46.2427 17.6895 46.1027 17.6615 45.888C17.6335 45.7293 17.6101 45.1833 17.5915 44.25C17.5821 43.2047 17.5635 42.6213 17.5355 42.5C17.5261 42.4533 17.4981 42.4207 17.4515 42.402C17.4141 42.3927 17.2508 42.388 16.9615 42.388C16.5881 42.388 16.3641 42.4113 16.2895 42.458C16.2428 42.5047 16.2148 42.598 16.2055 42.738C16.1961 42.8033 16.1915 43.018 16.1915 43.382L16.1775 44.026C16.1588 44.922 16.1401 45.4773 16.1215 45.692C16.0748 45.972 16.0001 46.154 15.8975 46.238C15.8415 46.2847 15.7668 46.308 15.6735 46.308C15.5055 46.308 15.3655 46.252 15.2535 46.14C15.1788 46.084 15.1368 46.0187 15.1275 45.944C15.0995 45.8133 15.0808 45.636 15.0715 45.412L15.0575 44.796C15.0575 44.6187 15.0668 44.1847 15.0855 43.494L15.1835 39.994C15.2301 38.7713 15.2628 38.0713 15.2815 37.894C15.3095 37.67 15.3841 37.516 15.5055 37.432C15.5895 37.376 15.6735 37.348 15.7575 37.348C15.8601 37.348 15.9581 37.39 16.0515 37.474L16.1915 37.6L16.2055 39.434C16.2241 40.6567 16.2521 41.282 16.2895 41.31C16.3175 41.3473 16.5275 41.366 16.9195 41.366C17.3021 41.366 17.5075 41.352 17.5355 41.324C17.5541 41.268 17.5635 40.6473 17.5635 39.462C17.5635 38.678 17.5728 38.1553 17.5915 37.894C17.6008 37.7073 17.6288 37.5627 17.6755 37.46C17.7501 37.32 17.8201 37.2453 17.8855 37.236ZM9.02348 39.672C9.02348 39.448 9.11681 39.308 9.30348 39.252C9.33148 39.2427 10.2088 39.238 11.9355 39.238L14.4695 39.252L14.6235 39.42C14.6981 39.5133 14.7448 39.588 14.7635 39.644V39.672C14.7635 39.7187 14.7308 39.7933 14.6655 39.896C14.5628 40.0267 14.3855 40.106 14.1335 40.134C13.8721 40.162 13.0928 40.176 11.7955 40.176C10.5635 40.176 9.86814 40.1713 9.70948 40.162C9.48548 40.1527 9.32214 40.1247 9.21948 40.078C9.14481 40.0313 9.09814 39.9847 9.07948 39.938C9.04214 39.8633 9.02348 39.7747 9.02348 39.672ZM9.48548 42.934C9.48548 42.8033 9.52281 42.6027 9.59748 42.332C9.67214 42.08 9.75614 41.8747 9.84948 41.716C9.99881 41.464 10.2275 41.226 10.5355 41.002C10.8435 40.778 11.1421 40.6333 11.4315 40.568C11.6368 40.5307 11.8048 40.512 11.9355 40.512C12.1408 40.512 12.3555 40.54 12.5795 40.596C12.9901 40.6987 13.3168 40.862 13.5595 41.086C13.8768 41.3847 14.0961 41.7487 14.2175 42.178C14.2828 42.374 14.3155 42.5887 14.3155 42.822C14.3155 43.0367 14.2828 43.2373 14.2175 43.424C14.0961 43.8533 13.9235 44.208 13.6995 44.488C13.5875 44.628 13.4055 44.7633 13.1535 44.894C12.9295 45.006 12.6821 45.0853 12.4115 45.132C12.3461 45.1413 12.2528 45.146 12.1315 45.146C11.7768 45.146 11.4315 45.0853 11.0955 44.964C10.6381 44.8053 10.2835 44.586 10.0315 44.306C9.88214 44.138 9.75614 43.9187 9.65348 43.648C9.54148 43.3773 9.48548 43.1393 9.48548 42.934ZM9.98948 37.866C10.0548 37.7167 10.1715 37.614 10.3395 37.558C10.4701 37.53 10.9555 37.516 11.7955 37.516C12.4488 37.516 12.8781 37.5253 13.0835 37.544C13.2328 37.572 13.3495 37.6607 13.4335 37.81C13.4895 37.894 13.5175 37.95 13.5175 37.978C13.5175 37.9967 13.4941 38.062 13.4475 38.174C13.3728 38.342 13.2655 38.4307 13.1255 38.44C13.0788 38.4493 12.9248 38.454 12.6635 38.454C12.3088 38.454 12.0008 38.4493 11.7395 38.44C11.0768 38.412 10.6521 38.384 10.4655 38.356C10.2975 38.3467 10.1575 38.3 10.0455 38.216C9.98014 38.16 9.94748 38.0993 9.94748 38.034C9.94748 37.978 9.96148 37.922 9.98948 37.866ZM10.5915 42.906C10.5915 43.158 10.6335 43.3493 10.7175 43.48C10.8948 43.7787 11.2121 43.9933 11.6695 44.124C11.8561 44.1707 11.9681 44.194 12.0055 44.194C12.0521 44.194 12.1455 44.1707 12.2855 44.124C12.6681 44.0027 12.9388 43.774 13.0975 43.438C13.1721 43.2607 13.2095 43.0647 13.2095 42.85C13.2095 42.7007 13.1955 42.542 13.1675 42.374C13.1395 42.2993 13.0835 42.2013 12.9995 42.08C12.8875 41.9027 12.7521 41.7767 12.5935 41.702C12.4628 41.6273 12.2901 41.5853 12.0755 41.576L11.8375 41.562C11.7255 41.562 11.6275 41.576 11.5435 41.604C11.4035 41.6507 11.2495 41.744 11.0815 41.884C10.8948 42.0427 10.7735 42.178 10.7175 42.29C10.6335 42.4393 10.5915 42.6447 10.5915 42.906ZM27.3878 36.774C27.4904 36.6993 27.5744 36.662 27.6398 36.662C27.7238 36.662 27.8171 36.7133 27.9198 36.816C27.9851 36.8813 28.0271 36.956 28.0458 37.04C28.0551 37.068 28.0598 37.1707 28.0598 37.348L28.0738 37.656L28.0878 38.342L28.7178 38.37L29.0118 38.384C29.1611 38.384 29.2544 38.3887 29.2918 38.398C29.3664 38.4073 29.4318 38.4447 29.4878 38.51C29.5811 38.6033 29.6278 38.7153 29.6278 38.846C29.6278 38.9113 29.6138 38.986 29.5858 39.07C29.5298 39.2007 29.2404 39.2893 28.7178 39.336C28.3631 39.3453 28.1624 39.3733 28.1158 39.42C28.0784 39.4667 28.0551 39.5973 28.0458 39.812C28.0364 39.868 28.0318 39.938 28.0318 40.022C28.0318 40.134 28.0504 40.204 28.0878 40.232C28.1438 40.288 28.3631 40.3207 28.7458 40.33C29.1378 40.358 29.3804 40.4 29.4738 40.456C29.5764 40.512 29.6278 40.638 29.6278 40.834C29.6278 41.0113 29.5858 41.1233 29.5018 41.17C29.3804 41.226 29.1284 41.2587 28.7458 41.268C28.3631 41.2773 28.1344 41.3147 28.0598 41.38C27.9944 41.4453 27.9618 41.6413 27.9618 41.968C27.9618 42.276 27.9244 42.4813 27.8498 42.584C27.7844 42.6773 27.6864 42.724 27.5558 42.724C27.2944 42.724 27.1171 42.6213 27.0238 42.416C26.9771 42.3413 26.9538 42.1593 26.9538 41.87L26.9958 40.232L27.0238 39.336C27.0704 37.8893 27.1124 37.1193 27.1498 37.026C27.1964 36.9233 27.2758 36.8393 27.3878 36.774ZM20.2618 39.742C20.2618 39.2193 20.2944 38.874 20.3598 38.706C20.5184 38.2953 20.7518 37.9547 21.0598 37.684C21.1998 37.5627 21.3818 37.446 21.6058 37.334C21.8671 37.194 22.0491 37.1193 22.1518 37.11C22.1891 37.1007 22.2591 37.096 22.3618 37.096C22.5578 37.096 22.8004 37.124 23.0898 37.18C23.4258 37.236 23.6918 37.306 23.8878 37.39C24.0744 37.4927 24.2378 37.6187 24.3778 37.768C24.5178 37.936 24.6438 38.1413 24.7558 38.384C24.8864 38.6547 24.9704 38.874 25.0078 39.042C25.0358 39.1633 25.0498 39.308 25.0498 39.476C25.0498 39.6347 25.0358 39.812 25.0078 40.008C24.9518 40.3907 24.8491 40.7173 24.6998 40.988C24.5224 41.3613 24.1491 41.6553 23.5798 41.87C23.4118 41.9353 23.0991 41.968 22.6418 41.968C22.3804 41.968 22.1658 41.9447 21.9978 41.898C21.6524 41.7953 21.3304 41.6367 21.0318 41.422C20.7238 41.198 20.5044 40.9647 20.3738 40.722C20.3271 40.6193 20.2991 40.5167 20.2898 40.414C20.2711 40.2833 20.2618 40.0593 20.2618 39.742ZM21.2558 39.784C21.2558 40.008 21.2838 40.176 21.3398 40.288C21.5824 40.736 22.0678 40.9647 22.7958 40.974C23.0384 40.974 23.2158 40.9553 23.3278 40.918C23.4398 40.8713 23.5518 40.7873 23.6638 40.666C23.8131 40.5073 23.9064 40.3673 23.9438 40.246C23.9811 40.134 23.9998 39.9147 23.9998 39.588C23.9998 39.3453 23.9904 39.168 23.9718 39.056C23.9531 38.9627 23.9111 38.8553 23.8458 38.734C23.6871 38.4447 23.4491 38.2253 23.1318 38.076C22.9638 37.992 22.8144 37.95 22.6838 37.95C22.4504 37.95 22.2031 38.0527 21.9418 38.258C21.6711 38.4727 21.4798 38.7107 21.3678 38.972C21.2931 39.1493 21.2558 39.42 21.2558 39.784ZM21.7878 45.16C21.7878 44.7493 21.8438 44.4273 21.9558 44.194C22.0491 44.0167 22.1751 43.844 22.3338 43.676C22.4831 43.508 22.6464 43.354 22.8238 43.214C22.9918 43.0927 23.2158 42.9853 23.4958 42.892C23.7384 42.808 24.0184 42.7427 24.3358 42.696C24.3824 42.6867 24.5038 42.682 24.6998 42.682C24.9518 42.682 25.1664 42.6867 25.3438 42.696C25.8478 42.7147 26.1651 42.738 26.2958 42.766C26.4824 42.8127 26.7391 42.9153 27.0658 43.074C27.5511 43.298 27.8824 43.606 28.0598 43.998C28.1438 44.1847 28.1904 44.306 28.1998 44.362C28.2184 44.474 28.2278 44.6187 28.2278 44.796C28.2278 45.0573 28.2091 45.2487 28.1718 45.37C28.1344 45.4913 28.0411 45.664 27.8918 45.888C27.7611 46.056 27.6864 46.1493 27.6678 46.168C27.6024 46.2333 27.4858 46.3173 27.3178 46.42C27.0564 46.588 26.7064 46.728 26.2678 46.84C26.0718 46.896 25.7871 46.924 25.4138 46.924C24.7791 46.924 24.3171 46.8867 24.0278 46.812L23.3418 46.658C23.1551 46.63 22.9498 46.5553 22.7258 46.434C22.4924 46.3127 22.3198 46.196 22.2078 46.084C22.1051 46 22.0024 45.8507 21.8998 45.636C21.8531 45.5333 21.8204 45.426 21.8018 45.314L21.7878 45.16ZM22.8378 45.048C22.8378 45.2627 22.9638 45.4353 23.2158 45.566C23.3838 45.6407 23.7478 45.7153 24.3078 45.79C24.7558 45.846 25.1384 45.874 25.4558 45.874C26.0064 45.874 26.4311 45.7527 26.7298 45.51C26.8978 45.3793 27.0191 45.2113 27.0938 45.006C27.1124 44.95 27.1218 44.866 27.1218 44.754C27.1218 44.4647 27.0144 44.2313 26.7998 44.054C26.5851 43.8673 26.2584 43.7227 25.8198 43.62C25.5584 43.5733 25.3064 43.55 25.0638 43.55C24.5038 43.55 24.0511 43.648 23.7058 43.844C23.4631 43.9747 23.2484 44.18 23.0618 44.46C22.9124 44.6653 22.8378 44.8613 22.8378 45.048ZM32.6268 37.74C32.7855 37.7307 33.1215 37.726 33.6348 37.726C34.2975 37.726 34.8435 37.7307 35.2728 37.74L37.2188 37.768L37.3728 37.936C37.4662 38.0573 37.5128 38.174 37.5128 38.286C37.5128 38.314 37.5035 38.3653 37.4848 38.44C37.4195 38.608 37.2935 38.7013 37.1068 38.72L35.0488 38.678C34.7222 38.6687 34.3068 38.664 33.8028 38.664C33.0282 38.664 32.5895 38.692 32.4868 38.748C32.4495 38.7853 32.4308 39.014 32.4308 39.434C32.4308 40.1993 32.4448 40.722 32.4728 41.002L32.5008 41.324L32.9208 41.366C33.1635 41.394 33.9475 41.408 35.2728 41.408C36.5795 41.408 37.2935 41.422 37.4148 41.45C37.5548 41.4873 37.6622 41.5713 37.7368 41.702C37.7555 41.7393 37.7648 41.8 37.7648 41.884C37.7648 41.9773 37.7462 42.0613 37.7088 42.136C37.6528 42.2573 37.5502 42.332 37.4008 42.36C37.2515 42.388 36.8688 42.402 36.2528 42.402H36.0568C35.4968 42.402 35.1655 42.43 35.0628 42.486C34.9695 42.5327 34.9322 42.724 34.9508 43.06V43.172L34.9788 44.208C34.9882 44.5533 35.0208 44.74 35.0768 44.768C35.1142 44.8053 35.6975 44.824 36.8268 44.824C37.7882 44.824 38.3668 44.838 38.5628 44.866C38.7588 44.894 38.8942 44.9873 38.9688 45.146C39.0155 45.2393 39.0388 45.3187 39.0388 45.384C39.0388 45.524 38.9642 45.6407 38.8148 45.734L38.6468 45.846L30.4568 45.832L30.3308 45.706C30.2562 45.6313 30.2095 45.5193 30.1908 45.37V45.314C30.1908 45.2113 30.2235 45.1273 30.2888 45.062C30.3822 44.9873 30.5408 44.936 30.7648 44.908C30.9888 44.8893 31.4835 44.8753 32.2488 44.866C33.2382 44.8473 33.7562 44.824 33.8028 44.796C33.8588 44.74 33.8915 44.3573 33.9008 43.648V43.41L33.9148 42.948C33.9148 42.7333 33.9008 42.598 33.8728 42.542C33.8262 42.4673 33.6675 42.43 33.3968 42.43H33.2708C33.0188 42.43 32.6922 42.4067 32.2908 42.36C32.0295 42.3133 31.8755 42.2807 31.8288 42.262C31.7635 42.2433 31.6935 42.1873 31.6188 42.094C31.5068 41.9727 31.4462 41.8093 31.4368 41.604C31.4275 41.5013 31.4228 41.1653 31.4228 40.596V39.854L31.4368 39.322C31.4368 39.0607 31.4415 38.888 31.4508 38.804C31.4508 38.5893 31.4648 38.4073 31.4928 38.258C31.5208 38.1087 31.5535 38.0153 31.5908 37.978C31.6188 37.9313 31.6795 37.8893 31.7728 37.852C31.8755 37.796 32.1602 37.7587 32.6268 37.74ZM46.6078 36.816C46.6451 36.8067 46.7338 36.8067 46.8738 36.816C47.0138 36.8347 47.0838 36.844 47.0838 36.844L47.1678 36.984C47.2238 37.068 47.2518 37.4507 47.2518 38.132C47.2518 38.8133 47.2751 39.168 47.3218 39.196C47.3685 39.2333 47.6065 39.2567 48.0358 39.266C48.4278 39.2753 48.6845 39.3127 48.8058 39.378C48.9085 39.434 48.9645 39.5507 48.9738 39.728C48.9738 39.868 48.9598 39.9613 48.9318 40.008C48.9038 40.0547 48.8291 40.1107 48.7078 40.176C48.6331 40.2133 48.4931 40.232 48.2878 40.232L47.7978 40.218C47.6671 40.218 47.5598 40.232 47.4758 40.26C47.3358 40.3067 47.2611 40.3813 47.2518 40.484L47.2378 40.75L47.2518 41.212C47.2798 41.8467 47.1865 42.2713 46.9718 42.486C46.8878 42.5513 46.8458 42.598 46.8458 42.626C46.8458 42.654 46.9065 42.7007 47.0278 42.766C47.1585 42.8407 47.2518 42.934 47.3078 43.046C47.3825 43.158 47.4245 43.354 47.4338 43.634C47.4338 43.8393 47.4105 44.3527 47.3638 45.174L47.2798 46.322C47.2518 46.4713 47.2098 46.5787 47.1538 46.644L47.0418 46.784H44.2278C42.8278 46.7653 42.0111 46.7513 41.7778 46.742C41.5351 46.714 41.3858 46.6207 41.3298 46.462H41.3158C41.2878 46.378 41.2738 46.0747 41.2738 45.552V44.95L41.2878 43.452C41.2878 43.3493 41.3391 43.2467 41.4418 43.144C41.5258 43.06 41.6378 42.9947 41.7778 42.948C41.9085 42.9107 42.5758 42.878 43.7798 42.85C45.3945 42.8033 46.2438 42.7333 46.3278 42.64C46.3371 42.6307 46.3418 42.612 46.3418 42.584C46.3418 42.5467 46.3185 42.4813 46.2718 42.388L46.1458 42.178L46.1878 39.98C46.1971 38.6173 46.2298 37.7353 46.2858 37.334C46.3231 37.0167 46.4305 36.844 46.6078 36.816ZM39.5938 37.824C39.5938 37.7773 39.6031 37.7167 39.6218 37.642C39.6498 37.5393 39.6918 37.4693 39.7478 37.432C39.8318 37.3853 40.2938 37.3573 41.1338 37.348C41.9178 37.3293 42.4171 37.32 42.6318 37.32C43.3785 37.32 43.8498 37.348 44.0458 37.404C44.2138 37.4507 44.3305 37.5253 44.3958 37.628C44.4611 37.7307 44.4938 37.8427 44.4938 37.964C44.4938 38.076 44.4005 38.356 44.2138 38.804C44.0925 39.084 43.9198 39.392 43.6958 39.728C43.2665 40.3813 42.7531 40.9927 42.1558 41.562C41.3718 42.2993 40.7745 42.668 40.3638 42.668C40.2051 42.668 40.0745 42.612 39.9718 42.5C39.8878 42.4253 39.8458 42.3413 39.8458 42.248C39.8458 42.1827 39.8645 42.1173 39.9018 42.052C40.0138 41.8653 40.2471 41.646 40.6018 41.394C41.1711 40.9647 41.6845 40.5027 42.1418 40.008C42.5711 39.5413 42.8605 39.112 43.0098 38.72C43.0845 38.524 43.1031 38.4073 43.0658 38.37C43.0285 38.3233 42.4825 38.2953 41.4278 38.286C40.6158 38.2767 40.1118 38.2533 39.9158 38.216C39.7385 38.188 39.6358 38.104 39.6078 37.964L39.5938 37.824ZM46.2718 45.804L46.3278 45.664C46.3558 45.58 46.3698 45.2393 46.3698 44.642L46.3558 43.746H44.5918C43.5371 43.746 42.9305 43.7507 42.7718 43.76C42.5291 43.7693 42.3845 43.7973 42.3378 43.844C42.3005 43.8907 42.2771 44.222 42.2678 44.838L42.2538 45.776L46.2718 45.804Z" fill="#1392FF"/>
<defs>
<clipPath id="clip0_1706_9404">
<rect width="24" height="24" fill="white" transform="translate(17 6)"/>
</clipPath>
</defs>
</svg>
