<svg width="61" height="61" viewBox="0 0 61 61" fill="none" xmlns="http://www.w3.org/2000/svg">
<path d="M19.4121 43.5191C20.4114 43.3533 21.123 42.6246 21.0014 41.8914C20.8798 41.1582 19.9711 40.6982 18.9718 40.864C17.9724 41.0297 17.2608 41.7584 17.3824 42.4916C17.504 43.2248 18.4127 43.6848 19.4121 43.5191Z" fill="#FF794A"/>
<path d="M15.8676 42.5324C16.1836 41.8597 15.6964 40.9653 14.7795 40.5347C13.8626 40.104 12.8632 40.3002 12.5472 40.9729C12.2313 41.6456 12.7185 42.54 13.6354 42.9707C14.5523 43.4013 15.5517 43.2051 15.8676 42.5324Z" fill="#FF794A"/>
<path d="M11.9985 39.4286C12.5978 38.989 12.5978 37.9704 11.9986 37.1536C11.3994 36.3368 10.4278 36.031 9.82858 36.4706C9.22932 36.9102 9.22929 37.9288 9.82851 38.7456C10.4277 39.5624 11.3993 39.8682 11.9985 39.4286Z" fill="#FF794A"/>
<path d="M19.4121 43.5191C20.4114 43.3533 21.123 42.6246 21.0014 41.8914C20.8798 41.1582 19.9711 40.6982 18.9718 40.864C17.9724 41.0297 17.2608 41.7584 17.3824 42.4916C17.504 43.2248 18.4127 43.6848 19.4121 43.5191Z" stroke="#933400" stroke-miterlimit="10" stroke-linecap="round" stroke-linejoin="round"/>
<path d="M15.8676 42.5324C16.1836 41.8597 15.6964 40.9653 14.7795 40.5347C13.8626 40.104 12.8632 40.3002 12.5472 40.9729C12.2313 41.6456 12.7185 42.54 13.6354 42.9707C14.5523 43.4013 15.5517 43.2051 15.8676 42.5324Z" stroke="#933400" stroke-miterlimit="10" stroke-linecap="round" stroke-linejoin="round"/>
<path d="M11.9985 39.4286C12.5978 38.989 12.5978 37.9704 11.9986 37.1536C11.3994 36.3368 10.4278 36.031 9.82858 36.4706C9.22932 36.9102 9.22929 37.9288 9.82851 38.7456C10.4277 39.5624 11.3993 39.8682 11.9985 39.4286Z" stroke="#933400" stroke-miterlimit="10" stroke-linecap="round" stroke-linejoin="round"/>
<path d="M26.2755 49.2466C26.9306 48.4739 27.0022 47.4578 26.4352 46.9772C25.8683 46.4965 24.8776 46.7333 24.2225 47.5061C23.5674 48.2788 23.4958 49.2949 24.0628 49.7755C24.6297 50.2562 25.6204 50.0194 26.2755 49.2466Z" fill="#FF794A"/>
<path d="M29.5397 43.7751C29.8295 42.8044 29.4872 41.8451 28.775 41.6325C28.0629 41.4198 27.2506 42.0344 26.9608 43.0051C26.6709 43.9758 27.0133 44.9351 27.7254 45.1477C28.4376 45.3603 29.2499 44.7458 29.5397 43.7751Z" fill="#FF794A"/>
<path d="M20.3099 50.4494C20.4827 49.7265 19.824 48.9496 18.8387 48.7141C17.8534 48.4785 16.9146 48.8736 16.7418 49.5964C16.569 50.3193 17.2277 51.0962 18.213 51.3317C19.1983 51.5673 20.1371 51.1722 20.3099 50.4494Z" fill="#FF794A"/>
<path d="M26.2755 49.2466C26.9306 48.4739 27.0022 47.4578 26.4352 46.9772C25.8683 46.4965 24.8776 46.7333 24.2225 47.5061C23.5674 48.2788 23.4958 49.2949 24.0628 49.7755C24.6297 50.2562 25.6204 50.0194 26.2755 49.2466Z" stroke="#933400" stroke-miterlimit="10" stroke-linecap="round" stroke-linejoin="round"/>
<path d="M29.5397 43.7751C29.8295 42.8044 29.4872 41.8451 28.775 41.6325C28.0629 41.4198 27.2506 42.0344 26.9608 43.0051C26.6709 43.9758 27.0133 44.9351 27.7254 45.1477C28.4376 45.3603 29.2499 44.7458 29.5397 43.7751Z" stroke="#933400" stroke-miterlimit="10" stroke-linecap="round" stroke-linejoin="round"/>
<path d="M20.3099 50.4494C20.4827 49.7265 19.824 48.9496 18.8387 48.7141C17.8534 48.4785 16.9146 48.8736 16.7418 49.5964C16.569 50.3193 17.2277 51.0962 18.213 51.3317C19.1983 51.5673 20.1371 51.1722 20.3099 50.4494Z" stroke="#933400" stroke-miterlimit="10" stroke-linecap="round" stroke-linejoin="round"/>
<path d="M43.4238 42.4982C43.5454 41.765 42.8338 41.0363 41.8344 40.8706C40.8351 40.7048 39.9263 41.1649 39.8048 41.898C39.6832 42.6312 40.3947 43.3599 41.3941 43.5257C42.3935 43.6914 43.3022 43.2314 43.4238 42.4982Z" fill="#FF794A"/>
<path d="M47.5427 42.8232C48.4597 42.3926 48.9468 41.4982 48.6309 40.8255C48.3149 40.1528 47.3155 39.9566 46.3986 40.3872C45.4817 40.8179 44.9945 41.7123 45.3105 42.385C45.6264 43.0577 46.6258 43.2539 47.5427 42.8232Z" fill="#FF794A"/>
<path d="M50.9874 38.7443C51.5867 37.9275 51.5866 36.909 50.9874 36.4694C50.3881 36.0298 49.4166 36.3355 48.8173 37.1524C48.2181 37.9692 48.2182 38.9877 48.8174 39.4273C49.4167 39.867 50.3882 39.5612 50.9874 38.7443Z" fill="#FF794A"/>
<path d="M43.4238 42.4982C43.5454 41.765 42.8338 41.0363 41.8344 40.8706C40.8351 40.7048 39.9263 41.1649 39.8048 41.898C39.6832 42.6312 40.3947 43.3599 41.3941 43.5257C42.3935 43.6914 43.3022 43.2314 43.4238 42.4982Z" stroke="#933400" stroke-miterlimit="10" stroke-linecap="round" stroke-linejoin="round"/>
<path d="M47.5427 42.8232C48.4597 42.3926 48.9468 41.4982 48.6309 40.8255C48.3149 40.1528 47.3155 39.9566 46.3986 40.3872C45.4817 40.8179 44.9945 41.7123 45.3105 42.385C45.6264 43.0577 46.6258 43.2539 47.5427 42.8232Z" stroke="#933400" stroke-miterlimit="10" stroke-linecap="round" stroke-linejoin="round"/>
<path d="M50.9874 38.7443C51.5867 37.9275 51.5866 36.909 50.9874 36.4694C50.3881 36.0298 49.4166 36.3355 48.8173 37.1524C48.2181 37.9692 48.2182 38.9877 48.8174 39.4273C49.4167 39.867 50.3882 39.5612 50.9874 38.7443Z" stroke="#933400" stroke-miterlimit="10" stroke-linecap="round" stroke-linejoin="round"/>
<path d="M36.7658 49.7807C37.3327 49.3 37.2612 48.2839 36.6061 47.5112C35.9509 46.7384 34.9603 46.5016 34.3933 46.9823C33.8264 47.4629 33.8979 48.479 34.5531 49.2517C35.2082 50.0245 36.1989 50.2613 36.7658 49.7807Z" fill="#FF794A"/>
<path d="M33.0994 45.1483C33.8116 44.9356 34.1539 43.9764 33.8641 43.0057C33.5743 42.035 32.762 41.4204 32.0498 41.6331C31.3377 41.8457 30.9953 42.805 31.2852 43.7757C31.575 44.7464 32.3873 45.3609 33.0994 45.1483Z" fill="#FF794A"/>
<path d="M42.6059 51.3362C43.5912 51.1007 44.2498 50.3238 44.077 49.6009C43.9042 48.8781 42.9654 48.483 41.9801 48.7185C40.9948 48.9541 40.3362 49.731 40.509 50.4539C40.6818 51.1767 41.6206 51.5718 42.6059 51.3362Z" fill="#FF794A"/>
<path d="M36.7658 49.7807C37.3327 49.3 37.2612 48.2839 36.6061 47.5112C35.9509 46.7384 34.9603 46.5016 34.3933 46.9823C33.8264 47.4629 33.8979 48.479 34.5531 49.2517C35.2082 50.0245 36.1989 50.2613 36.7658 49.7807Z" stroke="#933400" stroke-miterlimit="10" stroke-linecap="round" stroke-linejoin="round"/>
<path d="M33.0994 45.1483C33.8116 44.9356 34.1539 43.9764 33.8641 43.0057C33.5743 42.035 32.762 41.4204 32.0498 41.6331C31.3377 41.8457 30.9953 42.805 31.2852 43.7757C31.575 44.7464 32.3873 45.3609 33.0994 45.1483Z" stroke="#933400" stroke-miterlimit="10" stroke-linecap="round" stroke-linejoin="round"/>
<path d="M42.6059 51.3362C43.5912 51.1007 44.2498 50.3238 44.077 49.6009C43.9042 48.8781 42.9654 48.483 41.9801 48.7185C40.9948 48.9541 40.3362 49.731 40.509 50.4539C40.6818 51.1767 41.6206 51.5718 42.6059 51.3362Z" stroke="#933400" stroke-miterlimit="10" stroke-linecap="round" stroke-linejoin="round"/>
<path d="M49.4257 34.7256C48.8171 34.5799 48.2171 34.8542 47.8743 35.437C47.7885 35.5913 47.7028 35.7542 47.6257 35.9085C47.5828 35.9942 47.54 36.0799 47.4971 36.1656C47.0428 37.0142 46.5457 37.5628 45.92 37.8885C44.8485 38.4456 43.4857 38.3342 42.2771 37.6056C41.0085 36.8428 40.22 35.5656 40.2028 34.2799C40.1857 32.8742 40.82 31.597 41.4457 30.5256C42.8171 28.177 43.52 25.7685 43.4771 23.5742C43.4857 20.7028 42.8428 18.277 41.4543 15.937C38.7457 11.377 33.62 8.99418 28.3914 9.85132C20.5228 11.1542 16.6571 18.8256 17.5914 25.1942C17.8657 27.0542 18.5171 28.8199 19.5885 30.5942C20.3171 31.8113 20.7114 32.9256 20.7885 33.997C20.9085 35.6856 19.6657 37.3742 17.8314 37.9999C16.2714 38.5313 14.9514 38.1628 14.0343 36.9199C13.7257 36.4999 13.4771 36.0113 13.2114 35.497C12.8857 34.8456 12.2685 34.5456 11.6 34.7085C10.9228 34.8799 10.5028 35.4113 10.4857 36.1399C10.4771 36.6885 10.5543 37.2456 10.7085 37.7942C11.7628 41.3599 15.4314 43.3742 19.2457 42.4828C20.4371 42.1999 21.5085 41.7028 22.4085 41.257C22.4771 41.2228 22.5371 41.197 22.58 41.1885C22.5885 41.2313 22.5885 41.2913 22.5971 41.3599V41.5656C22.5971 41.8399 22.6057 42.1228 22.5885 42.397C22.4943 43.837 22.04 44.1285 21.2085 45.0542C20.2743 46.0999 19.1257 46.3656 17.5828 45.8942C17.2314 45.7913 16.16 45.457 15.56 46.4685C15.1485 47.1542 15.2343 47.9513 15.7828 48.6542C16.1085 49.0742 16.5371 49.4085 17.1457 49.717C20.0428 51.1913 23.8914 50.3513 26.0943 47.7456C27.0543 46.6228 27.6628 46.2028 28.2457 44.9685C28.4085 44.6342 28.46 44.0513 28.6314 43.717L28.9228 42.7142C29.2657 42.0199 29.5828 41.3599 30.1057 40.9056C30.4314 40.6228 30.5514 40.6142 30.8685 40.9056C31.1428 41.1542 32.2057 42.3542 32.4371 42.7399C32.9171 43.5628 32.4543 43.5542 32.8828 44.4456C33.0971 44.8913 33.3028 45.337 33.5257 45.7828C34.7428 48.2342 37.34 50.4456 40.6485 50.4456C41.1114 50.4456 41.5914 50.4028 42.08 50.3085C43.4085 50.0599 44.3685 49.5713 45.0885 48.7742C45.7485 48.0542 45.86 47.0942 45.3628 46.3999C44.7114 45.4828 43.7514 45.7828 43.2885 45.9285C43.2028 45.9542 43.1171 45.9799 43.0314 45.997C41.7114 46.2885 40.7257 46.0142 39.9285 45.1313C38.8485 43.9313 38.3943 43.3313 38.4971 41.4028C38.5057 41.3085 38.5143 41.2313 38.5228 41.1799C38.5743 41.197 38.6428 41.2313 38.7285 41.2742C39.4143 41.617 40.3314 42.0542 41.3428 42.3456C44.4285 43.2456 47.2914 42.3542 49.2114 39.9113C50.12 38.7542 50.5571 37.4685 50.5143 36.097C50.4971 35.4113 50.0771 34.8799 49.4257 34.7256Z" fill="#FF794A"/>
<path d="M34.0486 31.5716C34.451 31.5716 34.7772 31.0919 34.7772 30.5001C34.7772 29.9084 34.451 29.4287 34.0486 29.4287C33.6462 29.4287 33.32 29.9084 33.32 30.5001C33.32 31.0919 33.6462 31.5716 34.0486 31.5716Z" fill="#121212"/>
<path d="M26.6857 31.5716C27.0881 31.5716 27.4143 31.0919 27.4143 30.5001C27.4143 29.9084 27.0881 29.4287 26.6857 29.4287C26.2833 29.4287 25.9572 29.9084 25.9572 30.5001C25.9572 31.0919 26.2833 31.5716 26.6857 31.5716Z" fill="#121212"/>
<path d="M49.4257 34.7256C48.8171 34.5799 48.2171 34.8542 47.8743 35.437C47.7885 35.5913 47.7028 35.7542 47.6257 35.9085C47.5828 35.9942 47.54 36.0799 47.4971 36.1656C47.0428 37.0142 46.5457 37.5628 45.92 37.8885C44.8485 38.4456 43.4857 38.3342 42.2771 37.6056C41.0085 36.8428 40.22 35.5656 40.2028 34.2799C40.1857 32.8742 40.82 31.597 41.4457 30.5256C42.8171 28.177 43.52 25.7685 43.4771 23.5742C43.4857 20.7028 42.8428 18.277 41.4543 15.937C38.7457 11.377 33.62 8.99418 28.3914 9.85132C20.5228 11.1542 16.6571 18.8256 17.5914 25.1942C17.8657 27.0542 18.5171 28.8199 19.5885 30.5942C20.3171 31.8113 20.7114 32.9256 20.7885 33.997C20.9085 35.6856 19.6657 37.3742 17.8314 37.9999C16.2714 38.5313 14.9514 38.1628 14.0343 36.9199C13.7257 36.4999 13.4771 36.0113 13.2114 35.497C12.8857 34.8456 12.2685 34.5456 11.6 34.7085C10.9228 34.8799 10.5028 35.4113 10.4857 36.1399C10.4771 36.6885 10.5543 37.2456 10.7085 37.7942C11.7628 41.3599 15.4314 43.3742 19.2457 42.4828C20.4371 42.1999 21.5085 41.7028 22.4085 41.257C22.4771 41.2228 22.5371 41.197 22.58 41.1885C22.5885 41.2313 22.5885 41.2913 22.5971 41.3599V41.5656C22.5971 41.8399 22.6057 41.2656 22.5885 41.5399C22.4943 42.9799 22.04 44.1285 21.2085 45.0542C20.2743 46.0999 19.1257 46.3656 17.5828 45.8942C17.2314 45.7913 16.16 45.457 15.56 46.4685C15.1485 47.1542 15.2343 47.9513 15.7828 48.6542C16.1085 49.0742 16.5371 49.4085 17.1457 49.717C20.0428 51.1913 23.8914 50.3513 26.0943 47.7456C27.0543 46.6228 27.6628 45.3456 28.2457 44.1113C28.4085 43.777 28.5628 43.4428 28.7343 43.1085L28.9314 42.7142C29.2743 42.0199 29.5914 41.3599 30.1143 40.9056C30.44 40.6228 30.56 40.6142 30.8771 40.9056C31.1514 41.1542 31.3571 41.497 31.5885 41.8828C32.0685 42.7056 32.4628 43.5542 32.8914 44.4456C33.1057 44.8913 33.3114 45.337 33.5343 45.7828C34.7514 48.2342 37.3485 50.4456 40.6571 50.4456C41.12 50.4456 41.6 50.4028 42.0885 50.3085C43.4171 50.0599 44.3771 49.5713 45.0971 48.7742C45.7571 48.0542 45.8685 47.0942 45.3714 46.3999C44.72 45.4828 43.76 45.7828 43.2971 45.9285C43.2114 45.9542 43.1257 45.9799 43.04 45.997C41.72 46.2885 40.7343 46.0142 39.9371 45.1313C38.8571 43.9313 38.4028 43.3313 38.5057 41.4028C38.5143 41.3085 38.5228 41.2313 38.5314 41.1799C38.5828 41.197 38.6514 41.2313 38.7371 41.2742C39.4228 41.617 40.34 42.0542 41.3514 42.3456C44.4371 43.2456 47.3 42.3542 49.22 39.9113C50.1285 38.7542 50.5657 37.4685 50.5228 36.097C50.4971 35.4113 50.0771 34.8799 49.4257 34.7256Z" stroke="#933400" stroke-miterlimit="10" stroke-linecap="round" stroke-linejoin="round"/>
</svg>
