<svg width="61" height="61" viewBox="0 0 61 61" fill="none" xmlns="http://www.w3.org/2000/svg">
<path d="M52.9743 26.7284C52.9743 26.7284 52.9229 25.4941 50.3429 26.737C50.8143 26.2484 51.6886 25.2284 51.5172 24.5941C51.5172 24.5427 51.5 24.4999 51.4743 24.4656C51.4743 24.4656 51.0286 23.3341 49.0486 25.2799C49.3657 24.637 49.7943 23.5741 49.4857 23.0513C49.4686 22.9999 49.4429 22.9656 49.4086 22.9399C49.4086 22.9399 48.6114 21.8941 47.1629 24.6799C46.8629 25.2541 48.2257 25.4256 48.7657 25.7941C48.8772 26.1713 49.6486 26.5741 50 26.9599C49.7943 27.3456 50.6 28.1341 50.7972 28.6741C50.7972 28.6741 52.9057 27.757 52.9743 26.857C52.9829 26.8141 52.9829 26.7713 52.9743 26.7284Z" fill="#FFEB99"/>
<path d="M52.9743 26.7284C52.9743 26.7284 52.9229 25.4941 50.3429 26.737C50.8143 26.2484 51.6886 25.2284 51.5172 24.5941C51.5172 24.5427 51.5 24.4999 51.4743 24.4656C51.4743 24.4656 51.0286 23.3341 49.0486 25.2799C49.3657 24.637 49.7943 23.5741 49.4857 23.0513C49.4686 22.9999 49.4429 22.9656 49.4086 22.9399C49.4086 22.9399 48.6114 21.8941 47.1629 24.6799C46.8629 25.2541 48.2257 25.4256 48.7657 25.7941C48.8772 26.1713 49.6486 26.5741 50 26.9599C49.7943 27.3456 50.6 28.1341 50.7972 28.6741C50.7972 28.6741 52.9057 27.757 52.9743 26.857C52.9829 26.8141 52.9829 26.7713 52.9743 26.7284Z" stroke="#8C730C" stroke-miterlimit="10" stroke-linecap="round" stroke-linejoin="round"/>
<path d="M13.9572 30.3456C13.9572 30.3456 12.0029 29.7199 10.3914 25.5542C10.1857 25.0227 9.31144 25.357 9.32001 25.9227C9.33715 27.097 9.44001 30.7056 11.78 31.9742C11.78 31.9656 12.6286 30.7227 13.9572 30.3456Z" fill="#FFEB99"/>
<path d="M13.6314 30.3286C13.6314 30.3286 12.02 30.0458 10.7514 25.7515C10.5886 25.2115 9.68001 25.0143 9.32858 25.9229C8.90001 27.0201 9.44858 30.7058 11.7886 31.9743C11.78 31.9658 12.4914 30.8943 13.6314 30.3286Z" stroke="#8C730C" stroke-miterlimit="10" stroke-linecap="round" stroke-linejoin="round"/>
<path d="M8.4628 35.6855C8.4628 35.6855 1.9228 40.3483 15.5942 42.4826C17.1971 42.7312 18.7999 43.0741 20.3514 43.5626C22.9399 44.3683 27.6371 45.2512 32.8399 43.4683C36.0714 42.3626 39.4914 42.0112 42.8942 42.3369C45.2514 42.5683 47.9171 42.4741 50.2828 41.5141C52.1428 40.7598 53.2914 40.0483 53.8828 38.7712C54.7571 36.9026 54.0799 35.4883 52.6142 34.1083C52.7171 33.2512 52.6742 32.6512 52.6742 32.6512V32.6341C52.6742 25.9569 42.6628 20.5483 30.3114 20.5483C17.9599 20.5483 7.94851 25.9569 7.94851 32.6341V32.6512C7.94851 32.6769 7.94851 32.7026 7.94851 32.7369C7.94851 33.7398 8.11994 34.7426 8.4628 35.6855Z" fill="white"/>
<path d="M8.72853 35.8658C8.72853 35.8658 10.6828 38.403 16.7771 38.2744C18.2685 38.2401 19.7514 38.5915 21.1742 39.0544C23.4285 39.7915 27.8085 40.4601 35.1457 38.8058C36.5257 38.4973 37.9314 38.3515 39.3457 38.4115C43.0657 38.5487 50.7371 38.3087 52.3914 34.1001C52.4428 33.963 52.4942 34.5973 52.5371 34.4515L54.1228 36.8773L53.3257 39.8858L50.2057 41.8658C50.2057 41.8658 45.56 43.5201 40.3485 42.5773L35.42 43.0915C35.42 43.0915 27.92 46.8373 17.8828 43.2801C17.8742 43.2801 1.93996 41.2058 8.72853 35.8658Z" fill="#FFEB99"/>
<path d="M8.4628 35.6855C8.4628 35.6855 1.9228 40.3483 15.5942 42.4826C17.1971 42.7312 18.7999 43.0741 20.3514 43.5626C22.9399 44.3683 27.6371 45.2512 32.8399 43.4683C36.0714 42.3626 39.4914 42.0112 42.8942 42.3369C45.2514 42.5683 47.9171 42.4741 50.2828 41.5141C52.1428 40.7598 53.2914 40.0483 53.8828 38.7712C54.7571 36.9026 54.0799 35.4883 52.6142 34.1083C52.7171 33.2512 52.6742 32.6512 52.6742 32.6512V32.6341C52.6742 25.9569 42.6628 20.5483 30.3114 20.5483C17.9599 20.5483 7.94851 25.9569 7.94851 32.6341V32.6512C7.94851 32.6769 7.94851 32.7026 7.94851 32.7369C7.94851 33.7398 8.11994 34.7426 8.4628 35.6855Z" stroke="#8C730C" stroke-miterlimit="10" stroke-linecap="round" stroke-linejoin="round"/>
<path d="M28.34 24.2859C29.1069 24.2859 29.7286 23.9174 29.7286 23.463C29.7286 23.0085 29.1069 22.6401 28.34 22.6401C27.5731 22.6401 26.9514 23.0085 26.9514 23.463C26.9514 23.9174 27.5731 24.2859 28.34 24.2859Z" fill="#757577"/>
<path d="M28.34 29.4284C29.1069 29.4284 29.7286 29.06 29.7286 28.6056C29.7286 28.1511 29.1069 27.7827 28.34 27.7827C27.5731 27.7827 26.9514 28.1511 26.9514 28.6056C26.9514 29.06 27.5731 29.4284 28.34 29.4284Z" fill="#757577"/>
<path d="M31.1686 26.6086C31.9355 26.6086 32.5572 26.2402 32.5572 25.7857C32.5572 25.3313 31.9355 24.9629 31.1686 24.9629C30.4017 24.9629 29.78 25.3313 29.78 25.7857C29.78 26.2402 30.4017 26.6086 31.1686 26.6086Z" fill="#757577"/>
<path d="M26.0086 26.8742C26.7755 26.8742 27.3971 26.5058 27.3971 26.0514C27.3971 25.5969 26.7755 25.2285 26.0086 25.2285C25.2417 25.2285 24.62 25.5969 24.62 26.0514C24.62 26.5058 25.2417 26.8742 26.0086 26.8742Z" fill="#757577"/>
<path d="M36.4314 26.6257C37.1983 26.6257 37.82 26.2573 37.82 25.8028C37.82 25.3484 37.1983 24.98 36.4314 24.98C35.6645 24.98 35.0428 25.3484 35.0428 25.8028C35.0428 26.2573 35.6645 26.6257 36.4314 26.6257Z" fill="#757577"/>
<path d="M41.5228 26.6257C42.2897 26.6257 42.9114 26.2573 42.9114 25.8028C42.9114 25.3484 42.2897 24.98 41.5228 24.98C40.756 24.98 40.1343 25.3484 40.1343 25.8028C40.1343 26.2573 40.756 26.6257 41.5228 26.6257Z" fill="#757577"/>
<path d="M13.2629 35.1717C13.6653 35.1717 13.9914 34.692 13.9914 34.1002C13.9914 33.5085 13.6653 33.0288 13.2629 33.0288C12.8605 33.0288 12.5343 33.5085 12.5343 34.1002C12.5343 34.692 12.8605 35.1717 13.2629 35.1717Z" fill="#121212"/>
<path d="M16.3572 30.3456C16.3572 30.3456 18.3115 29.7199 19.9229 25.5542C20.1286 25.0227 21.0029 25.357 20.9943 25.9227C20.9772 27.097 20.8743 30.7056 18.5343 31.9742C18.5257 31.9656 17.6772 30.7227 16.3572 30.3456Z" fill="#FFEB99"/>
<path d="M16.6743 30.3286C16.6743 30.3286 18.2857 30.0458 19.5543 25.7515C19.7172 25.2115 20.6257 25.0143 20.9772 25.9229C21.4057 27.0201 20.8572 30.7058 18.5172 31.9743C18.5257 31.9658 17.8143 30.8943 16.6743 30.3286Z" stroke="#8C730C" stroke-miterlimit="10" stroke-linecap="round" stroke-linejoin="round"/>
</svg>
