<svg width="24" height="24" viewBox="0 0 24 24" fill="none" xmlns="http://www.w3.org/2000/svg">
<path d="M11.5 15.7916V17.9583M7.16667 11.4583V7.12496C7.16667 5.97569 7.62321 4.87349 8.43587 4.06083C9.24853 3.24817 10.3507 2.79163 11.5 2.79163C12.6493 2.79163 13.7515 3.24817 14.5641 4.06083C15.3768 4.87349 15.8333 5.97569 15.8333 7.12496M6.08333 21.2083H16.9167C17.204 21.2083 17.4795 21.0942 17.6827 20.891C17.8859 20.6878 18 20.4123 18 20.125V12.5416C18 12.2543 17.8859 11.9788 17.6827 11.7756C17.4795 11.5724 17.204 11.4583 16.9167 11.4583H6.08333C5.79602 11.4583 5.52047 11.5724 5.3173 11.7756C5.11414 11.9788 5 12.2543 5 12.5416V20.125C5 20.4123 5.11414 20.6878 5.3173 20.891C5.52047 21.0942 5.79602 21.2083 6.08333 21.2083Z" stroke="#121212" stroke-width="2" stroke-linecap="round" stroke-linejoin="round"/>
</svg>
