<svg width="61" height="61" viewBox="0 0 61 61" fill="none" xmlns="http://www.w3.org/2000/svg">
<path d="M32.5657 11.317L35.5743 17.4113C37.0486 20.4028 39.9028 22.477 43.2029 22.957L49.9229 23.9342C51.8171 24.2085 52.5714 26.5313 51.2 27.8685L46.3314 32.6085C43.94 34.9399 42.8514 38.2913 43.4171 41.5742L44.5657 48.2685C44.8914 50.1542 42.9114 51.5942 41.2143 50.7028L35.1971 47.5399C32.2486 45.9885 28.7171 45.9885 25.7686 47.5399L19.7514 50.7028C18.0543 51.5942 16.0828 50.1542 16.4 48.2685L17.5486 41.5742C18.1143 38.2828 17.0257 34.9313 14.6343 32.6085L9.76571 27.8685C8.39428 26.5313 9.14856 24.2085 11.0428 23.9342L17.7628 22.957C21.0628 22.477 23.9171 20.4028 25.3914 17.4113L28.4 11.317C29.2743 9.59419 31.7257 9.59419 32.5657 11.317Z" fill="#FF9F48"/>
<path d="M32.5657 11.317L35.5743 17.4113C37.0486 20.4028 39.9028 22.477 43.2028 22.957L49.9228 23.9342C51.8171 24.2085 52.5714 26.5313 51.2 27.8685L46.3314 32.6085C43.94 34.9399 42.8514 38.2913 43.4171 41.5742L44.5657 48.2685C44.8914 50.1542 42.9114 51.5942 41.2143 50.7028L35.1971 47.5399C32.2486 45.9885 28.7171 45.9885 25.7686 47.5399L19.7514 50.7028C18.0543 51.5942 16.0828 50.1542 16.4 48.2685L17.5486 41.5742C18.1143 38.2828 17.0257 34.9313 14.6343 32.6085L9.76571 27.8685C8.39428 26.5313 9.14856 24.2085 11.0428 23.9342L17.7628 22.957C21.0628 22.477 23.9171 20.4028 25.3914 17.4113L28.4 11.317C29.2743 9.59419 31.7257 9.59419 32.5657 11.317Z" stroke="#AA4D00" stroke-miterlimit="10" stroke-linecap="round" stroke-linejoin="round"/>
<path d="M34.0486 32.4285C34.451 32.4285 34.7772 31.9488 34.7772 31.3571C34.7772 30.7653 34.451 30.2856 34.0486 30.2856C33.6462 30.2856 33.32 30.7653 33.32 31.3571C33.32 31.9488 33.6462 32.4285 34.0486 32.4285Z" fill="#121212"/>
<path d="M26.6857 32.4285C27.0881 32.4285 27.4143 31.9488 27.4143 31.3571C27.4143 30.7653 27.0881 30.2856 26.6857 30.2856C26.2833 30.2856 25.9572 30.7653 25.9572 31.3571C25.9572 31.9488 26.2833 32.4285 26.6857 32.4285Z" fill="#121212"/>
<path d="M30.5 21.7398V17.1284" stroke="#AA4D00" stroke-miterlimit="10" stroke-linecap="round" stroke-linejoin="round"/>
<path d="M20.7971 28.6655L16.4086 27.2427" stroke="#AA4D00" stroke-miterlimit="10" stroke-linecap="round" stroke-linejoin="round"/>
<path d="M24.38 40.04L21.6714 43.7686" stroke="#AA4D00" stroke-miterlimit="10" stroke-linecap="round" stroke-linejoin="round"/>
<path d="M36.3114 40.1431L39.02 43.8716" stroke="#AA4D00" stroke-miterlimit="10" stroke-linecap="round" stroke-linejoin="round"/>
<path d="M40.0914 28.8286L44.4714 27.4058" stroke="#AA4D00" stroke-miterlimit="10" stroke-linecap="round" stroke-linejoin="round"/>
</svg>
