<svg width="24" height="24" viewBox="0 0 24 24" fill="none" xmlns="http://www.w3.org/2000/svg">
<path d="M5.25 5.35294L6.30075 19.9617C6.32093 20.2434 6.4477 20.507 6.65557 20.6997C6.86344 20.8923 7.13699 20.9996 7.42125 21H16.5765C16.861 20.9999 17.1348 20.8927 17.3429 20.7C17.551 20.5074 17.6779 20.2436 17.6981 19.9617L18.75 5.35294M12 10.9412V15.4118M21 5.35294H3M8.0625 5.35294L8.6745 3.52894C8.82372 3.08384 9.11013 2.69666 9.49315 2.42226C9.87618 2.14785 10.3364 2.00012 10.8086 2H13.1902C13.6627 1.99989 14.1231 2.14751 14.5064 2.42193C14.8896 2.69635 15.1762 3.08366 15.3255 3.52894L15.9375 5.35294" stroke="#121212" stroke-width="2" stroke-linecap="round" stroke-linejoin="round"/>
</svg>
