<svg width="46" height="45" viewBox="0 0 46 45" fill="none" xmlns="http://www.w3.org/2000/svg">
<path d="M23.6 38.2801C34.0216 38.2801 42.47 36.2206 42.47 33.6801C42.47 31.1396 34.0216 29.0801 23.6 29.0801C13.1784 29.0801 4.72998 31.1396 4.72998 33.6801C4.72998 36.2206 13.1784 38.2801 23.6 38.2801Z" fill="#1392FF"/>
<path d="M23.85 38.2801C34.2716 38.2801 42.72 36.2206 42.72 33.6801C42.72 31.1396 34.2716 29.0801 23.85 29.0801C13.4284 29.0801 4.97998 31.1396 4.97998 33.6801C4.97998 36.2206 13.4284 38.2801 23.85 38.2801Z" stroke="#0074DA" stroke-miterlimit="10"/>
<path d="M6.96997 32.6803C6.96997 32.6803 12.17 20.7903 33.79 26.3603C35.13 26.7003 36.39 27.2803 37.5 28.0803C39.69 29.6503 42.62 32.3703 39.6 34.1503C39.6 34.1503 37.27 35.6903 33.3 35.2303C31.73 35.0503 30.12 35.2203 28.68 35.8803C26.67 36.7903 23.14 37.6203 18.23 35.9303C18.07 35.8703 17.89 35.8103 17.73 35.7503C16.07 35.1403 14.46 34.5303 12.72 34.7203C9.92997 35.0503 5.92997 35.1103 6.96997 32.6803Z" fill="white"/>
<path d="M7.06 32.6803C7.06 32.6803 12.26 20.7903 33.88 26.3603C35.22 26.7003 36.48 27.2803 37.59 28.0803C39.78 29.6503 42.71 32.3703 39.69 34.1503C39.69 34.1503 37.36 35.6903 33.39 35.2303C31.82 35.0503 30.21 35.2203 28.77 35.8803C26.76 36.7903 23.23 37.6203 18.32 35.9303C18.16 35.8703 17.98 35.8103 17.82 35.7503C16.16 35.1403 14.55 34.5303 12.81 34.7203C10.02 35.0503 6.01 35.1103 7.06 32.6803Z" stroke="#A4A4A4" stroke-miterlimit="10"/>
<path d="M20.1499 30.7207C20.1199 30.7207 20.0899 30.7207 20.0599 30.7107C19.5999 30.6607 19.2599 30.2707 19.3099 29.8307L21.9999 5.00072C22.0499 4.56072 22.4599 4.24072 22.9199 4.28072C23.3799 4.33072 23.7199 4.72072 23.6699 5.16072L20.9799 30.0007C20.9399 30.4107 20.5799 30.7207 20.1499 30.7207Z" fill="#1392FF"/>
<path d="M20.3999 30.7407C20.3699 30.7407 20.3399 30.7407 20.3099 30.7307C19.8499 30.6807 19.5099 30.2907 19.5599 29.8507L22.2499 5.00072C22.2999 4.56072 22.7099 4.24072 23.1699 4.28072C23.6299 4.33072 23.9699 4.72072 23.9199 5.16072L21.2299 30.0107C21.1899 30.4307 20.8299 30.7407 20.3999 30.7407Z" stroke="#0074DA" stroke-miterlimit="10"/>
<path d="M35.13 17.8098C34.95 15.7898 33.12 7.64984 22.87 5.33984C22.87 5.33984 28.35 9.07984 28.07 16.9198C28.06 17.1998 28.18 17.4798 28.41 17.6398C29.43 18.3998 32.4 20.2798 34.76 18.6098C35.02 18.4198 35.15 18.1198 35.13 17.8098Z" fill="#1392FF"/>
<path d="M7.03996 13.7106C7.81996 11.8306 12.03 4.5906 22.52 5.3506C22.52 5.3506 16.16 7.3306 14.06 14.9006C13.99 15.1706 13.78 15.4006 13.51 15.4906C12.31 15.9206 8.90996 16.8606 7.14996 14.5706C6.95996 14.3306 6.91996 14.0006 7.03996 13.7106Z" fill="#1392FF"/>
<path d="M35.15 17.8098C34.97 15.7898 33.14 7.64984 22.89 5.33984C22.89 5.33984 28.37 9.07984 28.09 16.9198C28.08 17.1998 28.2 17.4798 28.43 17.6398C29.45 18.3998 32.42 20.2798 34.78 18.6098C35.03 18.4198 35.17 18.1198 35.15 17.8098Z" stroke="#0074DA" stroke-miterlimit="10" stroke-linecap="round" stroke-linejoin="round"/>
<path d="M7.05998 13.7106C7.83998 11.8306 12.05 4.5906 22.54 5.3506C22.54 5.3506 16.18 7.3306 14.08 14.9006C14.01 15.1706 13.8 15.4006 13.53 15.4906C12.33 15.9206 8.92998 16.8606 7.16998 14.5706C6.97998 14.3306 6.93998 14.0006 7.05998 13.7106Z" stroke="#0074DA" stroke-miterlimit="10" stroke-linejoin="round"/>
<path d="M23.4199 5.67002C24.4899 6.64002 27.8899 9.02002 28.1799 16.37C28.2099 17.15 27.6499 17.84 26.8699 18C24.2999 18.52 18.6699 19.2 14.6499 16.25C14.0499 15.81 13.8099 15.05 14.0699 14.36C14.9599 12.06 17.2099 7.20002 22.2199 5.43002C22.6199 5.29002 23.0899 5.38002 23.4199 5.67002Z" fill="white"/>
<path d="M23.44 5.60166C24.51 6.57166 27.91 8.95166 28.2 16.3017C28.23 17.0817 27.67 17.7717 26.89 17.9317C24.32 18.4517 18.69 19.1317 14.67 16.1817C14.07 15.7417 13.83 14.9817 14.09 14.2917C14.98 11.9917 17.23 7.13166 22.24 5.36166C22.64 5.22166 23.11 5.31166 23.44 5.60166Z" stroke="#A4A4A4" stroke-miterlimit="10"/>
<path d="M18.41 29.9707C18.41 29.9707 20.03 31.7107 22.48 29.9707" stroke="#A4A4A4" stroke-miterlimit="10" stroke-linecap="round"/>
</svg>
