<svg width="28" height="29" viewBox="0 0 28 29" fill="none" xmlns="http://www.w3.org/2000/svg">
<path d="M27.5 14.5C27.5 16.2728 27.1508 18.0283 26.4724 19.6662C25.7939 21.3041 24.7995 22.7923 23.5459 24.0459C22.2923 25.2995 20.8041 26.2939 19.1662 26.9724C17.5283 27.6508 15.7728 28 14 28C12.2272 28 10.4717 27.6508 8.83377 26.9724C7.19588 26.2939 5.70765 25.2995 4.45406 24.0459C3.20047 22.7923 2.20606 21.3041 1.52763 19.6662C0.849188 18.0283 0.5 16.2728 0.5 14.5C0.5 10.9196 1.92232 7.4858 4.45406 4.95406C6.9858 2.42232 10.4196 1 14 1C17.5804 1 21.0142 2.42232 23.5459 4.95406C26.0777 7.4858 27.5 10.9196 27.5 14.5Z" stroke="#A4A4A4" stroke-linecap="round" stroke-linejoin="round"/>
<path d="M9.5 20.5C10.775 19.555 12.3275 19 14 19C15.6725 19 17.225 19.555 18.5 20.5M8 8.5L12.5 10.75M15.5 10.75L20 8.5M10.25 12.25V11.5M17.75 12.25V11.5" stroke="#A4A4A4" stroke-linecap="round" stroke-linejoin="round"/>
</svg>
