<svg width="30" height="30" viewBox="0 0 30 30" fill="none" xmlns="http://www.w3.org/2000/svg">
<path d="M17.42 26.1094C17.18 26.1094 16.97 25.9394 16.93 25.6994C16.49 23.3594 16.05 21.0294 15.61 18.6894C15.58 18.5094 15.55 18.3894 15.52 18.2694C15.44 17.9994 15.4 17.9994 15.33 17.9994C15.24 17.9994 15.15 17.9994 15.09 18.2894C15 18.6894 14.93 19.0994 14.85 19.5094L13.68 25.7094C13.64 25.9494 13.43 26.1194 13.19 26.1194H11.04C10.9 26.1194 10.77 26.0594 10.68 25.9594C10.59 25.8594 10.54 25.7294 10.54 25.5894C10.56 25.1294 10.58 24.7494 10.59 24.3894C10.72 21.2394 10.94 17.9794 11.28 14.4094C11.45 12.5994 11.29 10.7494 11.13 8.95938L11.1 8.64937C11.09 8.49937 11.07 8.45937 11.06 8.43937C11.08 8.46938 11.05 8.49938 11 8.62938C10.39 10.2194 9.77003 11.7994 9.17003 13.3894C9.12003 13.5194 9.03003 13.6194 8.90003 13.6694C8.84003 13.6994 8.77003 13.7094 8.70003 13.7094C8.64003 13.7094 8.57003 13.6994 8.51003 13.6694L7.15003 13.1094C6.93003 13.0194 6.80003 12.7794 6.85003 12.5494C7.18003 10.9594 7.48003 9.76938 7.84003 8.65938C8.09003 7.89937 8.32003 7.20937 8.64003 6.52938C9.32003 5.02938 10.45 4.04938 11.99 3.62938C12.23 3.55938 12.47 3.48938 12.71 3.39938C12.93 3.31938 13.21 3.17938 13.28 2.93938C13.53 2.18938 14.07 2.10938 14.45 2.10938H14.6C14.85 2.11937 15.08 2.11937 15.32 2.11937L16.55 2.10938C16.91 2.10938 17.18 2.31938 17.27 2.66938C17.37 3.04938 17.63 3.28938 18.14 3.46938L18.31 3.52938C18.38 3.54938 18.44 3.57938 18.51 3.59938C20.32 4.05938 21.6 5.26937 22.29 7.17937C22.91 8.87937 23.41 10.6694 23.83 12.6394C23.88 12.8794 23.75 13.1094 23.53 13.2094L22.21 13.7494C22.15 13.7694 22.09 13.7894 22.02 13.7894C21.95 13.7894 21.89 13.7794 21.82 13.7494C21.7 13.6994 21.6 13.5994 21.55 13.4794C20.98 12.0494 20.31 10.3894 19.7 8.70938C19.67 8.63938 19.65 8.56938 19.62 8.49938C19.39 10.5494 19.19 12.8394 19.43 15.0994C19.69 17.4594 19.87 19.9794 19.98 22.5894C20.01 23.2594 20.05 23.9394 20.09 24.6094L20.15 25.5694C20.16 25.7094 20.11 25.8394 20.01 25.9394C19.91 26.0394 19.78 26.0994 19.65 26.0994H17.42V26.1094Z" fill="#CCCCCC"/>
<path d="M14.45 2.60937C14.49 2.60937 14.53 2.60937 14.58 2.60937C14.83 2.61937 15.08 2.62938 15.32 2.62938C15.69 2.62938 16.06 2.61937 16.43 2.61937C16.47 2.61937 16.51 2.61937 16.55 2.61937C16.65 2.61937 16.74 2.63937 16.79 2.80937C16.96 3.42937 17.42 3.74938 17.97 3.94938C18.1 3.98938 18.24 4.04938 18.37 4.08938C20.09 4.52938 21.19 5.64937 21.81 7.35938C22.45 9.11938 22.94 10.9194 23.33 12.7594L22.01 13.2994C21.38 11.7194 20.75 10.1494 20.17 8.54938C20.14 8.46938 20.11 8.38938 20.07 8.30938C19.97 8.08938 19.8 7.97937 19.59 7.97937C19.56 7.97937 19.52 7.97937 19.49 7.98937C19.2 8.02937 19.08 8.23938 19.06 8.49937C18.87 10.7194 18.69 12.9294 18.93 15.1694C19.2 17.6494 19.37 20.1394 19.48 22.6294C19.52 23.6294 19.59 24.6194 19.65 25.6194H17.42C16.98 23.2794 16.54 20.9494 16.1 18.6194C16.07 18.4694 16.04 18.3094 16 18.1494C15.9 17.7994 15.74 17.5094 15.33 17.5094C15.32 17.5094 15.32 17.5094 15.31 17.5094C14.88 17.5194 14.68 17.8094 14.6 18.1894C14.47 18.8094 14.36 19.4494 14.24 20.0694C13.89 21.9194 13.54 23.7694 13.19 25.6194H11.04C11.06 25.2194 11.08 24.8094 11.1 24.4094C11.23 21.0894 11.47 17.7694 11.78 14.4594C11.96 12.4994 11.77 10.5494 11.6 8.60937C11.57 8.31937 11.51 8.01937 11.14 7.97937C11.12 7.97937 11.1 7.97937 11.08 7.97937C10.77 7.97937 10.64 8.17937 10.53 8.45937C9.91997 10.0394 9.30997 11.6294 8.69997 13.2094L7.33997 12.6494C7.60997 11.3594 7.90997 10.0694 8.31997 8.81937C8.54997 8.10937 8.77997 7.41937 9.08997 6.74937C9.70997 5.38937 10.72 4.50937 12.12 4.11937C12.37 4.04937 12.63 3.96937 12.88 3.86937C13.27 3.72937 13.63 3.48937 13.75 3.09937C13.89 2.67937 14.13 2.60937 14.45 2.60937ZM14.45 1.60938C13.41 1.60938 12.98 2.24937 12.8 2.77937C12.79 2.79937 12.71 2.85938 12.54 2.92938C12.3 3.01938 12.07 3.08938 11.84 3.15938C10.16 3.61937 8.92997 4.68937 8.17997 6.33938C7.85997 7.03937 7.61997 7.73938 7.36997 8.51938C6.99997 9.63938 6.68997 10.8594 6.35997 12.4594C6.25997 12.9294 6.51997 13.4094 6.95997 13.5894L8.31997 14.1494C8.43997 14.1994 8.56997 14.2194 8.69997 14.2194C8.83997 14.2194 8.96997 14.1894 9.09997 14.1394C9.34997 14.0294 9.53997 13.8294 9.63997 13.5794C10.02 12.5894 10.4 11.6094 10.78 10.6194C10.87 11.8894 10.91 13.1294 10.8 14.3694C10.47 17.9494 10.24 21.2194 10.11 24.3694C10.1 24.7694 10.08 25.1694 10.05 25.5694C10.04 25.8394 10.13 26.1094 10.32 26.3094C10.51 26.5094 10.77 26.6194 11.05 26.6194H13.2C13.68 26.6194 14.09 26.2794 14.18 25.8094C14.36 24.8694 14.54 23.9294 14.71 22.9894C14.88 22.0794 15.05 21.1694 15.23 20.2594C15.26 20.1094 15.29 19.9594 15.31 19.8194C15.69 21.8294 16.06 23.8194 16.44 25.8094C16.53 26.2794 16.94 26.6194 17.42 26.6194H19.65C19.93 26.6194 20.19 26.5094 20.38 26.3094C20.57 26.1094 20.67 25.8394 20.65 25.5694L20.59 24.5894C20.55 23.9294 20.51 23.2694 20.48 22.5994C20.37 19.9894 20.18 17.4494 19.93 15.0794C19.77 13.5994 19.81 12.0994 19.9 10.6694C20.31 11.7294 20.72 12.7594 21.09 13.6894C21.19 13.9394 21.38 14.1294 21.63 14.2394C21.75 14.2894 21.89 14.3194 22.02 14.3194C22.15 14.3194 22.28 14.2994 22.4 14.2494L23.72 13.7094C24.17 13.5294 24.42 13.0494 24.32 12.5794C23.9 10.5794 23.39 8.76937 22.76 7.04938C22.01 4.96938 20.61 3.65938 18.62 3.14938C18.58 3.13938 18.53 3.11937 18.48 3.09937C18.41 3.07937 18.35 3.04937 18.28 3.02937C17.87 2.87937 17.79 2.72937 17.75 2.57937C17.59 2.00937 17.13 1.64937 16.55 1.64937H16.45C16.24 1.64937 16.05 1.64937 15.86 1.64937C15.68 1.64937 15.5 1.64937 15.31 1.64937C15.08 1.64937 14.85 1.64937 14.61 1.63937C14.56 1.60937 14.51 1.60938 14.45 1.60938Z" fill="#A4A4A4"/>
</svg>
