<svg width="246" height="54" viewBox="0 0 246 54" fill="none" xmlns="http://www.w3.org/2000/svg">
<path d="M0 8C0 3.58172 3.58172 0 8 0H226C230.418 0 234 3.58172 234 8V46C234 50.4183 230.418 54 226 54H8C3.58172 54 0 50.4183 0 46V8Z" fill="#333333"/>
<path d="M26.288 16.936V18.088H30.92V19.132H20.456V18.088H25.1V16.804C24.428 16.888 23.636 16.924 22.832 16.924H21.704V12.952H25.316V13.96H22.892V15.904H23.312C23.852 15.904 24.692 15.856 25.352 15.76L25.46 16.72H25.892V12.952H29.636V13.96H27.092V15.916H29.684V16.936H26.288ZM28.448 21.364H21.74V20.272H29.648V23.968H28.448V21.364ZM37.6669 16.936V18.088H42.2989V19.132H31.8349V18.088H36.4789V16.804C35.8069 16.888 35.0149 16.924 34.2109 16.924H33.0829V12.952H36.6949V13.96H34.2709V15.904H34.6909C35.2309 15.904 36.0709 15.856 36.7309 15.76L36.8389 16.72H37.2709V12.952H41.0149V13.96H38.4709V15.916H41.0629V16.936H37.6669ZM39.8269 21.364H33.1189V20.272H41.0269V23.968H39.8269V21.364ZM48.6392 16.948H55.3952V18.052H47.4392V13.24H48.6392V16.948ZM46.1552 19.636H56.6192V20.728H51.9872V23.98H50.7992V20.728H46.1552V19.636ZM66.1381 17.644H67.9981V18.736H63.3661V21.352H62.1781V18.736H57.5341V17.644H64.9261C65.1541 16.324 65.2981 14.932 65.2981 14.176V14.152H58.8181V13.06H66.4861V13.852C66.4861 14.944 66.3541 16.324 66.1381 17.644ZM58.8661 20.152H60.0661V22.768H66.8941V23.86H58.8661V20.152ZM77.829 16.9H79.557V17.992H77.829V23.848H76.629V12.712H77.829V16.9ZM73.389 14.68H69.321V13.588H74.589V14.572C74.589 17.728 72.813 20.464 69.813 22.516L69.069 21.568C71.889 19.72 73.389 17.164 73.389 14.812V14.68ZM91.5973 12.712H92.7853V18.784H91.5973V12.712ZM86.6653 18.352C84.9973 18.352 83.6773 17.5 83.6773 15.748V15.568C83.6773 13.804 84.9973 12.952 86.6653 12.952C88.3093 12.952 89.6413 13.804 89.6413 15.568V15.748C89.6413 17.5 88.3093 18.352 86.6653 18.352ZM84.8653 15.58V15.736C84.8653 16.78 85.6333 17.308 86.6653 17.308C87.6733 17.308 88.4293 16.78 88.4293 15.736V15.58C88.4293 14.524 87.6733 14.008 86.6653 14.008C85.6333 14.008 84.8653 14.524 84.8653 15.58ZM91.3813 21.172L93.7213 23.08L93.0133 23.968L90.8773 22.168C90.4453 22.804 89.8093 23.416 88.9213 23.968L86.8093 22.168C86.3653 22.792 85.7293 23.416 84.8293 23.968L84.1933 23.056C85.8013 22.012 86.3653 20.944 86.3653 19.984V19.432H87.5293V19.984C87.5293 20.368 87.4573 20.776 87.3133 21.172L88.9813 22.552C90.0493 21.676 90.4093 20.788 90.4093 19.984V19.432H91.5853V19.984C91.5853 20.368 91.5253 20.776 91.3813 21.172ZM97.2043 16.276H103.744V17.38H96.0043V12.952H97.2043V16.276ZM105.076 19.684H94.6123V18.58H105.076V19.684ZM103.972 23.848H96.0043V20.62H97.2043V22.732H103.972V23.848ZM114.355 16.696H111.139C110.263 17.74 108.835 18.556 106.999 19.168L106.531 18.112C109.255 17.224 110.827 15.832 110.935 14.392H106.783V13.3H112.159V13.948C112.159 14.56 112.039 15.112 111.811 15.628H114.355V12.712H115.543V19.636H114.355V16.696ZM112.207 21.004L116.239 22.84L115.747 23.908L111.535 21.928C110.731 22.768 109.459 23.464 107.875 23.968L107.431 22.912C109.735 22.12 111.271 21.052 111.271 19.768V19.216H112.507V19.768C112.507 20.2 112.399 20.608 112.207 21.004ZM129.227 12.712V14.8H130.955V15.904H129.227V18.148H128.027V12.712H129.227ZM125.987 13.24V13.804C125.987 16.132 124.043 17.536 120.887 18.376L120.479 17.332C123.071 16.648 124.631 15.532 124.787 14.308H120.719V13.24H125.987ZM129.227 21.832H123.287V22.888H129.575V23.908H122.099V18.844H129.227V19.84H123.287V20.848H129.227V21.832ZM140.606 16.9H142.334V17.992H140.606V23.848H139.406V12.712H140.606V16.9ZM134.678 13.24C136.262 13.24 137.558 14.296 137.558 16.972V18.664C137.558 21.34 136.262 22.396 134.678 22.396C133.07 22.396 131.774 21.34 131.774 18.664V16.972C131.774 14.296 133.07 13.24 134.678 13.24ZM136.37 18.652V16.984C136.37 15.04 135.626 14.332 134.678 14.332C133.718 14.332 132.974 15.04 132.974 16.984V18.652C132.974 20.584 133.718 21.304 134.678 21.304C135.626 21.304 136.37 20.584 136.37 18.652ZM149.177 19.252H147.437C145.433 19.252 144.149 17.968 144.149 16.252C144.149 14.572 145.433 13.288 147.437 13.288H149.177C151.181 13.288 152.465 14.572 152.465 16.252C152.465 17.968 151.181 19.252 149.177 19.252ZM148.961 14.356H147.641C146.201 14.356 145.349 15.148 145.349 16.264C145.349 17.392 146.201 18.184 147.641 18.184H148.961C150.413 18.184 151.277 17.392 151.277 16.264C151.277 15.148 150.413 14.356 148.961 14.356ZM150.869 19.888V21.916H153.533V23.008H143.069V21.916H145.745V19.888H146.921V21.916H149.705V19.888H150.869ZM155.54 23.38C155.084 23.38 154.712 23.02 154.712 22.564C154.712 22.108 155.084 21.736 155.54 21.736C155.996 21.736 156.356 22.108 156.356 22.564C156.356 23.02 155.996 23.38 155.54 23.38ZM158.622 23.38C158.166 23.38 157.794 23.02 157.794 22.564C157.794 22.108 158.166 21.736 158.622 21.736C159.078 21.736 159.438 22.108 159.438 22.564C159.438 23.02 159.078 23.38 158.622 23.38ZM29.48 34.008H31.1V35.1H29.48V40.848H28.28V29.712H29.48V34.008ZM24.32 30.984H26.936V31.98H20.48V30.984H23.108V29.724H24.32V30.984ZM24.38 37.02V38.316C25.364 38.256 26.42 38.16 27.356 38.052L27.488 39.096C25.82 39.324 23.696 39.456 22.112 39.456H20.348L20.288 38.388H22.208C22.496 38.388 22.82 38.376 23.18 38.364V37.032C21.908 36.876 20.984 36.156 20.984 34.944V34.764C20.984 33.396 22.184 32.652 23.732 32.652C25.244 32.652 26.444 33.396 26.444 34.764V34.944C26.444 36.12 25.568 36.828 24.38 37.02ZM22.16 34.776V34.932C22.16 35.676 22.832 36.108 23.732 36.108C24.596 36.108 25.28 35.676 25.28 34.932V34.776C25.28 34.044 24.596 33.612 23.732 33.612C22.832 33.612 22.16 34.044 22.16 34.776ZM40.1869 34.644H37.8469V35.928H32.3869V30.3H37.8469V31.284H40.1869V29.712H41.3869V38.052H40.1869V34.644ZM33.5509 34.872H36.6829V31.356H33.5509V34.872ZM40.1869 33.672V32.256H37.8469V33.672H40.1869ZM35.2189 37.356V39.756H41.8549V40.848H34.0189V37.356H35.2189ZM49.3458 33.408H47.5578C45.6978 33.408 44.4378 32.868 44.4378 31.572C44.4378 30.3 45.6978 29.772 47.5578 29.772H49.3458C51.2058 29.772 52.4538 30.3 52.4538 31.572C52.4538 32.868 51.2058 33.408 49.3458 33.408ZM47.7858 32.46H49.1178C50.5098 32.46 51.2658 32.172 51.2658 31.584C51.2658 30.996 50.5098 30.732 49.1178 30.732H47.7858C46.3938 30.732 45.6378 30.996 45.6378 31.584C45.6378 32.184 46.3938 32.46 47.7858 32.46ZM53.6778 35.184H43.2138V34.212H53.6778V35.184ZM52.6938 40.908H44.4978V38.004H51.2058V37.056H44.4378V36.108H52.4058V38.952H45.6978V39.924H52.6938V40.908ZM63.3661 36.48V38.916H67.9981V40.008H57.5341V38.916H62.1781V36.48H61.9021C59.8981 36.48 58.6141 35.112 58.6141 33.372C58.6141 31.644 59.8981 30.288 61.9021 30.288H63.6421C65.6461 30.288 66.9301 31.644 66.9301 33.372C66.9301 35.112 65.6461 36.48 63.6421 36.48H63.3661ZM59.8021 33.384C59.8021 34.56 60.6781 35.412 62.1181 35.412H63.4261C64.8661 35.412 65.7421 34.56 65.7421 33.384C65.7421 32.208 64.8661 31.368 63.4261 31.368H62.1181C60.6781 31.368 59.8021 32.208 59.8021 33.384ZM78.213 35.04H70.305V32.004H76.785V30.948H70.257V29.952H77.985V32.988H71.505V34.044H78.213V35.04ZM79.377 37.2H68.913V36.156H79.377V37.2ZM78.273 40.848H70.305V38.052H71.505V39.768H78.273V40.848ZM86.1239 34.032V35.208H90.7559V36.24H80.2919V35.208H84.9359V34.02L83.5079 32.928C83.1119 33.468 82.4999 33.972 81.5999 34.428L81.0599 33.528C82.4999 32.736 82.9919 31.884 83.0519 30.996H81.4559V29.952H85.2119V30.996H84.1799C84.1559 31.344 84.1079 31.68 83.9999 32.004L85.4999 33.12C86.4839 32.436 86.8439 31.74 86.8919 30.996H85.7999V29.952H89.5919V30.996H88.0199C87.9959 31.344 87.9359 31.668 87.8279 31.992L90.0119 33.588L89.3759 34.428L87.3359 32.916C87.0479 33.312 86.6519 33.684 86.1239 34.032ZM88.2839 38.46H81.5759V37.38H89.4839V40.968H88.2839V38.46ZM97.7668 36.6H96.0508C94.0348 36.6 92.7388 35.196 92.7388 33.432C92.7388 31.68 94.0348 30.288 96.0508 30.288H97.7668C99.7828 30.288 101.067 31.68 101.067 33.432C101.067 35.196 99.7828 36.6 97.7668 36.6ZM96.2548 35.52H97.5508C99.0028 35.52 99.8788 34.644 99.8788 33.444C99.8788 32.232 99.0028 31.368 97.5508 31.368H96.2548C94.8148 31.368 93.9388 32.232 93.9388 33.444C93.9388 34.644 94.8148 35.52 96.2548 35.52ZM102.135 40.008H91.6708V38.916H102.135V40.008ZM108.882 36.828V38.916H113.514V40.02H103.05V38.916H107.694V36.828H104.334V33.108H111.042V31.536H104.274V30.456H112.242V34.164H105.534V35.772H112.47V36.828H108.882ZM125.722 31.488V29.712H126.91V35.724H125.722V32.52H122.782V31.488H125.722ZM124.222 33.912L124.366 34.968C123.07 35.208 121.462 35.34 119.962 35.34H118.09V30.24H119.302V34.248H120.154C121.342 34.248 122.866 34.128 124.222 33.912ZM126.91 40.848H119.554V36.432H126.91V40.848ZM125.722 37.488H120.742V39.768H125.722V37.488ZM137.101 32.388V29.712H138.289V40.848H137.101V36.96H134.461V35.868H137.101V33.48H134.593C134.029 35.832 132.397 37.884 129.985 39.516L129.253 38.568C132.097 36.72 133.609 34.164 133.609 31.812V31.68H129.493V30.588H134.821V31.572C134.821 31.848 134.809 32.124 134.785 32.388H137.101ZM146.921 30.564H149.549V31.488H143.093V30.564H145.721V29.58H146.921V30.564ZM152.093 33.084H153.713V34.176H152.093V36.888H150.893V29.712H152.093V33.084ZM149.993 35.556L150.101 36.48C148.433 36.708 146.309 36.828 144.725 36.828H142.949L142.901 35.88H144.821C145.109 35.88 145.433 35.88 145.793 35.868V35.136C144.521 35.028 143.597 34.524 143.597 33.6V33.492C143.597 32.424 144.797 31.932 146.333 31.932C147.857 31.932 149.057 32.424 149.057 33.492V33.6C149.057 34.5 148.193 34.992 146.993 35.124V35.808C147.977 35.76 149.045 35.676 149.993 35.556ZM144.773 33.516V33.588C144.773 33.996 145.445 34.26 146.333 34.26C147.209 34.26 147.893 33.996 147.893 33.588V33.516C147.893 33.096 147.209 32.832 146.333 32.832C145.445 32.832 144.773 33.096 144.773 33.516ZM150.893 38.616H144.725V37.596H152.093V40.968H150.893V38.616ZM164 38.052H162.8V29.712H164V38.052ZM157.868 36.228C156.212 36.228 154.88 35.256 154.88 33.24V33.012C154.88 30.972 156.212 30.012 157.868 30.012C159.512 30.012 160.844 30.972 160.844 33.012V33.24C160.844 35.256 159.512 36.228 157.868 36.228ZM157.868 35.172C158.864 35.172 159.644 34.524 159.644 33.216V33.024C159.644 31.704 158.864 31.068 157.868 31.068C156.86 31.068 156.08 31.704 156.08 33.024V33.216C156.08 34.524 156.86 35.172 157.868 35.172ZM164.468 40.848H156.632V37.236H157.832V39.756H164.468V40.848ZM174.371 33.9V29.712H175.535V40.848H174.371V34.992H172.955V40.62H171.815V29.88H172.955V33.9H174.371ZM167.855 29.724H169.067V31.344H171.071V32.424H165.839V31.344H167.855V29.724ZM168.479 33.42C169.751 33.42 170.627 34.44 170.627 36.048V36.696C170.627 38.304 169.751 39.336 168.479 39.336C167.183 39.336 166.295 38.304 166.295 36.696V36.048C166.295 34.44 167.183 33.42 168.479 33.42ZM169.523 36.624V36.132C169.523 35.112 169.091 34.5 168.467 34.5C167.843 34.5 167.399 35.112 167.399 36.132V36.624C167.399 37.644 167.843 38.268 168.467 38.268C169.091 38.268 169.523 37.644 169.523 36.624ZM183.038 36.54V38.916H187.67V40.02H177.206V38.916H181.85V36.54H178.49V30.396H179.69V32.436H185.198V30.396H186.398V36.54H183.038ZM185.198 33.516H179.69V35.46H185.198V33.516ZM197.129 40.848V29.712H198.293V40.848H197.129ZM192.941 33.552H194.717V29.88H195.857V40.62H194.717V34.644H192.941V33.552ZM191.813 30.36V31.836C191.813 32.772 191.729 33.66 191.549 34.512L194.033 38.532L193.073 39.216L191.129 36.048C190.721 37.2 190.133 38.292 189.341 39.336L188.429 38.616C189.941 36.6 190.673 34.452 190.673 31.836V30.36H191.813ZM206.072 36.252H204.332C202.328 36.252 201.044 34.968 201.044 33.252C201.044 31.572 202.328 30.288 204.332 30.288H206.072C208.076 30.288 209.36 31.572 209.36 33.252C209.36 34.968 208.076 36.252 206.072 36.252ZM205.856 31.356H204.536C203.096 31.356 202.244 32.148 202.244 33.264C202.244 34.392 203.096 35.184 204.536 35.184H205.856C207.308 35.184 208.172 34.392 208.172 33.264C208.172 32.148 207.308 31.356 205.856 31.356ZM207.764 36.888V38.916H210.428V40.008H199.964V38.916H202.64V36.888H203.816V38.916H206.6V36.888H207.764ZM212.435 40.38C211.979 40.38 211.607 40.02 211.607 39.564C211.607 39.108 211.979 38.736 212.435 38.736C212.891 38.736 213.251 39.108 213.251 39.564C213.251 40.02 212.891 40.38 212.435 40.38Z" fill="white"/>
<path d="M243 25.2679C244.333 26.0377 244.333 27.9622 243 28.732L234 33.9282L234 20.0718L243 25.2679Z" fill="#333333"/>
</svg>
