<svg width="61" height="61" viewBox="0 0 61 61" fill="none" xmlns="http://www.w3.org/2000/svg">
<path d="M14.9 21.5342L22.6657 18.5685C22.6657 18.5685 33.9286 15.2342 40.6829 19.837" stroke="#933400" stroke-miterlimit="10" stroke-linecap="round" stroke-linejoin="round"/>
<path d="M45.4314 31.8628L39.1486 37.6742L41.4971 43.0742" stroke="#933400" stroke-miterlimit="10" stroke-linecap="round" stroke-linejoin="round"/>
<path d="M36.8257 35.1455L28.9485 38.4884L29.3257 44.3684" stroke="#933400" stroke-miterlimit="10" stroke-linecap="round" stroke-linejoin="round"/>
<path d="M41.3 30.5859L35.0085 36.3974L37.3571 41.8059" stroke="#933400" stroke-miterlimit="10" stroke-linecap="round" stroke-linejoin="round"/>
<path d="M34.4086 33.5859L26.7029 37.3059L27.3715 43.1602" stroke="#933400" stroke-miterlimit="10" stroke-linecap="round" stroke-linejoin="round"/>
<path d="M29.8229 34.7173L21.2772 35.1887L19.64 40.8459" stroke="#933400" stroke-miterlimit="10" stroke-linecap="round" stroke-linejoin="round"/>
<path d="M27.3029 33.02L18.7657 33.68L17.2486 39.3714" stroke="#933400" stroke-miterlimit="10" stroke-linecap="round" stroke-linejoin="round"/>
<path d="M47.1543 30.1914L55.7857 31.2885C56.4028 31.3657 56.48 32.2314 55.8886 32.4114L45.98 35.4971L47.1543 30.1914Z" fill="#FF794A"/>
<path d="M49.82 30.5601C49.82 30.5601 50.1029 33.9372 48.2257 34.5886L49.4771 34.2115C49.4771 34.2115 50.48 32.9343 50.5143 30.8772L49.82 30.5601Z" fill="#FFEBD2"/>
<path d="M47.1543 30.1914L55.7857 31.2885C56.4028 31.3657 56.48 32.2314 55.8886 32.4114L45.98 35.4971L47.1543 30.1914Z" stroke="#933400" stroke-miterlimit="10" stroke-linecap="round" stroke-linejoin="round"/>
<path d="M32.6429 30.1914C32.6429 30.1914 37.9229 25.7771 47.1543 30.1914C47.1543 30.1914 48.56 36.0028 42.5172 37.4343C42.5172 37.4343 34.0143 39.02 28.3829 35.42L32.6429 30.1914Z" fill="#FF794A"/>
<path d="M15.4858 22.4629C15.4858 22.4629 8.49926 17.8118 6.48584 20.0921" stroke="#933400" stroke-miterlimit="10" stroke-linecap="round" stroke-linejoin="round"/>
<path d="M16.4858 23.4629C16.4858 23.4629 11.6757 16.476 9.48584 16.4629" stroke="#933400" stroke-miterlimit="10" stroke-linecap="round" stroke-linejoin="round"/>
<path d="M40.4171 28.6914C40.4171 28.6914 40.6914 35.4971 35.6771 37.5628C35.6771 37.5628 40.2457 38.66 42.14 28.7428L40.4171 28.6914Z" fill="#FFEBD2"/>
<path d="M32.6429 30.1914C32.6429 30.1914 37.9229 25.7771 47.1543 30.1914C47.1543 30.1914 48.56 36.0028 42.5172 37.4343C42.5172 37.4343 34.0143 39.02 28.3829 35.42L32.6429 30.1914Z" stroke="#933400" stroke-miterlimit="10" stroke-linecap="round" stroke-linejoin="round"/>
<path d="M16.0143 21.5342L24.7057 21.5513C26.2228 21.5513 27.6714 22.2027 28.6828 23.3342L31.9657 27.0113C33.2943 28.5028 33.6885 30.6113 32.9685 32.4799C32.06 34.8628 29.4885 36.1485 27.0285 35.4885C24.4485 34.8028 21.3628 33.3113 19.4 30.0885C18.9285 29.3085 18.4228 28.5456 17.8743 27.8256C16.8628 26.5056 15.3714 24.3799 14.96 22.9485C14.7457 22.237 15.2771 21.5342 16.0143 21.5342Z" fill="#FF794A"/>
<path d="M32.6257 33.4486C32.6257 33.4486 33.2171 29.96 25.6143 25.52C25.6143 25.52 21.3971 23.3086 20.9514 21.2686L19.3143 21.8343C19.3143 21.8343 20.7114 24.2086 24.7486 26.1886C24.7486 26.1886 32.36 29.9171 31.6571 33.8686L32.6257 33.4486Z" fill="#FFEBD2"/>
<path d="M20.6923 24.6289C21.0243 24.1391 21.0234 23.559 20.6904 23.3332C20.3573 23.1074 19.8181 23.3215 19.4861 23.8113C19.154 24.3012 19.1549 24.8813 19.488 25.107C19.8211 25.3328 20.3603 25.1188 20.6923 24.6289Z" fill="#121212"/>
<path d="M16.0143 21.5342L24.7057 21.5513C26.2228 21.5513 27.6714 22.2027 28.6828 23.3342L31.9657 27.0113C33.2943 28.5028 33.6885 30.6113 32.9685 32.4799C32.06 34.8628 29.4885 36.1485 27.0285 35.4885C24.4485 34.8028 21.3628 33.3113 19.4 30.0885C18.9285 29.3085 18.4228 28.5456 17.8743 27.8256C16.8628 26.5056 15.3714 24.3799 14.96 22.9485C14.7457 22.237 15.2771 21.5342 16.0143 21.5342Z" stroke="#933400" stroke-miterlimit="10" stroke-linecap="round" stroke-linejoin="round"/>
</svg>
