<svg width="30" height="30" viewBox="0 0 30 30" fill="none" xmlns="http://www.w3.org/2000/svg">
<path d="M11.89 10.5511C11.64 10.5511 11.43 10.3711 11.39 10.1211L10.92 6.70109C10.89 6.50109 10.98 6.31109 11.15 6.20109C11.19 6.17109 12.21 5.51109 12.21 4.12109C12.21 3.84109 12.43 3.62109 12.71 3.62109H16.96C17.21 3.62109 17.42 3.80109 17.46 4.05109C17.62 5.16109 18.05 6.15109 18.28 6.15109C18.43 6.15109 18.58 6.22109 18.67 6.34109C18.77 6.46109 18.8 6.61109 18.77 6.76109L17.99 10.1611C17.94 10.3911 17.74 10.5511 17.5 10.5511H11.89Z" fill="#1392FF"/>
<path d="M16.96 4.13086C16.96 4.13086 17.31 6.66086 18.27 6.66086L17.49 10.0609H11.89L11.41 6.64086C11.41 6.64086 12.71 5.84086 12.71 4.14086H16.96M16.96 3.13086H12.71C12.16 3.13086 11.71 3.58086 11.71 4.13086C11.71 5.23086 10.91 5.77086 10.87 5.79086C10.55 6.00086 10.36 6.39086 10.41 6.77086L10.89 10.1909C10.96 10.6809 11.38 11.0509 11.88 11.0509H17.48C17.95 11.0509 18.35 10.7309 18.45 10.2709L19.23 6.87086C19.3 6.57086 19.23 6.26086 19.04 6.02086C18.89 5.83086 18.69 5.71086 18.46 5.66086C18.27 5.40086 18.03 4.63086 17.94 3.97086C17.88 3.49086 17.46 3.13086 16.96 3.13086Z" fill="#0074DA"/>
<path d="M14.7899 8.15153C14.7999 9.28153 14.7999 10.4015 14.7999 11.5215C14.7999 12.6815 14.7999 13.8315 14.7999 14.9915M14.7899 8.03153C13.7999 7.67153 12.2499 6.70153 11.6699 5.83153C11.6099 5.74153 11.5599 5.61153 11.4099 5.67153C10.4699 6.03153 9.48994 6.27153 8.85994 7.15153C8.33994 7.90153 7.87994 8.68153 7.53994 9.53153C6.74994 11.5315 6.16994 13.6015 5.56994 15.6615C5.46994 16.0115 5.17994 16.4315 5.34994 16.7115C5.50994 16.9715 5.97994 17.0415 6.30994 17.2015C6.51994 17.3115 6.63994 17.3115 6.75994 17.0615C7.69994 14.9715 8.76994 12.9415 9.59994 10.8015C9.71994 10.5115 9.87994 10.3015 10.2299 10.3415C10.5799 10.3815 10.6799 10.6315 10.7099 10.9115C10.8299 12.1315 10.9999 13.3515 10.8599 14.5815C10.6699 16.3915 10.4099 18.2015 10.1899 20.0015C9.89994 22.2615 9.76994 24.5415 9.76994 26.8215C9.76994 27.0315 9.79994 27.1315 10.0399 27.1315C10.6899 27.1215 11.3399 27.1215 11.9799 27.1315C12.1699 27.1315 12.2499 27.0715 12.2999 26.8715C12.7499 25.2415 13.2199 23.6215 13.6799 21.9915C13.8599 21.3515 14.0199 20.7015 14.2099 20.0615C14.2999 19.7715 14.3599 19.4215 14.7899 19.4215C15.2399 19.4215 15.2799 19.7815 15.3899 20.0815C15.3999 20.0915 15.3999 20.1115 15.3999 20.1215C15.9299 22.3815 16.6499 24.5815 17.2799 26.8115C17.3399 27.0515 17.4499 27.1215 17.6899 27.1215C18.2899 27.1115 18.8999 27.1015 19.4999 27.1215C19.7699 27.1315 19.8699 27.0715 19.8699 26.7715C19.8499 23.2315 19.4899 19.7215 18.9099 16.2315C18.6099 14.4515 18.6799 12.6815 18.8799 10.9115C18.9099 10.6315 19.0099 10.3715 19.3499 10.3315C19.6699 10.2915 19.8499 10.4815 19.9499 10.7615C20.6799 12.6615 21.6099 14.4715 22.4899 16.3115C22.6499 16.6515 22.7099 17.1415 23.0099 17.2515C23.3499 17.3915 23.6899 16.9715 24.0499 16.8515C24.3299 16.7615 24.3599 16.6015 24.2799 16.3415C23.6999 14.5115 23.1399 12.6715 22.5499 10.8515C22.2199 9.86153 21.7799 8.92153 21.2899 8.00153C20.6399 6.77153 19.5999 6.07153 18.2799 5.71153C18.0899 5.66153 17.9999 5.67153 17.8999 5.84153C16.8699 7.10153 14.7899 8.03153 14.7899 8.03153Z" fill="#1392FF"/>
<path d="M14.7899 8.15153C14.7999 9.28153 14.7999 10.4015 14.7999 11.5215C14.7999 12.6815 14.7999 13.8315 14.7999 14.9915M14.7899 8.03153C13.7999 7.67153 12.2499 6.70153 11.6699 5.83153C11.6099 5.74153 11.5599 5.61153 11.4099 5.67153C10.4699 6.03153 9.48994 6.27153 8.85994 7.15153C8.33994 7.90153 7.87994 8.68153 7.53994 9.53153C6.74994 11.5315 6.16994 13.6015 5.56994 15.6615C5.46994 16.0115 5.17994 16.4315 5.34994 16.7115C5.50994 16.9715 5.97994 17.0415 6.30994 17.2015C6.51994 17.3115 6.63994 17.3115 6.75994 17.0615C7.69994 14.9715 8.76994 12.9415 9.59994 10.8015C9.71994 10.5115 9.87994 10.3015 10.2299 10.3415C10.5799 10.3815 10.6799 10.6315 10.7099 10.9115C10.8299 12.1315 10.9999 13.3515 10.8599 14.5815C10.6699 16.3915 10.4099 18.2015 10.1899 20.0015C9.89994 22.2615 9.76994 24.5415 9.76994 26.8215C9.76994 27.0315 9.79994 27.1315 10.0399 27.1315C10.6899 27.1215 11.3399 27.1215 11.9799 27.1315C12.1699 27.1315 12.2499 27.0715 12.2999 26.8715C12.7499 25.2415 13.2199 23.6215 13.6799 21.9915C13.8599 21.3515 14.0199 20.7015 14.2099 20.0615C14.2999 19.7715 14.3599 19.4215 14.7899 19.4215C15.2399 19.4215 15.2799 19.7815 15.3899 20.0815C15.3999 20.0915 15.3999 20.1115 15.3999 20.1215C15.9299 22.3815 16.6499 24.5815 17.2799 26.8115C17.3399 27.0515 17.4499 27.1215 17.6899 27.1215C18.2899 27.1115 18.8999 27.1015 19.4999 27.1215C19.7699 27.1315 19.8699 27.0715 19.8699 26.7715C19.8499 23.2315 19.4899 19.7215 18.9099 16.2315C18.6099 14.4515 18.6799 12.6815 18.8799 10.9115C18.9099 10.6315 19.0099 10.3715 19.3499 10.3315C19.6699 10.2915 19.8499 10.4815 19.9499 10.7615C20.6799 12.6615 21.6099 14.4715 22.4899 16.3115C22.6499 16.6515 22.7099 17.1415 23.0099 17.2515C23.3499 17.3915 23.6899 16.9715 24.0499 16.8515C24.3299 16.7615 24.3599 16.6015 24.2799 16.3415C23.6999 14.5115 23.1399 12.6715 22.5499 10.8515C22.2199 9.86153 21.7799 8.92153 21.2899 8.00153C20.6399 6.77153 19.5999 6.07153 18.2799 5.71153C18.0899 5.66153 17.9999 5.67153 17.8999 5.84153C16.8699 7.10153 14.7899 8.03153 14.7899 8.03153Z" stroke="#0074DA" stroke-miterlimit="10" stroke-linecap="round" stroke-linejoin="round"/>
</svg>
