<svg width="30" height="31" viewBox="0 0 30 31" fill="none" xmlns="http://www.w3.org/2000/svg">
<path d="M9.51025 17.3788L15.4003 11.7588L23.7203 24.5888C24.1803 25.3088 24.0803 26.2788 23.4603 26.8788L23.3803 26.9588C22.7603 27.5488 21.8203 27.5788 21.1603 27.0388L9.51025 17.3788Z" fill="#CCCCCC" stroke="#A4A4A4" stroke-miterlimit="10" stroke-linecap="round" stroke-linejoin="round"/>
<path d="M13.3223 15.5116C14.9398 13.9507 15.7878 12.2053 15.2164 11.6131C14.645 11.021 12.8705 11.8063 11.253 13.3672C9.63547 14.928 8.78745 16.6734 9.35887 17.2656C9.9303 17.8577 11.7048 17.0724 13.3223 15.5116Z" stroke="#A4A4A4" stroke-miterlimit="9.9997" stroke-linecap="round" stroke-linejoin="round"/>
<path d="M13.3223 15.5116C14.9398 13.9507 15.7878 12.2053 15.2164 11.6131C14.645 11.021 12.8705 11.8063 11.253 13.3672C9.63547 14.928 8.78745 16.6734 9.35887 17.2656C9.9303 17.8577 11.7048 17.0724 13.3223 15.5116Z" fill="#A4A4A4"/>
<path d="M15.1202 11.5289C10.8702 7.57893 6.04019 7.39893 6.04019 7.39893C5.61019 11.6989 9.25019 17.1289 9.25019 17.1289" stroke="#A4A4A4" stroke-miterlimit="10" stroke-linecap="round" stroke-linejoin="round"/>
<path d="M14.2202 21.279C14.2202 21.279 17.4902 21.189 18.7602 16.939L14.2202 21.279Z" fill="#CCCCCC"/>
<path d="M14.2202 21.279C14.2202 21.279 17.4902 21.189 18.7602 16.939" stroke="#A4A4A4" stroke-miterlimit="10" stroke-linecap="round" stroke-linejoin="round"/>
<path d="M18.7803 24.989C18.7803 24.989 21.1103 24.999 21.9403 21.979L18.7803 24.989Z" fill="#CCCCCC"/>
<path d="M18.7803 24.989C18.7803 24.989 21.1103 24.999 21.9403 21.979" stroke="#A4A4A4" stroke-miterlimit="10" stroke-linecap="round" stroke-linejoin="round"/>
<path d="M6.02002 2.90869V27.9087" stroke="#A4A4A4" stroke-miterlimit="10" stroke-linecap="round" stroke-linejoin="round"/>
</svg>
