<svg width="61" height="61" viewBox="0 0 61 61" fill="none" xmlns="http://www.w3.org/2000/svg">
<path d="M53.7629 24.0373C53.2914 22.8201 51.7314 22.4687 50.7543 23.3344L47.2829 26.403C48.0543 24.5687 48.0629 22.1944 47 20.7544C45.8 19.1344 44.8229 18.6544 42.0714 17.8573C38.66 17.1116 34.3829 16.8287 29.5914 16.6744C28.4429 16.6401 27.32 16.6316 26.24 16.6487C26.24 16.6487 25.9657 16.6401 25.4943 16.6659C22.6143 16.8287 12.2343 18.3544 10.9914 31.6744C10.9914 31.6744 10.8371 33.723 9.85143 35.3687C9.48286 35.9773 8.98572 36.5173 8.35143 36.8944C8.25715 37.1687 8.23143 37.5287 8.37715 37.9487C9.02858 38.3516 9.86001 38.9516 10.5971 39.723C10.6571 39.7916 10.7257 39.843 10.7857 39.9116C12.4143 41.7201 14.6086 42.9544 16.9829 43.503C17.0686 43.5201 17.2914 43.563 17.3771 43.5801C18.7571 43.7944 20.1286 43.9658 21.7229 44.103C23.7714 44.283 25.9914 44.3858 28.3571 44.3516C33.6971 44.2744 38.4029 43.9059 41.9771 42.7316C45.3886 41.6087 48.8086 40.9573 47.6429 35.6087C48.68 36.5173 49.7171 37.4259 50.7629 38.343C51.7486 39.2001 53.2914 38.8487 53.7714 37.6316C54.4486 35.8916 55.0743 33.5087 55.0486 30.663C55.0143 27.963 54.4143 25.7087 53.7629 24.0373Z" fill="#FFEB99"/>
<path d="M24.3629 33.0886C24.3629 33.0886 27.5257 29.1457 30.3971 29.2486C31.6743 29.2914 32.7029 30.5514 32.7029 32C32.7029 33.1486 32.2914 34.7257 30.7143 36.5086C30.2 37.0914 29.4714 37.3914 28.7429 37.3057C27.4057 37.1343 25.3057 36.3371 24.3629 33.0886Z" fill="white"/>
<path d="M24.3629 32.8745C24.3629 32.8745 31.4429 26.2488 32.3343 30.9031C32.6771 32.6859 32.2314 34.5716 31.1343 35.9774C30.08 37.3402 28.2971 38.3174 25.9229 35.9259" stroke="#8C730C" stroke-miterlimit="10" stroke-linecap="round" stroke-linejoin="round"/>
<path d="M18.6457 18.3545C18.6457 18.3545 24.5771 34.1002 18.6457 43.5031L17.8314 43.4259V18.9545L18.6457 18.3545Z" fill="white"/>
<path d="M17.0172 20.3257L16.94 43.2628L11.1629 40.6228L8.37715 37.9485L8.35144 36.8943L9.85144 35.3685L11.4029 29.8228L13.4772 23.5828L17.0172 20.3257Z" fill="white"/>
<path d="M50.7543 23.3343C50.7543 23.3343 54.68 30.4229 50.7543 38.3429L52.4943 38.7543L53.7543 37.6315L55.0314 30.6629L53.7543 24.0458L52.4171 22.9058L50.7543 23.3343Z" fill="white"/>
<path d="M13.7514 22.8798C13.7514 22.8798 16.7 35.0855 13.6486 42.5255L17.66 43.4255C17.66 43.4255 21.3371 34.1255 17.66 18.9541L13.7514 22.8798Z" fill="#757577"/>
<path d="M14.9772 34.3142C15.3795 34.3142 15.7057 33.8345 15.7057 33.2428C15.7057 32.6511 15.3795 32.1714 14.9772 32.1714C14.5748 32.1714 14.2486 32.6511 14.2486 33.2428C14.2486 33.8345 14.5748 34.3142 14.9772 34.3142Z" fill="#121212"/>
<path d="M53.7629 24.0373C53.2914 22.8201 51.7314 22.4687 50.7543 23.3344L47.2829 26.403C48.0543 24.5687 48.0629 22.1944 47 20.7544C45.8 19.1344 44.8229 18.6544 42.0714 17.8573C38.66 17.1116 34.3829 16.8287 29.5914 16.6744C28.4429 16.6401 27.32 16.6316 26.24 16.6487C26.24 16.6487 25.9657 16.6401 25.4943 16.6659C22.6143 16.8287 12.2343 18.3544 10.9914 31.6744C10.9914 31.6744 10.8371 33.723 9.85143 35.3687C9.48286 35.9773 8.98572 36.5173 8.35143 36.8944C8.25715 37.1687 8.23143 37.5287 8.37715 37.9487C9.02858 38.3516 9.86001 38.9516 10.5971 39.723C10.6571 39.7916 10.7257 39.843 10.7857 39.9116C12.4143 41.7201 14.6086 42.9544 16.9829 43.503C17.0686 43.5201 17.2914 43.563 17.3771 43.5801C18.7571 43.7944 20.1286 43.9658 21.7229 44.103C23.7714 44.283 25.9914 44.3858 28.3571 44.3516C33.6971 44.2744 38.4029 43.9059 41.9771 42.7316C45.3886 41.6087 48.8086 40.9573 47.6429 35.6087C48.68 36.5173 49.7171 37.4259 50.7629 38.343C51.7486 39.2001 53.2914 38.8487 53.7714 37.6316C54.4486 35.8916 55.0743 33.5087 55.0486 30.663C55.0143 27.963 54.4143 25.7087 53.7629 24.0373Z" stroke="#8C730C" stroke-miterlimit="10" stroke-linecap="round" stroke-linejoin="round"/>
</svg>
