<svg width="61" height="61" viewBox="0 0 61 61" fill="none" xmlns="http://www.w3.org/2000/svg">
<path d="M44.42 35.017L48.4314 36.3113C50.06 36.8342 51.8171 36.0884 52.6828 34.5027C54.2857 31.5713 53.7971 29.077 52.9143 27.337C52.0486 25.6227 50.1286 24.8856 48.4314 25.5542L44.5828 27.0713" fill="#FFEB99"/>
<path d="M44.42 35.017L48.4314 36.3113C50.06 36.8342 51.8171 36.0884 52.6828 34.5027C54.2857 31.5713 53.7971 29.077 52.9143 27.337C52.0486 25.6227 50.1286 24.8856 48.4314 25.5542L44.5828 27.0713" stroke="#8C730C" stroke-miterlimit="10"/>
<path d="M29.6943 48.5342C39.8579 48.5342 48.0972 40.295 48.0972 30.1314C48.0972 19.9678 39.8579 11.7285 29.6943 11.7285C19.5307 11.7285 11.2914 19.9678 11.2914 30.1314C11.2914 40.295 19.5307 48.5342 29.6943 48.5342Z" fill="white"/>
<path d="M11.2914 30.1313C11.2914 30.1313 29.5572 38.2399 48.0972 30.1313C48.0972 30.1313 48.7314 14.7627 30.6114 11.7541C30.6114 11.7541 13.5286 10.2799 11.2914 30.1313Z" fill="#FFEB99"/>
<path d="M17.3771 28.6829C17.7795 28.6829 18.1057 28.2032 18.1057 27.6115C18.1057 27.0197 17.7795 26.54 17.3771 26.54C16.9748 26.54 16.6486 27.0197 16.6486 27.6115C16.6486 28.2032 16.9748 28.6829 17.3771 28.6829Z" fill="#121212"/>
<path d="M29.6943 48.5342C39.8579 48.5342 48.0972 40.295 48.0972 30.1314C48.0972 19.9678 39.8579 11.7285 29.6943 11.7285C19.5307 11.7285 11.2914 19.9678 11.2914 30.1314C11.2914 40.295 19.5307 48.5342 29.6943 48.5342Z" stroke="#8C730C" stroke-miterlimit="10"/>
<path d="M27.9886 33.7485C28.3743 33.6713 30.1486 33.2856 31.3314 31.597C32.3343 30.1742 32.3086 28.6999 32.2829 28.2456C33.2772 28.5027 34.2629 28.7513 35.2572 29.0085C36.8086 29.4027 37.8543 30.757 37.8029 32.3342C37.7514 33.8942 37.04 35.7713 34.4 37.0142C32.9429 37.6999 31.2372 37.3485 30.2172 36.2256L27.9886 33.7485Z" fill="#FFEB99"/>
<path d="M32.2829 28.2456C32.2829 28.2456 40.3829 28.2542 37.0914 34.6827C36.9372 34.9742 36.7486 35.257 36.5343 35.5142C35.4457 36.7913 32.0257 39.8256 27.9886 33.757" stroke="#8C730C" stroke-miterlimit="10" stroke-linecap="round"/>
<path d="M10.3743 28.8286C10.3743 28.8286 6.94571 29.8143 9.86 32.3C9.86 32.3 7.41714 35 11.0686 35.4715C11.0771 35.4715 15.4571 31.76 10.3743 28.8286Z" fill="white"/>
<path d="M9.02856 29.6341C8.53142 30.1912 8.40285 31.0569 9.86856 32.3084C9.86856 32.3084 8.19713 34.1512 9.68856 35.0598C10.46 35.5227 11.4114 35.2569 11.9686 34.4855C12.8086 33.3198 13.64 31.3141 11.3428 29.4798C10.6314 28.9141 9.63713 28.9398 9.02856 29.6341Z" stroke="#8C730C" stroke-miterlimit="10" stroke-linejoin="round"/>
<path d="M45.1229 40.9741L46.3657 41.9084" stroke="#8C730C" stroke-miterlimit="10" stroke-linecap="round"/>
<path d="M44.6943 19.0143L45.9714 18.1143" stroke="#8C730C" stroke-miterlimit="10" stroke-linecap="round"/>
<path d="M35.2228 12.4059L35.7286 10.9316" stroke="#8C730C" stroke-miterlimit="10" stroke-linecap="round"/>
<path d="M23.6772 12.6286L23.2143 11.1372" stroke="#8C730C" stroke-miterlimit="10" stroke-linecap="round"/>
<path d="M14.4628 19.5974L13.22 18.6631" stroke="#8C730C" stroke-miterlimit="10" stroke-linecap="round"/>
<path d="M14.8914 41.5571L13.6143 42.4571" stroke="#8C730C" stroke-miterlimit="10" stroke-linecap="round"/>
<path d="M24.3628 48.1655L23.8571 49.6398" stroke="#8C730C" stroke-miterlimit="10" stroke-linecap="round"/>
<path d="M35.9086 47.9429L36.3714 49.4343" stroke="#8C730C" stroke-miterlimit="10" stroke-linecap="round"/>
<path d="M50.5228 33.7573L52.5114 34.6745" stroke="#8C730C" stroke-miterlimit="10" stroke-linecap="round"/>
<path d="M52.5114 27.1914L50.5228 28.0314" stroke="#8C730C" stroke-miterlimit="10" stroke-linecap="round"/>
<path d="M53.72 30.9369L51.0114 30.894" stroke="#8C730C" stroke-miterlimit="10" stroke-linecap="round"/>
<path d="M35.0857 18.2517C35.9236 18.2517 36.6029 17.8487 36.6029 17.3517C36.6029 16.8546 35.9236 16.4517 35.0857 16.4517C34.2478 16.4517 33.5686 16.8546 33.5686 17.3517C33.5686 17.8487 34.2478 18.2517 35.0857 18.2517Z" fill="#DDC458"/>
<path d="M38.1028 20.7888C38.9407 20.7888 39.62 20.3858 39.62 19.8888C39.62 19.3917 38.9407 18.9888 38.1028 18.9888C37.2649 18.9888 36.5857 19.3917 36.5857 19.8888C36.5857 20.3858 37.2649 20.7888 38.1028 20.7888Z" fill="#DDC458"/>
<path d="M32.8486 21.0544C33.6865 21.0544 34.3657 20.6515 34.3657 20.1544C34.3657 19.6573 33.6865 19.2544 32.8486 19.2544C32.0107 19.2544 31.3314 19.6573 31.3314 20.1544C31.3314 20.6515 32.0107 21.0544 32.8486 21.0544Z" fill="#DDC458"/>
</svg>
