<svg width="61" height="61" viewBox="0 0 61 61" fill="none" xmlns="http://www.w3.org/2000/svg">
<path d="M8.50571 29.0427C10.8629 26.9341 21.2086 21.9198 43.5286 25.9827C48.74 26.9341 50.2657 28.0827 52.46 29.1198C53.7543 29.7284 53.9086 31.6741 52.5286 32.0941C43.7943 34.7512 22.6229 39.8855 8.49714 32.497C7.06571 31.7341 7.31428 30.1141 8.50571 29.0427Z" fill="#A6E0F4"/>
<path d="M7.42571 30.3115C7.42571 30.3115 53.5229 30.723 53.5057 30.6715C53.5057 30.6715 53.8486 29.6087 52.4686 28.8887C48.2514 26.6772 42.2771 23.9944 25.0057 24.5001C24.0114 24.5258 20.96 24.8172 19.9829 24.9201C15.8171 25.3744 7.37428 27.7144 7.42571 30.3115Z" fill="#FFEB99"/>
<path d="M7.69146 29.6002C7.69146 29.6002 18.8343 25.0316 53.5057 30.6802C53.5057 30.6802 38.78 32.163 7.79432 31.7516C7.79432 31.743 7.00575 30.6716 7.69146 29.6002Z" fill="#757577"/>
<path d="M14.4457 31.1599C14.8481 31.1599 15.1743 30.6803 15.1743 30.0885C15.1743 29.4968 14.8481 29.0171 14.4457 29.0171C14.0434 29.0171 13.7172 29.4968 13.7172 30.0885C13.7172 30.6803 14.0434 31.1599 14.4457 31.1599Z" fill="#121212"/>
<path d="M8.50571 29.0427C10.8629 26.9341 21.2086 21.9198 43.5286 25.9827C48.74 26.9341 50.2657 28.0827 52.46 29.1198C53.7543 29.7284 53.9086 31.6741 52.5286 32.0941C43.7943 34.7512 22.6229 39.8855 8.49714 32.497C7.06571 31.7341 7.31428 30.1141 8.50571 29.0427Z" stroke="#4384A8" stroke-miterlimit="10" stroke-linejoin="round"/>
</svg>
