<svg width="58" height="58" viewBox="0 0 58 58" fill="none" xmlns="http://www.w3.org/2000/svg">
<path d="M32.01 11.0808H23.72C23.59 11.0808 23.47 11.1008 23.35 11.1208C21.13 11.4208 19.42 13.2908 19.42 15.5608C19.42 18.0408 20.91 19.5108 23.42 19.5108C24.83 19.5108 25.59 18.5808 26.33 17.5308C27.17 16.3508 28.72 16.3508 29.63 17.5308C30.42 18.5508 31.27 19.5108 32.54 19.5108C35.79 19.5108 37.7 16.6708 35.97 13.2808C35.23 11.8308 33.65 10.9908 32.01 11.0808Z" stroke="#1392FF" stroke-miterlimit="10" stroke-linecap="round"/>
<path d="M28.02 21.3991C29.1246 21.3991 30.02 20.3291 30.02 19.0091C30.02 17.6892 29.1246 16.6191 28.02 16.6191C26.9154 16.6191 26.02 17.6892 26.02 19.0091C26.02 20.3291 26.9154 21.3991 28.02 21.3991Z" fill="#1392FF" stroke="#1392FF" stroke-miterlimit="10" stroke-linecap="round"/>
<path d="M28.02 21.7203V23.1003C28.07 25.8403 30.42 26.9303 33.3 26.9303C36.18 26.9303 38.52 25.8403 38.57 23.1003V9.07031" stroke="#1392FF" stroke-miterlimit="10" stroke-linecap="round"/>
<path d="M22.3956 37.418C22.4983 37.334 22.6056 37.292 22.7176 37.292C22.8389 37.292 22.9369 37.3293 23.0116 37.404C23.0863 37.488 23.1423 37.572 23.1796 37.656C23.2263 37.7587 23.2683 37.922 23.3056 38.146L23.4456 38.748L23.4876 38.86L23.5296 39.056L23.5716 39.21L23.8936 40.4C23.9216 40.5307 23.9636 40.6893 24.0196 40.876L24.1316 41.324L24.1876 41.576C24.3836 42.2853 24.5563 42.8453 24.7056 43.256C24.8269 43.592 24.8876 43.7787 24.8876 43.816C24.8876 43.8253 24.9109 43.83 24.9576 43.83C24.9856 43.83 25.1256 43.508 25.3776 42.864C25.6296 42.2293 25.7836 41.8 25.8396 41.576C25.9236 41.212 26.1103 40.708 26.3996 40.064L26.7636 39.182C26.9036 38.8273 26.9736 38.6407 26.9736 38.622C26.9736 38.566 26.9876 38.5333 27.0156 38.524C27.0436 38.5147 27.0716 38.44 27.0996 38.3C27.1276 38.16 27.1929 37.978 27.2956 37.754C27.3983 37.5487 27.4823 37.4273 27.5476 37.39C27.6689 37.3153 27.7716 37.278 27.8556 37.278C27.9676 37.278 28.0749 37.3387 28.1776 37.46C28.2616 37.5627 28.3129 37.6513 28.3316 37.726C28.4716 38.4167 28.5603 38.9207 28.5976 39.238L28.6816 39.798C28.7096 40.05 28.7283 40.1853 28.7376 40.204L28.7936 40.554C28.8029 40.7313 28.8169 40.848 28.8356 40.904C28.8916 41.212 28.9243 41.3847 28.9336 41.422C28.9616 41.506 28.9896 41.632 29.0176 41.8L29.1016 42.276L29.1436 42.472C29.1529 42.528 29.1763 42.6447 29.2136 42.822C29.2229 42.9247 29.2463 43.046 29.2836 43.186C29.3676 43.6433 29.4376 43.9793 29.4936 44.194C29.6243 44.782 29.7083 45.2393 29.7456 45.566L29.7596 45.72C29.7596 46.0467 29.5776 46.21 29.2136 46.21C29.0269 46.21 28.8869 46.1493 28.7936 46.028C28.7469 45.9533 28.6723 45.6547 28.5696 45.132C28.3736 44.1613 28.1963 43.2233 28.0376 42.318L27.8556 41.31C27.7996 40.9927 27.7529 40.6707 27.7156 40.344C27.7063 40.1013 27.6736 39.9707 27.6176 39.952C27.5803 39.9427 27.5103 40.0593 27.4076 40.302L27.3516 40.428C26.9876 41.3893 26.8056 41.9353 26.8056 42.066C26.8056 42.122 26.7963 42.1593 26.7776 42.178C26.7683 42.1873 26.7123 42.332 26.6096 42.612C26.4883 42.948 26.4136 43.1627 26.3856 43.256C26.3576 43.3773 26.3249 43.4567 26.2876 43.494C26.2783 43.522 26.2596 43.5733 26.2316 43.648C26.2129 43.7133 26.1803 43.8067 26.1336 43.928C25.8256 44.9547 25.6109 45.5427 25.4896 45.692C25.4336 45.7573 25.3403 45.8273 25.2096 45.902C25.0789 45.9673 24.9576 46 24.8456 46C24.7056 46 24.5889 45.9533 24.4956 45.86C24.3929 45.7573 24.3276 45.6407 24.2996 45.51C24.2716 45.37 24.2436 45.286 24.2156 45.258C24.1783 45.1833 24.1456 45.0947 24.1176 44.992C24.0803 44.824 24.0243 44.6093 23.9496 44.348C23.8376 44.0213 23.7723 43.8393 23.7536 43.802C23.7536 43.802 23.7023 43.6387 23.5996 43.312L23.5296 43.102L23.4736 42.892L23.4316 42.78C23.3103 42.4253 23.1376 41.7347 22.9136 40.708C22.8483 40.4187 22.7923 40.274 22.7456 40.274C22.7456 40.2647 22.7363 40.2693 22.7176 40.288C22.6896 40.2973 22.6336 40.512 22.5496 40.932C22.4656 41.2773 22.3909 41.6553 22.3256 42.066L22.1996 42.738L22.1576 42.976C22.1483 43.088 22.1203 43.2373 22.0736 43.424C22.0363 43.6013 22.0083 43.7553 21.9896 43.886C21.8963 44.4367 21.8263 44.782 21.7796 44.922C21.7516 45.0433 21.7236 45.188 21.6956 45.356C21.6303 45.8787 21.4249 46.1493 21.0796 46.168C20.9396 46.168 20.8229 46.1213 20.7296 46.028C20.6736 45.9813 20.6363 45.93 20.6176 45.874C20.5989 45.818 20.5896 45.7293 20.5896 45.608C20.5896 45.4493 20.6269 45.174 20.7016 44.782L20.8696 43.9L21.0096 43.256C21.1589 42.5467 21.2803 41.9587 21.3736 41.492L21.4996 40.876L21.7096 39.882C21.9616 38.65 22.1296 37.9173 22.2136 37.684C22.2603 37.5627 22.3209 37.474 22.3956 37.418ZM36.8381 37.152C36.9408 37.152 37.0201 37.1567 37.0761 37.166C37.1975 37.194 37.2721 37.2313 37.3001 37.278C37.3748 37.362 37.4121 37.4553 37.4121 37.558C37.4121 37.6607 37.3281 37.838 37.1601 38.09C36.5628 38.9113 36.1148 39.5133 35.8161 39.896C35.6761 40.0547 35.3541 40.4933 34.8501 41.212L34.4581 41.758L34.4721 43.858L34.4861 45.944L34.3321 46.07C34.2201 46.154 34.1128 46.196 34.0101 46.196C33.9541 46.196 33.8888 46.182 33.8141 46.154C33.6461 46.07 33.5341 45.8973 33.4781 45.636C33.4501 45.4213 33.4361 44.726 33.4361 43.55V41.758L33.0581 41.268L32.5121 40.554L32.0781 39.952C31.9101 39.728 31.7141 39.448 31.4901 39.112L30.9581 38.342C30.8088 38.1367 30.7341 37.978 30.7341 37.866C30.7341 37.6607 30.8321 37.5253 31.0281 37.46C31.0655 37.4413 31.1261 37.432 31.2101 37.432C31.3315 37.432 31.4481 37.474 31.5601 37.558C31.6721 37.6513 31.8495 37.88 32.0921 38.244C32.4935 38.804 32.7968 39.224 33.0021 39.504C33.3941 40.0267 33.6461 40.344 33.7581 40.456L33.9261 40.666L34.3881 40.064L35.3961 38.762C35.6388 38.4633 35.8721 38.1507 36.0961 37.824C36.3575 37.4227 36.5768 37.1987 36.7541 37.152H36.8381Z" fill="#1392FF"/>
</svg>
