<svg width="46" height="46" viewBox="0 0 46 46" fill="none" xmlns="http://www.w3.org/2000/svg">
<g clip-path="url(#clip0_3108_86234)">
<path d="M23 46C35.7025 46 46 35.7025 46 23C46 10.2975 35.7025 0 23 0C10.2975 0 0 10.2975 0 23C0 35.7025 10.2975 46 23 46Z" fill="#FFFDF6"/>
<path d="M37.02 22.31C38.7155 22.31 40.09 20.2146 40.09 17.63C40.09 15.0453 38.7155 12.95 37.02 12.95C35.3245 12.95 33.95 15.0453 33.95 17.63C33.95 20.2146 35.3245 22.31 37.02 22.31Z" fill="#3F6481"/>
<path d="M35.77 15.63C36.024 15.63 36.23 15.424 36.23 15.17C36.23 14.9159 36.024 14.71 35.77 14.71C35.5159 14.71 35.31 14.9159 35.31 15.17C35.31 15.424 35.5159 15.63 35.77 15.63Z" fill="white"/>
<path d="M8.98 22.31C10.6755 22.31 12.05 20.2146 12.05 17.63C12.05 15.0453 10.6755 12.95 8.98 12.95C7.28449 12.95 5.91 15.0453 5.91 17.63C5.91 20.2146 7.28449 22.31 8.98 22.31Z" fill="#3F6481"/>
<path d="M7.74 15.63C7.99405 15.63 8.2 15.424 8.2 15.17C8.2 14.9159 7.99405 14.71 7.74 14.71C7.48595 14.71 7.28 14.9159 7.28 15.17C7.28 15.424 7.48595 15.63 7.74 15.63Z" fill="white"/>
<path d="M23.2763 29.3231C25.8789 29.1776 27.8913 27.3164 27.7711 25.166C27.651 23.0155 25.4437 21.3901 22.8411 21.5356C20.2385 21.681 18.2261 23.5422 18.3463 25.6927C18.4664 27.8432 20.6737 29.4686 23.2763 29.3231Z" fill="#3F6481"/>
<path d="M23.12 27.88C23.12 27.88 22.59 32.35 23.81 35.6" stroke="#3F6481" stroke-width="2" stroke-miterlimit="10" stroke-linecap="round" stroke-linejoin="round"/>
<path d="M2.22999 22.0001C1.43999 21.9701 0.699994 22.1301 0.0399939 22.3901C-0.0200061 24.4201 0.149994 26.8901 0.879994 29.4001C1.22999 29.4801 1.58999 29.5401 1.95999 29.5501C4.49999 29.6401 6.62999 28.0201 6.69999 25.9301C6.77999 23.8501 4.76999 22.0901 2.22999 22.0001Z" fill="#FFD4D4"/>
<path d="M45.98 22.44C45.39 22.19 44.74 22.02 44.03 22C41.49 21.91 39.36 23.53 39.29 25.62C39.22 27.71 41.22 29.47 43.77 29.56C44.24 29.58 44.7 29.52 45.13 29.42C45.87 26.92 46.04 24.47 45.98 22.44Z" fill="#FFD4D4"/>
<path d="M23 0.5C35.4264 0.5 45.5 10.5736 45.5 23C45.5 35.4264 35.4264 45.5 23 45.5C10.5736 45.5 0.5 35.4264 0.5 23C0.5 10.5736 10.5736 0.5 23 0.5Z" stroke="#3F6481"/>
</g>
<defs>
<clipPath id="clip0_3108_86234">
<rect width="46" height="46" fill="white"/>
</clipPath>
</defs>
</svg>
