<svg width="61" height="61" viewBox="0 0 61 61" fill="none" xmlns="http://www.w3.org/2000/svg">
<path d="M13.5029 27.9715C13.5029 27.9715 11.8914 27.6886 10.6229 23.3943C10.5371 23.0943 10.22 22.9058 9.89428 22.94C9.57714 22.9743 9.29428 23.2829 9.19999 23.5658C8.95142 24.2943 9.77428 25.04 10.4086 26C10.9057 26.7543 11.4543 27.9029 11.66 29.6172C11.7886 29.42 11.9514 29.2143 13.5029 27.9715Z" fill="#A37957"/>
<path d="M13.5029 27.9715C13.5029 27.9715 11.8914 27.6886 10.6229 23.3943C10.5371 23.0943 10.22 22.9058 9.89428 22.94C9.57714 22.9743 9.29428 23.2829 9.19999 23.5658C8.95142 24.2943 9.77428 25.04 10.4086 26C10.9057 26.7543 11.4543 27.9029 11.66 29.6172C11.7886 29.42 11.9514 29.2143 13.5029 27.9715Z" stroke="#87623E" stroke-miterlimit="10" stroke-linejoin="round"/>
<path d="M8.00001 35.6943C9.39715 38.7714 15.5343 39.7314 15.5343 39.7314L20.7371 40.46C25.6657 39.62 31.0914 38.9171 36.9543 38.5057C41.9686 38.1457 46.6829 38.0428 51.0457 38.1028C52.04 37.8028 52.7343 36.9714 52.8457 36.0114C52.9057 35.48 53.1114 34.8371 52.52 34.1171C52.6229 33.26 52.2029 32.66 52.2029 32.66V32.6428C52.2029 25.9657 42.1914 20.5571 29.84 20.5571C17.4886 20.5571 7.48572 25.9571 7.48572 32.6343C7.48572 32.6343 7.46858 34.8457 8.00001 35.6943Z" fill="#D3AB84"/>
<path d="M16.7771 29.0345C16.4 28.7259 16.3657 28.1516 16.7171 27.8087C17.3 27.2516 18.0971 26.103 18.7914 23.7459C18.8771 23.4459 19.1943 23.2573 19.52 23.2916C19.8371 23.3259 20.1114 23.6516 20.2143 23.9173C20.5143 24.6887 19.7171 25.503 19.0057 26.7202C18.7228 27.2002 18.3971 27.8516 18.1143 28.6916C17.9257 29.2402 17.2486 29.4287 16.8028 29.0602C16.7943 29.0516 16.7857 29.043 16.7771 29.0345Z" fill="#A37957"/>
<path d="M16.7771 29.0345C16.4 28.7259 16.3657 28.1516 16.7171 27.8087C17.3 27.2516 18.0971 26.103 18.7914 23.7459C18.8771 23.4459 19.1943 23.2573 19.52 23.2916C19.8371 23.3259 20.1114 23.6516 20.2143 23.9173C20.5143 24.6887 19.7171 25.503 19.0057 26.7202C18.7228 27.2002 18.3971 27.8516 18.1143 28.6916C17.9257 29.2402 17.2486 29.4287 16.8028 29.0602C16.7943 29.0516 16.7857 29.043 16.7771 29.0345Z" stroke="#87623E" stroke-miterlimit="10" stroke-linejoin="round"/>
<path d="M26.48 39.1657L30.2085 35.2314L32.7457 32.7028L38.9685 32.1714L42.7228 34.4857L46.8114 36.7828L49.5285 37.9485L51.5085 37.8542L49.52 38.4628L39.2343 38.3514L31.04 39.0542L26.1457 39.8257L26.48 39.1657Z" fill="#A37957"/>
<path d="M13.2629 34.3142C13.6653 34.3142 13.9914 33.8345 13.9914 33.2428C13.9914 32.6511 13.6653 32.1714 13.2629 32.1714C12.8605 32.1714 12.5343 32.6511 12.5343 33.2428C12.5343 33.8345 12.8605 34.3142 13.2629 34.3142Z" fill="#121212"/>
<path d="M20.4971 40.4086C25.8286 40.6057 28.5286 37.3743 29.4114 36.0457C29.8057 35.4543 30.2171 34.8714 30.6971 34.3914C32.9 32.2057 35.4286 31.8714 37.5543 32.1543C39.4657 32.4114 41.1286 33.4143 42.7228 34.4857C50.0343 39.4143 52.0228 38.2143 52.7428 37.2543" stroke="#87623E" stroke-miterlimit="10" stroke-linecap="round" stroke-linejoin="round"/>
<path d="M7.86288 32.6343C7.84573 34.5543 8.26573 35.5314 8.26573 35.5314C8.26573 35.5314 9.8343 41.6514 24.2172 40.1686C24.2172 40.1686 37.34 37.5886 47.8914 38.3771C47.8914 38.3771 55.4 39.6028 52.5886 33.2686L52.58 32.66V32.6428C52.58 25.9657 42.5686 20.5571 30.2172 20.5571C17.8657 20.5571 7.86288 25.9571 7.86288 32.6343ZM7.86288 32.6343V32.6514" stroke="#87623E" stroke-miterlimit="10"/>
<path d="M26.4715 26.5144C27.2383 26.5144 27.86 26.146 27.86 25.6915C27.86 25.2371 27.2383 24.8687 26.4715 24.8687C25.7046 24.8687 25.0829 25.2371 25.0829 25.6915C25.0829 26.146 25.7046 26.5144 26.4715 26.5144Z" fill="white"/>
<path d="M28.6143 28.5114C29.3812 28.5114 30.0028 28.143 30.0028 27.6886C30.0028 27.2341 29.3812 26.8657 28.6143 26.8657C27.8474 26.8657 27.2257 27.2341 27.2257 27.6886C27.2257 28.143 27.8474 28.5114 28.6143 28.5114Z" fill="white"/>
<path d="M35.7543 26.3859C36.5212 26.3859 37.1429 26.0175 37.1429 25.5631C37.1429 25.1086 36.5212 24.7402 35.7543 24.7402C34.9874 24.7402 34.3657 25.1086 34.3657 25.5631C34.3657 26.0175 34.9874 26.3859 35.7543 26.3859Z" fill="white"/>
<path d="M33.4829 28.5114C34.2498 28.5114 34.8714 28.143 34.8714 27.6886C34.8714 27.2341 34.2498 26.8657 33.4829 26.8657C32.716 26.8657 32.0943 27.2341 32.0943 27.6886C32.0943 28.143 32.716 28.5114 33.4829 28.5114Z" fill="white"/>
<path d="M31.0485 26.3859C31.8154 26.3859 32.4371 26.0175 32.4371 25.5631C32.4371 25.1086 31.8154 24.7402 31.0485 24.7402C30.2817 24.7402 29.66 25.1086 29.66 25.5631C29.66 26.0175 30.2817 26.3859 31.0485 26.3859Z" fill="white"/>
<path d="M23.8486 23.2912C23.8486 23.2912 37.5886 20.2484 51.5171 28.9226C51.5171 28.9226 50.2829 27.4912 48.9629 25.5798C47.2571 23.1112 44.5657 21.4741 41.5829 21.1569C41.0857 21.1055 40.5543 21.0712 39.9971 21.0712C38.0086 21.0626 35.8743 19.8798 34.0143 19.1769C31.94 18.3969 28.8457 17.9598 25.9829 20.4026L23.8486 23.2912Z" fill="#A37957"/>
<path d="M22.9915 23.2916C22.9915 23.2916 37.5886 20.2487 51.5172 28.923C51.5172 28.923 50.2829 27.4916 48.9629 25.5802C47.2915 23.1545 44.6515 21.5087 41.72 21.1659C41.18 21.1059 40.6143 21.063 40.0057 21.063C38.0172 21.0545 35.8829 19.8716 34.0229 19.1687C32.5915 18.6287 30.6886 18.2602 28.7 18.8687C27.6372 19.1945 26.6943 19.8202 25.9229 20.6173C25.28 21.2773 24.6372 21.9287 23.9343 22.5116L22.9915 23.2916Z" stroke="#87623E" stroke-miterlimit="10" stroke-linejoin="round"/>
</svg>
