<svg width="30" height="30" viewBox="0 0 30 30" fill="none" xmlns="http://www.w3.org/2000/svg">
<path d="M17.52 28C17.18 28 16.75 27.85 16.63 27.16L15 18.6C14.97 18.43 14.95 18.3 14.91 18.17C14.83 17.89 14.78 17.89 14.71 17.89C14.62 17.89 14.53 17.89 14.46 18.18C14.37 18.58 14.3 18.98 14.22 19.39L12.72 27.24C12.6 27.9 12.13 28 11.86 28C11.59 27.98 11.41 27.98 11.23 27.98C11.05 27.98 10.87 27.99 10.69 28C10.68 28 10.6 28 10.59 28C10.34 28 10.14 27.92 10 27.77C9.77005 27.53 9.79005 27.21 9.80005 27.07C9.84005 26.44 9.86005 25.82 9.89005 25.2L9.93005 24.27C10.06 21.22 10.29 17.96 10.62 14.29C10.79 12.47 10.63 10.62 10.47 8.82L10.44 8.53C10.43 8.38 10.41 8.34 10.4 8.33C10.4 8.35 10.36 8.39 10.31 8.52L9.43005 10.77C8.90005 12.13 8.36005 13.49 7.85005 14.85C7.77005 15.04 7.58005 15.55 7.02005 15.55C6.89005 15.55 6.75005 15.52 6.58005 15.46L6.48005 15.42C5.75005 15.16 5.61005 14.9 5.77005 14.11L5.80005 13.99C6.17005 12.2 6.54005 10.34 7.13005 8.56C7.37005 7.79 7.61005 7.1 7.93005 6.42C8.62005 4.92 9.76005 3.95 11.32 3.52C11.56 3.45 11.8 3.38 12.05 3.29C12.28 3.21 12.56 3.07 12.63 2.83C12.88 2.09 13.42 2 13.81 2H13.96C14.21 2.01 14.45 2.01 14.69 2.01L15.95 2C16.31 2 16.58 2.21 16.68 2.56C16.79 2.94 17.05 3.18 17.56 3.36L17.73 3.42C17.8 3.44 17.86 3.47 17.93 3.49C19.76 3.95 21.05 5.16 21.76 7.07C22.6 9.37 23.23 11.76 23.68 14.39C23.8 15.06 23.29 15.29 23.13 15.36L23.04 15.4C22.83 15.51 22.65 15.56 22.48 15.56C21.91 15.56 21.7 15.03 21.62 14.83L21.23 13.87C20.53 12.15 19.81 10.37 19.15 8.6C19.13 8.53 19.1 8.48 19.07 8.42L18.98 8.36C18.81 10.44 18.61 12.74 18.85 15C19.11 17.36 19.3 19.88 19.41 22.49C19.47 24.01 19.57 25.51 19.67 27.02C19.69 27.22 19.68 27.52 19.47 27.75C19.25 28 18.95 28 18.85 28C18.84 28 18.74 28 18.73 28C18.53 27.98 18.33 27.97 18.13 27.97C17.97 27.97 17.82 27.98 17.67 27.99C17.64 27.99 17.54 28 17.52 28Z" fill="#1392FF"/>
<path d="M13.8101 2.5C13.8501 2.5 13.8901 2.5 13.9401 2.5C14.1901 2.51 14.4401 2.52 14.6901 2.52C15.0701 2.52 15.4401 2.51 15.8201 2.51C15.8601 2.51 15.9001 2.51 15.9401 2.51C16.0401 2.51 16.1401 2.53 16.1801 2.7C16.3501 3.32 16.8201 3.64 17.3801 3.84C17.5201 3.88 17.6501 3.94 17.7901 3.98C19.5401 4.42 20.6501 5.54 21.2801 7.25C22.1401 9.6 22.7501 12.02 23.1801 14.49C23.2401 14.85 23.0101 14.86 22.7901 14.98C22.6601 15.05 22.5501 15.08 22.4701 15.08C22.2901 15.08 22.1801 14.94 22.0701 14.66C21.2401 12.59 20.3901 10.53 19.6101 8.44C19.5801 8.36 19.5501 8.28 19.5101 8.2C19.4001 7.98 19.2401 7.87 19.0201 7.87C18.9901 7.87 18.9501 7.87 18.9201 7.88C18.6301 7.92 18.5101 8.13 18.4801 8.39C18.2901 10.61 18.1101 12.82 18.3501 15.07C18.6201 17.55 18.8001 20.04 18.9101 22.53C18.9701 24.05 19.0701 25.56 19.1701 27.07C19.2001 27.4 19.1001 27.5 18.8401 27.5C18.8101 27.5 18.7801 27.5 18.7501 27.5C18.5401 27.48 18.3201 27.47 18.1101 27.47C17.9401 27.47 17.7601 27.48 17.5901 27.5C17.5601 27.5 17.5301 27.5 17.5001 27.5C17.2201 27.5 17.1501 27.33 17.1001 27.07C16.5601 24.21 16.0201 21.36 15.4701 18.5C15.4401 18.35 15.4101 18.19 15.3701 18.03C15.2601 17.68 15.1001 17.39 14.6901 17.39C14.6801 17.39 14.6801 17.39 14.6701 17.39C14.2301 17.4 14.0301 17.69 13.9501 18.07C13.8101 18.69 13.7101 19.33 13.5901 19.95C13.1301 22.35 12.6701 24.75 12.2101 27.14C12.1601 27.39 12.0701 27.48 11.8401 27.48C11.8201 27.48 11.8101 27.48 11.7901 27.48C11.6001 27.47 11.4001 27.46 11.2101 27.46C11.0201 27.46 10.8201 27.47 10.6301 27.48C10.6101 27.48 10.5901 27.48 10.5701 27.48C10.3101 27.48 10.2601 27.35 10.2801 27.08C10.3401 26.15 10.3701 25.22 10.4101 24.28C10.5501 20.96 10.8001 17.65 11.1001 14.33C11.2901 12.37 11.0901 10.42 10.9201 8.48C10.9001 8.2 10.8401 7.9 10.4601 7.86C10.4401 7.86 10.4201 7.86 10.4001 7.86C10.0901 7.86 9.95008 8.06 9.84008 8.34C9.02008 10.45 8.18008 12.55 7.38008 14.66C7.28008 14.92 7.19008 15.03 7.02008 15.03C6.95008 15.03 6.86008 15.01 6.75008 14.97C6.17008 14.76 6.14008 14.79 6.26008 14.2C6.64008 12.34 7.01008 10.5 7.60008 8.7C7.83008 8 8.07008 7.31 8.38008 6.64C9.01008 5.28 10.0301 4.4 11.4501 4.01C11.7101 3.94 11.9601 3.86 12.2201 3.76C12.6101 3.62 12.9801 3.38 13.1101 2.99C13.2501 2.57 13.4801 2.5 13.8101 2.5ZM13.8101 1.5C12.7701 1.5 12.3301 2.13 12.1601 2.67C12.1501 2.69 12.0701 2.76 11.8901 2.82C11.6401 2.91 11.4101 2.98 11.1801 3.05C9.48008 3.51 8.24008 4.58 7.48008 6.22C7.15008 6.92 6.90008 7.62 6.65008 8.4C6.05008 10.21 5.67008 12.08 5.30008 13.89L5.27008 14.02C5.06008 15.04 5.34008 15.55 6.30008 15.9L6.39008 15.93C6.62008 16.01 6.82008 16.05 7.00008 16.05C7.41008 16.05 7.97008 15.87 8.30008 15.04C8.83008 13.65 9.37008 12.27 9.91008 10.9C9.97008 10.75 10.0301 10.6 10.0901 10.45C10.1901 11.74 10.2301 12.99 10.1101 14.26C9.78008 17.94 9.55008 21.21 9.42008 24.27L9.38008 25.19C9.35008 25.81 9.33008 26.43 9.29008 27.05C9.28008 27.23 9.26008 27.74 9.63008 28.13C9.80008 28.3 10.1001 28.51 10.5801 28.51C10.6201 28.51 10.6701 28.51 10.7101 28.51C10.8801 28.5 11.0501 28.49 11.2201 28.49C11.3901 28.49 11.5501 28.5 11.7201 28.51C11.7501 28.51 11.8201 28.51 11.8501 28.51C12.5601 28.51 13.0701 28.08 13.2001 27.35L13.8901 23.75L14.5801 20.15C14.6101 19.98 14.6501 19.81 14.6801 19.63L16.1301 27.26C16.3301 28.41 17.2401 28.5 17.5101 28.5C17.5701 28.5 17.6301 28.5 17.7001 28.49C17.8401 28.47 17.9801 28.47 18.1201 28.47C18.3101 28.47 18.5001 28.48 18.6801 28.49C18.7401 28.49 18.7901 28.5 18.8401 28.5C19.3601 28.5 19.6701 28.28 19.8401 28.1C20.2201 27.68 20.1801 27.16 20.1701 26.99C20.0801 25.65 19.9801 24.06 19.9101 22.48C19.8001 19.86 19.6101 17.33 19.3501 14.96C19.1901 13.46 19.2301 11.94 19.3201 10.49C19.7801 11.68 20.2601 12.85 20.7201 14L21.1401 15.05C21.4901 15.91 22.0501 16.09 22.4601 16.09C22.7101 16.09 22.9701 16.02 23.2501 15.87L23.3101 15.84C24.2101 15.44 24.2201 14.72 24.1501 14.32C23.6901 11.67 23.0501 9.24 22.2101 6.92C21.4401 4.84 20.0401 3.52 18.0201 3.02C18.0001 3 17.9501 2.98 17.9001 2.96C17.8301 2.94 17.7701 2.91 17.7001 2.89C17.2401 2.73 17.1901 2.55 17.1601 2.44C17.0001 1.86 16.5301 1.51 15.9501 1.51H15.8501C15.6401 1.51 15.4401 1.51 15.2501 1.51C15.0601 1.51 14.8801 1.51 14.7001 1.51C14.4601 1.51 14.2301 1.51 13.9901 1.5C13.9201 1.5 13.8701 1.5 13.8101 1.5Z" fill="#0074DA"/>
</svg>
