<svg width="61" height="61" viewBox="0 0 61 61" fill="none" xmlns="http://www.w3.org/2000/svg">
<path d="M35.0085 21.2857L36.0285 20.6C37.6057 19.5371 39.3628 19.2457 40.6657 19.9143C40.94 20.06 41.2143 20.2314 41.4714 20.4543C42.5171 21.3628 42.8685 23 42.5 24.74L42.4143 25.1343L35.0085 21.2857Z" fill="#FF9F48"/>
<path d="M20.0942 20.9516L20.84 19.7088C21.9885 17.7888 24.1828 16.4259 26.7114 16.1859C27.2514 16.1345 27.8171 16.1173 28.4085 16.1516C30.8342 16.2888 33.0028 17.4888 34.2628 19.2459L34.5457 19.6402L20.0942 20.9516Z" fill="#FF9F48"/>
<path d="M21.9286 40.2373L22.3657 41.4802C23.0429 43.4002 24.3286 44.763 25.8114 45.003C26.1286 45.0544 26.4629 45.0716 26.8057 45.0373C28.2286 44.9002 29.4972 43.7002 30.2429 41.943L30.4143 41.5487L21.9286 40.2373Z" fill="#FF9F48"/>
<path d="M32.2142 42.1316L33.3885 42.7059C35.2057 43.5973 37.4085 43.563 39.2428 42.5173C39.6285 42.2945 40.0228 42.0288 40.3999 41.7202C41.9514 40.443 42.7485 38.4888 42.6371 36.5602L42.6114 36.123L32.2142 42.1316Z" fill="#FF9F48"/>
<path d="M35.0085 21.2857L36.0285 20.6C37.6057 19.5371 39.3628 19.2457 40.6657 19.9143C40.94 20.06 41.2143 20.2314 41.4714 20.4543C42.5171 21.3628 42.8685 23 42.5 24.74L42.4143 25.1343L35.0085 21.2857Z" stroke="#AA4D00" stroke-miterlimit="10" stroke-linecap="round" stroke-linejoin="round"/>
<path d="M20.0942 20.9516L20.84 19.7088C21.9885 17.7888 24.1828 16.4259 26.7114 16.1859C27.2514 16.1345 27.8171 16.1173 28.4085 16.1516C30.8342 16.2888 33.0028 17.4888 34.2628 19.2459L34.5457 19.6402L20.0942 20.9516Z" stroke="#AA4D00" stroke-miterlimit="10" stroke-linecap="round" stroke-linejoin="round"/>
<path d="M21.9286 40.2373L22.3657 41.4802C23.0429 43.4002 24.3286 44.763 25.8114 45.003C26.1286 45.0544 26.4629 45.0716 26.8057 45.0373C28.2286 44.9002 29.4972 43.7002 30.2429 41.943L30.4143 41.5487L21.9286 40.2373Z" stroke="#AA4D00" stroke-miterlimit="10" stroke-linecap="round" stroke-linejoin="round"/>
<path d="M32.2142 42.1316L33.3885 42.7059C35.2057 43.5973 37.4085 43.563 39.2428 42.5173C39.6285 42.2945 40.0228 42.0288 40.3999 41.7202C41.9514 40.443 42.7485 38.4888 42.6371 36.5602L42.6114 36.123L32.2142 42.1316Z" stroke="#AA4D00" stroke-miterlimit="10" stroke-linecap="round" stroke-linejoin="round"/>
<path d="M52.9143 27.3286C52.0486 25.6143 50.1286 24.8771 48.4314 25.5457L44.5829 27.0629C42.2857 22.1343 35.6943 18.5771 27.9029 18.5771C18.2086 18.5771 13.3486 24.0114 10.3486 30.8857C7.62286 37.1514 18.2086 43.1943 27.9029 43.1943C35.5229 43.1943 41.9943 39.7829 44.42 35.0171L48.4314 36.3114C50.06 36.8343 51.8172 36.0886 52.6829 34.5029C54.2857 31.5629 53.7886 29.0771 52.9143 27.3286Z" fill="#FF9F48"/>
<path d="M29 18.9712C29 18.9712 35.5657 30.7827 29.9514 42.937C29.9514 42.937 34.6229 42.9627 37.5543 40.8455C37.5543 40.8455 33.1486 32.5912 38.1114 20.9598C38.1114 20.9512 30.9886 18.6112 29 18.9712Z" fill="white"/>
<path d="M44.1629 27.1742C44.1629 27.1742 46.16 31.0227 43.9743 34.9399L47.1972 35.4799C47.1972 35.4799 50.2572 30.9627 47.1972 26.437L44.1629 27.1742Z" fill="white"/>
<path d="M18.9714 20.6083L21.8172 19.0826L24.8514 18.9712C24.8514 18.9712 32.2229 31.6826 24.8514 43.1855L20.4029 41.7712C20.3943 41.7798 30.5 30.4998 18.9714 20.6083Z" fill="white"/>
<path d="M52.9143 27.3286C52.0486 25.6143 50.1286 24.8771 48.4314 25.5457L44.5829 27.0629C42.2857 22.1343 35.6943 18.5771 27.9029 18.5771C18.2086 18.5771 13.3486 24.0114 10.3486 30.8857C7.62286 37.1514 18.2086 43.1943 27.9029 43.1943C35.5229 43.1943 41.9943 39.7829 44.42 35.0171L48.4314 36.3114C50.06 36.8343 51.8171 36.0886 52.6829 34.5029C54.2857 31.5629 53.7886 29.0771 52.9143 27.3286Z" stroke="#AA4D00" stroke-miterlimit="10" stroke-linecap="round" stroke-linejoin="round"/>
<path d="M17.5485 30.8855C17.9509 30.8855 18.2771 30.4058 18.2771 29.8141C18.2771 29.2224 17.9509 28.7427 17.5485 28.7427C17.1461 28.7427 16.8199 29.2224 16.8199 29.8141C16.8199 30.4058 17.1461 30.8855 17.5485 30.8855Z" fill="#121212"/>
<path d="M25.9143 28.0056C25.9143 28.0056 26.8057 31.7084 25.9143 33.8256L28.7343 34.3484C30.1143 34.6056 31.5115 34.0399 32.0943 33.0113C32.7029 31.9227 33.08 30.4227 32.1115 28.7941C31.5286 27.817 30.1657 27.2856 28.8457 27.5084L25.9143 28.0056Z" fill="#FF9F48"/>
<path d="M50.5228 33.7573L52.5114 34.6745" stroke="#AA4D00" stroke-miterlimit="10" stroke-linecap="round" stroke-linejoin="round"/>
<path d="M52.5114 27.1914L50.5228 28.0314" stroke="#AA4D00" stroke-miterlimit="10" stroke-linecap="round" stroke-linejoin="round"/>
<path d="M53.72 30.9369L51.0114 30.894" stroke="#AA4D00" stroke-miterlimit="10" stroke-linecap="round" stroke-linejoin="round"/>
<path d="M26.3086 28.0057C26.3086 28.0057 32.7115 24.6199 32.7115 30.8857C32.7115 30.8857 32.9343 36.8942 26.3086 33.8257" stroke="#AA4D00" stroke-miterlimit="10" stroke-linecap="round" stroke-linejoin="round"/>
</svg>
