<svg width="40" height="41" viewBox="0 0 40 41" fill="none" xmlns="http://www.w3.org/2000/svg">
<path d="M32.8955 17.8133C32.8955 17.8133 29.7216 20.3383 27.0433 16.605C27.0433 16.605 23.5651 21.23 20.0085 16.605C16.4433 21.23 12.9738 16.605 12.9738 16.605C10.2955 20.3383 7.12158 17.8133 7.12158 17.8133" stroke="#A4A4A4" stroke-miterlimit="10" stroke-linecap="round" stroke-linejoin="round"/>
<path d="M32.8955 13.5555C32.8955 13.5555 29.7216 16.0805 27.0433 12.3472C27.0433 12.3472 23.5651 16.9722 20.0085 12.3472C16.4433 16.9722 12.9738 12.3472 12.9738 12.3472C10.2955 16.0805 7.12158 13.5555 7.12158 13.5555" stroke="#A4A4A4" stroke-miterlimit="10" stroke-linecap="round" stroke-linejoin="round"/>
<path d="M32.8955 22.0726C32.8955 22.0726 29.7216 24.5976 27.0433 20.8643C27.0433 20.8643 23.5651 25.4893 20.0085 20.8643C16.4433 25.4893 12.9738 20.8643 12.9738 20.8643C10.2955 24.5976 7.12158 22.0726 7.12158 22.0726V28.9809H32.9042V22.0726H32.8955Z" fill="#CCCCCC" stroke="#A4A4A4" stroke-miterlimit="10" stroke-linecap="round" stroke-linejoin="round"/>
</svg>
