<svg width="35" height="34" viewBox="0 0 35 34" fill="none" xmlns="http://www.w3.org/2000/svg">
<path d="M20.8454 8.03777H20.863M13.8103 29.1489H6.7753C5.37595 29.1489 4.03391 28.5928 3.04441 27.6031C2.05492 26.6133 1.49902 25.2709 1.49902 23.8711V6.27851C1.49902 4.87876 2.05492 3.53633 3.04441 2.54656C4.03391 1.55678 5.37595 1.00073 6.7753 1.00073H24.3629C25.7623 1.00073 27.1043 1.55678 28.0938 2.54656C29.0833 3.53633 29.6392 4.87876 29.6392 6.27851V13.3155" stroke="#121212" stroke-width="2" stroke-linecap="round" stroke-linejoin="round"/>
<path d="M1.49902 20.352L8.53406 13.315C10.1662 11.744 12.1782 11.744 13.8103 13.315L19.0866 18.5928L20.8454 16.8335C21.3906 16.3092 21.978 15.9591 22.5813 15.785M26.8603 21.4252C27.2033 21.0821 27.6105 20.8099 28.0586 20.6243C28.5068 20.4386 28.9871 20.343 29.4721 20.343C29.9572 20.343 30.4374 20.4386 30.8856 20.6243C31.3337 20.8099 31.7409 21.0821 32.0839 21.4252C32.4268 21.7682 32.6989 22.1755 32.8845 22.6238C33.0701 23.072 33.1657 23.5525 33.1657 24.0377C33.1657 24.5229 33.0701 25.0033 32.8845 25.4515C32.6989 25.8998 32.4268 26.3071 32.0839 26.6502L26.1217 32.6668H20.8454V27.3891L26.8603 21.4252Z" stroke="#121212" stroke-width="2" stroke-linecap="round" stroke-linejoin="round"/>
</svg>
