<svg width="30" height="31" viewBox="0 0 30 31" fill="none" xmlns="http://www.w3.org/2000/svg">
<path d="M26.5 20.3986C26.5 20.3986 23.67 22.7486 21.28 19.2686C21.28 19.2686 18.18 23.5786 15 19.2686C11.82 23.5786 8.72 19.2686 8.72 19.2686C6.33 22.7486 3.5 20.3986 3.5 20.3986" stroke="#A4A4A4" stroke-miterlimit="10" stroke-linecap="round" stroke-linejoin="round"/>
<path d="M26.5 15.3585C26.5 15.3585 23.67 17.7085 21.28 14.2285C21.28 14.2285 18.18 18.5385 15 14.2285C11.82 18.5385 8.72 14.2285 8.72 14.2285C6.33 17.7085 3.5 15.3585 3.5 15.3585" stroke="#A4A4A4" stroke-miterlimit="10" stroke-linecap="round" stroke-linejoin="round"/>
<path d="M26.5002 10.3185C26.5002 10.3185 23.6702 12.6685 21.2802 9.18848C21.2802 9.18848 18.1802 13.4985 15.0002 9.18848C11.8202 13.4985 8.72023 9.18848 8.72023 9.18848C6.32023 12.6585 3.49023 10.3185 3.49023 10.3185" stroke="#A4A4A4" stroke-miterlimit="10" stroke-linecap="round" stroke-linejoin="round"/>
</svg>
