<svg width="61" height="61" viewBox="0 0 61 61" fill="none" xmlns="http://www.w3.org/2000/svg">
<path d="M33.6371 20.7202L35.7029 17.1717C36.1571 16.3917 37.0657 15.9802 37.9486 16.1859C40.5029 16.7774 45.5857 18.5517 47.7114 23.6174C48.0629 24.4488 47.78 25.4088 47.0857 25.9745L45.9457 26.9088L33.6371 20.7202Z" fill="#FF794A"/>
<path d="M33.6371 20.7202L35.7029 17.1717C36.1571 16.3917 37.0657 15.9802 37.9486 16.1859C40.5029 16.7774 45.5857 18.5517 47.7114 23.6174C48.0629 24.4488 47.78 25.4088 47.0857 25.9745L45.9457 26.9088L33.6371 20.7202Z" stroke="#933400" stroke-miterlimit="10" stroke-linecap="round" stroke-linejoin="round"/>
<path d="M23.4114 39.9287C23.4114 39.9287 29.8057 47.0773 31.3742 40.2116L23.4114 39.9287Z" fill="#FF794A"/>
<path d="M24.6971 41.2829C24.6971 41.2829 26.9086 43.9486 29.1114 43.58C29.1114 43.58 30.7914 43.4343 31.3571 40.52" stroke="#933400" stroke-miterlimit="10" stroke-linecap="round" stroke-linejoin="round"/>
<path d="M35.2828 39.0114C37.5628 40.6486 46.9486 44.4457 45.2857 35.2314L35.2828 39.0114Z" fill="#FF794A"/>
<path d="M37.16 39.8085C37.16 39.8085 40.2971 41.7885 42.86 41.36C43.76 41.2057 44.4885 40.5371 44.7714 39.6628C45.0457 38.8057 45.3028 37.4 45.2428 35.1714" stroke="#933400" stroke-miterlimit="10" stroke-linecap="round" stroke-linejoin="round"/>
<path d="M31.0229 17.6769L31.2629 15.3798C31.2972 15.0112 30.92 14.7626 30.5857 14.9255C29.2743 15.5769 28.4086 15.7312 27.9543 16.7683L27.7057 14.8055C27.6629 14.4455 27.2343 14.2826 26.9515 14.5055C25.6057 15.5769 24.9115 16.0226 24.6972 17.2741L23.8229 15.5683C23.6857 15.2941 23.3172 15.2341 23.0857 15.4483C21.98 16.4855 21.5857 17.1283 21.6286 18.3883L20.3429 17.3341C20.1286 17.1541 19.7857 17.2055 19.6486 17.4541C16.76 22.4769 21.5857 25.6055 21.5857 25.6055L24.1572 23.3426L24.1143 23.2826L26.1715 22.1941L26.1629 22.1683L27.5086 21.8169C27.5515 22.2112 27.6115 22.4598 27.6115 22.4598L30.0115 22.2369C29.9772 22.5712 29.9858 22.7855 29.9858 22.7855L33.38 23.2312L34.6057 16.6226C34.7 16.2798 34.3829 15.9626 34.0315 16.0569C32.3343 16.5026 31.7 16.6226 31.0229 17.6769Z" fill="#FF794A"/>
<path d="M31.0229 17.6769L31.2629 15.3798C31.2972 15.0112 30.92 14.7626 30.5857 14.9255C29.2743 15.5769 28.4086 15.7312 27.9543 16.7683L27.7057 14.8055C27.6629 14.4455 27.2343 14.2826 26.9515 14.5055C25.6057 15.5769 24.9115 16.0226 24.6972 17.2741L23.8229 15.5683C23.6857 15.2941 23.3172 15.2341 23.0857 15.4483C21.98 16.4855 21.5857 17.1283 21.6286 18.3883L20.3429 17.3341C20.1286 17.1541 19.7857 17.2055 19.6486 17.4541C16.76 22.4769 21.5857 25.6055 21.5857 25.6055L24.1572 23.3426L24.1143 23.2826L26.1715 22.1941L26.1629 22.1683L27.5086 21.8169C27.5515 22.2112 27.6115 22.4598 27.6115 22.4598L30.0115 22.2369C29.9772 22.5712 29.9858 22.7855 29.9858 22.7855L32.84 23.1969L34.6057 16.6312C34.7 16.2883 34.3829 15.9712 34.0315 16.0655C32.3343 16.5026 31.7 16.6226 31.0229 17.6769Z" stroke="#933400" stroke-miterlimit="10" stroke-linecap="round" stroke-linejoin="round"/>
<path d="M21.6372 18.3711L21.9629 21.0282" stroke="#933400" stroke-miterlimit="10" stroke-linecap="round" stroke-linejoin="round"/>
<path d="M24.6971 17.2656L25.0314 20.1456" stroke="#933400" stroke-miterlimit="10" stroke-linecap="round" stroke-linejoin="round"/>
<path d="M27.9543 16.7598L28.1429 20.1026" stroke="#933400" stroke-miterlimit="10" stroke-linecap="round" stroke-linejoin="round"/>
<path d="M31.1858 16.1343L30.7229 20.2828" stroke="#933400" stroke-miterlimit="10" stroke-linecap="round" stroke-linejoin="round"/>
<path d="M53.6857 25.6743C53.4029 25.1085 52.6657 24.9628 52.1943 25.3743L47.9771 28.7257H47.1114C45.5857 23.5657 37.0829 19.6143 26.8229 19.6143C20.9086 19.6143 12.2257 21.1228 6.30286 30.3714C6.30286 30.3714 8.06857 31.1685 9.81714 32.9L6.34571 33.74C8.66 37.6057 18.0371 41.1285 26.8143 41.1285C36.1229 41.1285 43.9829 37.8714 46.4943 33.4143H48.0886V33.44L52.5114 36.5771C53 36.9371 53.72 36.7657 53.9686 36.2C55.6571 32.4371 54.5 27.3285 53.6857 25.6743Z" fill="#FF794A"/>
<path d="M22.6486 29.6598C22.6486 29.6598 25.8114 25.717 28.6828 25.8198C29.96 25.8627 30.9886 27.1227 30.9886 28.5713C30.9886 29.7198 30.5771 31.297 29 33.0798C28.4857 33.6627 27.7571 33.9627 27.0286 33.877C25.6914 33.7056 23.5914 32.9084 22.6486 29.6598Z" fill="#FF794A"/>
<path d="M24.5942 27.7058C24.5942 27.7058 29.7285 23.3858 30.62 27.8001C30.9628 29.4887 30.5171 31.2801 29.42 32.6087C28.3657 33.903 26.6514 34.8373 24.2771 32.5658" stroke="#933400" stroke-miterlimit="10" stroke-linecap="round" stroke-linejoin="round"/>
<path d="M53.6857 25.6743C53.4029 25.1085 52.6657 24.9628 52.1943 25.3743L47.9771 28.7257H47.1114C45.5857 23.5657 37.0829 19.6143 26.8229 19.6143C20.9086 19.6143 12.2257 21.1228 6.30286 30.3714C6.30286 30.3714 8.06857 31.1685 9.81714 32.9L6.34571 33.74C8.66 37.6057 18.0371 41.1285 26.8143 41.1285C36.1229 41.1285 43.9829 37.8714 46.4943 33.4143H48.0886V33.44L52.5114 36.5771C53 36.9371 53.72 36.7657 53.9686 36.2C55.6571 32.4371 54.5 27.3285 53.6857 25.6743Z" stroke="#933400" stroke-miterlimit="10" stroke-linecap="round" stroke-linejoin="round"/>
<path d="M52.1857 33.7573L54.1657 34.6745" stroke="#933400" stroke-miterlimit="10" stroke-linecap="round" stroke-linejoin="round"/>
<path d="M54.1657 27.1914L52.1857 28.0314" stroke="#933400" stroke-miterlimit="10" stroke-linecap="round" stroke-linejoin="round"/>
<path d="M54.6629 30.9369L51.9457 30.894" stroke="#933400" stroke-miterlimit="10" stroke-linecap="round" stroke-linejoin="round"/>
<path d="M14.1201 30.0286C14.5224 30.0286 14.8486 29.5489 14.8486 28.9572C14.8486 28.3654 14.5224 27.8857 14.1201 27.8857C13.7177 27.8857 13.3915 28.3654 13.3915 28.9572C13.3915 29.5489 13.7177 30.0286 14.1201 30.0286Z" fill="#121212"/>
<path d="M39.7743 16.7173L38.3514 19.443" stroke="#933400" stroke-miterlimit="10" stroke-linecap="round" stroke-linejoin="round"/>
<path d="M43.4343 18.8857L41.9429 21.0286" stroke="#933400" stroke-miterlimit="10" stroke-linecap="round" stroke-linejoin="round"/>
<path d="M46.58 21.7744L45.1486 23.2916" stroke="#933400" stroke-miterlimit="10" stroke-linecap="round" stroke-linejoin="round"/>
<path d="M18.9543 20.8313L25.7772 19.6313C26.2401 20.4542 26.9258 21.9371 27.0201 23.8999C27.0715 24.9885 26.9258 25.9142 26.7543 26.6085C26.1801 27.0028 24.7486 27.3885 24.1743 27.7828C24.1743 27.7742 23.4115 22.7428 18.9543 20.8313Z" fill="#933400"/>
<path d="M30.7228 20.2829C30.7228 20.2829 31.6228 24.2257 29.7628 26.1714C29.7628 26.1714 31.94 26.0343 33.1485 26.3514C33.4742 26.4372 33.8257 26.3514 34.04 26.0857C34.7857 25.16 36.2857 22.9572 35.6942 20.6686L30.74 19.4429L30.7228 20.2829Z" fill="#933400"/>
<path d="M39.7657 21.8687C39.7657 21.8687 39.8 24.7658 37.8885 26.0944C37.0828 26.6515 37.5457 26.8144 37.82 26.9087C38.4885 27.1401 39.5428 27.4058 40.1257 27.8258C40.5457 28.1258 41.0857 28.1087 41.4543 27.6972C42.0371 27.0458 43.0057 25.9658 42.98 23.9772L39.7657 21.8687Z" fill="#933400"/>
</svg>
