<svg width="24" height="24" viewBox="0 0 24 24" fill="none" xmlns="http://www.w3.org/2000/svg">
<path d="M22 10.4439C21.9987 11.1319 21.7843 11.8026 21.3863 12.3638C20.9883 12.925 20.4262 13.3492 19.7773 13.5779C19.4223 13.7112 19.0462 13.7789 18.667 13.7779C17.979 13.7766 17.3083 13.5622 16.7471 13.1642C16.1859 12.7662 15.7617 12.2041 15.533 11.5552C15.3996 11.1999 15.3318 10.8234 15.333 10.4439C15.3362 10.8233 15.2681 11.2006 15.133 11.5552C14.9043 12.2039 14.4803 12.7659 13.9193 13.1639C13.3583 13.5619 12.6878 13.7764 12 13.7779C11.3122 13.7764 10.6417 13.5619 10.0807 13.1639C9.51968 12.7659 9.09571 12.2039 8.86703 11.5552C8.73365 11.1999 8.66588 10.8234 8.66703 10.4439C8.66919 10.8233 8.60216 11.2006 8.46703 11.5552C8.23828 12.2041 7.81415 12.7662 7.25293 13.1642C6.69172 13.5622 6.021 13.7766 5.33297 13.7779C4.95459 13.7801 4.57622 13.713 4.2227 13.5779C3.57382 13.3492 3.01172 12.925 2.61371 12.3638C2.21569 11.8026 2.00129 11.1319 2 10.4439L2.49946 8.68928L3.69946 5.2666C3.85236 4.83152 4.13656 4.45463 4.51282 4.18798C4.88907 3.92133 5.33883 3.77806 5.8 3.77795H18.2C18.661 3.77829 19.1105 3.92166 19.4865 4.1883C19.8626 4.45493 20.1466 4.83169 20.2995 5.2666L21.4995 8.68928L22 10.4439Z" stroke="black" stroke-width="2" stroke-linecap="round" stroke-linejoin="round"/>
<path d="M20.25 13.778V19.55C20.2497 20.1408 20.0089 20.7073 19.5804 21.1251C19.152 21.5428 18.571 21.7777 17.9651 21.778H6.53603C6.23588 21.7781 5.93864 21.7206 5.66129 21.6087C5.38394 21.4968 5.13192 21.3327 4.91963 21.1258C4.70734 20.9189 4.53893 20.6732 4.42404 20.4029C4.30914 20.1325 4.25 19.8427 4.25 19.55V13.778M11.25 18.4355L12.75 18.4355" stroke="black" stroke-width="2" stroke-linecap="round" stroke-linejoin="round"/>
</svg>
