<svg width="24" height="24" viewBox="0 0 24 24" fill="none" xmlns="http://www.w3.org/2000/svg">
<path d="M11.5 14.7083V16.875M7.16667 10.375V8.20833C7.16667 7.05906 7.62321 5.95686 8.43587 5.1442C9.24853 4.33155 10.3507 3.875 11.5 3.875C12.6493 3.875 13.7515 4.33155 14.5641 5.1442C15.3768 5.95686 15.8333 7.05906 15.8333 8.20833V10.375M6.08333 20.125H16.9167C17.204 20.125 17.4795 20.0109 17.6827 19.8077C17.8859 19.6045 18 19.329 18 19.0417V11.4583C18 11.171 17.8859 10.8955 17.6827 10.6923C17.4795 10.4891 17.204 10.375 16.9167 10.375H6.08333C5.79602 10.375 5.52047 10.4891 5.3173 10.6923C5.11414 10.8955 5 11.171 5 11.4583V19.0417C5 19.329 5.11414 19.6045 5.3173 19.8077C5.52047 20.0109 5.79602 20.125 6.08333 20.125Z" stroke="#121212" stroke-width="2" stroke-linecap="round" stroke-linejoin="round"/>
</svg>
