<svg width="30" height="31" viewBox="0 0 30 31" fill="none" xmlns="http://www.w3.org/2000/svg">
<path d="M13.41 12.6686L10.79 4.88863L25.45 2.13863C26.28 1.97863 27.09 2.47863 27.36 3.28863L27.4 3.39863C27.67 4.21863 27.33 5.11863 26.59 5.52863L13.41 12.6686Z" fill="#CCCCCC" stroke="#A4A4A4" stroke-miterlimit="10" stroke-linecap="round" stroke-linejoin="round"/>
<path d="M13.41 12.6686L10.79 4.88863L25.45 2.13863C26.28 1.97863 27.09 2.47863 27.36 3.28863L27.4 3.39863C27.67 4.21863 27.33 5.11863 26.59 5.52863L13.41 12.6686Z" fill="#CCCCCC" stroke="#A4A4A4" stroke-miterlimit="10" stroke-linecap="round" stroke-linejoin="round"/>
<path d="M13.2216 12.7784C13.9865 12.5233 14.0243 10.5709 13.3062 8.41773C12.588 6.26451 11.3857 4.7258 10.6208 4.98093C9.85591 5.23605 9.81805 7.1884 10.5362 9.34162C11.2544 11.4948 12.4567 13.0335 13.2216 12.7784Z" fill="#CCCCCC" stroke="#A4A4A4" stroke-miterlimit="10" stroke-linecap="round" stroke-linejoin="round"/>
<path d="M13.2216 12.7784C13.9865 12.5233 14.0243 10.5709 13.3062 8.41773C12.588 6.26451 11.3857 4.7258 10.6208 4.98093C9.85591 5.23605 9.81805 7.1884 10.5362 9.34162C11.2544 11.4948 12.4567 13.0335 13.2216 12.7784Z" fill="#A4A4A4" stroke="#A4A4A4" stroke-miterlimit="10" stroke-linecap="round" stroke-linejoin="round"/>
<path d="M10.4802 5.04883C5.2802 7.49883 3.2002 11.9788 3.2002 11.9788C6.8302 14.0888 13.0802 12.7988 13.0802 12.7988" stroke="#A4A4A4" stroke-miterlimit="10" stroke-linecap="round" stroke-linejoin="round"/>
<path d="M18.7402 9.75879C18.7402 9.75879 19.9702 6.63879 16.7202 3.75879L18.7402 9.75879Z" fill="#CCCCCC"/>
<path d="M18.7402 9.75879C18.7402 9.75879 19.9702 6.63879 16.7202 3.75879" stroke="#A4A4A4" stroke-miterlimit="10" stroke-linecap="round" stroke-linejoin="round"/>
<path d="M23.8304 6.92855C23.8304 6.92855 24.7704 4.72855 22.4204 2.76855L23.8304 6.92855Z" fill="#CCCCCC"/>
<path d="M23.8304 6.92855C23.8304 6.92855 24.7704 4.72855 22.4204 2.76855" stroke="#A4A4A4" stroke-miterlimit="10" stroke-linecap="round" stroke-linejoin="round"/>
<path d="M2.5 3.24854V28.0985" stroke="#A4A4A4" stroke-miterlimit="10" stroke-linecap="round" stroke-linejoin="round"/>
</svg>
