<svg width="61" height="61" viewBox="0 0 61 61" fill="none" xmlns="http://www.w3.org/2000/svg">
<path d="M49.8714 37.0485C49.8714 37.0485 54.1572 35.5657 54.3543 32.2743C54.4314 30.98 53.0257 30.1485 51.9972 30.9371C51.8772 31.0314 51.7486 31.1428 51.62 31.2885L47.4886 34.5885L49.8714 37.0485Z" fill="#BEF29C"/>
<path d="M49.8714 37.0485C49.8714 37.0485 54.1572 35.5657 54.3543 32.2743C54.4314 30.98 53.0257 30.1485 51.9972 30.9371C51.8772 31.0314 51.7486 31.1428 51.62 31.2885L47.4886 34.5885L49.8714 37.0485Z" stroke="#62A562" stroke-miterlimit="10"/>
<path d="M28.5972 39.8258C28.5972 39.8258 35.1972 41.5829 44.0086 39.2515L43.5886 32.0429C43.5886 32.0429 28.6315 31.7601 28.1086 31.5886C27.5858 31.4086 26.1029 37.8972 26.1029 37.8972L28.5972 39.8258Z" fill="#D3AB84"/>
<path d="M28.5972 39.8258C28.5972 39.8258 35.1972 41.5829 44.0086 39.2515L43.5886 32.0429C43.5886 32.0429 28.6315 31.7601 28.1086 31.5886C27.5858 31.4086 26.1029 37.8972 26.1029 37.8972L28.5972 39.8258Z" stroke="#87623E" stroke-miterlimit="10"/>
<path d="M21.1914 34.8116C21.1914 34.8116 21.3114 44.8745 30.9114 45.5431C31.6057 45.5945 32.12 44.9088 31.7943 44.3773C30.4143 42.1145 27.8686 37.2288 30.2 35.1545C33.2686 32.4031 21.1914 34.8116 21.1914 34.8116Z" fill="#BEF29C"/>
<path d="M40.7086 35.7885C40.7086 35.7885 44.4028 45.1485 53.6 42.3627C54.2686 42.157 54.5 41.3427 54.0114 40.957C51.92 39.337 47.8057 35.677 49.2457 32.8999C51.14 29.2399 40.7086 35.7885 40.7086 35.7885Z" fill="#BEF29C"/>
<path d="M20.9 23.5658C20.9 23.5658 9.9029 18.7658 7.72576 27.6458C7.72576 27.6458 6.38004 32.2316 19.4515 33.2687" fill="#BEF29C"/>
<path d="M21.1914 34.8116C21.1914 34.8116 21.3114 44.8745 30.9114 45.5431C31.6057 45.5945 32.12 44.9088 31.7943 44.3773C30.4143 42.1145 27.8686 37.2288 30.2 35.1545C33.2686 32.4031 21.1914 34.8116 21.1914 34.8116Z" stroke="#62A562" stroke-miterlimit="10"/>
<path d="M40.7086 35.7885C40.7086 35.7885 44.4028 45.1485 53.6 42.3627C54.2686 42.157 54.5 41.3427 54.0114 40.957C51.92 39.337 47.8057 35.677 49.2457 32.8999C51.14 29.2399 40.7086 35.7885 40.7086 35.7885Z" stroke="#62A562" stroke-miterlimit="10"/>
<path d="M19.4515 33.2686C6.38004 32.24 7.72576 27.6543 7.72576 27.6543C9.9029 18.7743 19.9058 23.1457 19.9058 23.1457L22.7858 24.3715" stroke="#62A562" stroke-miterlimit="10" stroke-linecap="round"/>
<path d="M51.62 31.957C51.62 34.9484 44.1286 37.0484 34.8972 37.0484C25.6657 37.0484 18.1743 34.9484 18.1743 31.957C18.1743 28.9655 25.6657 26.5312 34.8972 26.5312C44.1286 26.5312 51.62 28.957 51.62 31.957Z" fill="#FFEBD2"/>
<path d="M51.62 31.957C51.62 34.9484 44.1286 37.0484 34.8972 37.0484C25.6657 37.0484 18.1743 34.9484 18.1743 31.957C18.1743 28.9655 25.6657 26.5312 34.8972 26.5312C44.1286 26.5312 51.62 28.957 51.62 31.957Z" stroke="#87623E" stroke-miterlimit="10"/>
<path d="M51.1057 28.3487C51.1057 33.6801 43.8371 34.5801 34.8714 34.5801C25.9057 34.5801 18.6371 33.6801 18.6371 28.3487C18.6371 23.0173 25.9057 17.8315 34.8714 17.8315C43.8371 17.8315 51.1057 23.0173 51.1057 28.3487Z" stroke="#D8A64E" stroke-miterlimit="10"/>
<path d="M51.1057 28.3487C51.1057 33.6801 43.8371 34.5801 34.8714 34.5801C25.9057 34.5801 18.6371 33.6801 18.6371 28.3487C18.6371 23.0173 25.9057 17.8315 34.8714 17.8315C43.8371 17.8315 51.1057 23.0173 51.1057 28.3487Z" fill="#D3AB84"/>
<path d="M51.1057 28.3487C51.1057 33.6801 43.8371 34.5801 34.8714 34.5801C25.9057 34.5801 18.6371 33.6801 18.6371 28.3487C18.6371 23.0173 25.9057 17.8315 34.8714 17.8315C43.8371 17.8315 51.1057 23.0173 51.1057 28.3487Z" stroke="#87623E" stroke-miterlimit="10"/>
<path d="M29.24 24.2598L23.6686 33.2169" stroke="#87623E" stroke-miterlimit="10" stroke-linecap="round" stroke-linejoin="round"/>
<path d="M42.4314 24.2598L47.8228 32.9169" stroke="#87623E" stroke-miterlimit="10" stroke-linecap="round" stroke-linejoin="round"/>
<path d="M30.0028 23.0086L41.5314 22.9829" stroke="#87623E" stroke-miterlimit="10" stroke-linecap="round"/>
<path d="M12.2 28.3142C12.6024 28.3142 12.9286 27.8345 12.9286 27.2428C12.9286 26.6511 12.6024 26.1714 12.2 26.1714C11.7976 26.1714 11.4714 26.6511 11.4714 27.2428C11.4714 27.8345 11.7976 28.3142 12.2 28.3142Z" fill="#121212"/>
<path d="M43.4257 19.52L42.4314 21.8943" stroke="#87623E" stroke-miterlimit="10" stroke-linecap="round" stroke-linejoin="round"/>
<path d="M29.0514 21.8943L28.0571 19.52" stroke="#87623E" stroke-miterlimit="10" stroke-linecap="round" stroke-linejoin="round"/>
</svg>
