<svg width="46" height="45" viewBox="0 0 46 45" fill="none" xmlns="http://www.w3.org/2000/svg">
<path d="M36.5 22.79C36.5 24.56 36.15 26.32 35.47 27.96C34.79 29.6 33.8 31.09 32.54 32.34C31.29 33.59 29.8 34.59 28.16 35.27C26.52 35.95 24.77 36.3 22.99 36.3C21.21 36.3 19.46 35.95 17.82 35.27C16.18 34.59 14.69 33.6 13.44 32.34C12.19 31.09 11.19 29.6 10.51 27.96C9.85 26.32 9.5 24.57 9.5 22.79C9.5 19.21 10.92 15.78 13.45 13.24C15.98 10.71 19.42 9.29004 23 9.29004C26.58 9.29004 30.01 10.71 32.55 13.24C35.08 15.78 36.5 19.21 36.5 22.79Z" stroke="#A4A4A4" stroke-miterlimit="10" stroke-linecap="round" stroke-linejoin="round"/>
<path d="M19.2502 20.5402V19.7902M26.7502 20.5402V19.7902M26.1302 16.9502C26.1302 16.9502 27.1802 18.5402 30.1902 17.6902M16.2202 17.6902C19.2302 18.5402 20.2802 16.9502 20.2802 16.9502" stroke="#A4A4A4" stroke-miterlimit="10" stroke-linecap="round" stroke-linejoin="round"/>
<path d="M23.04 27.4201C25.8125 27.4201 28.06 26.8963 28.06 26.2501C28.06 25.6039 25.8125 25.0801 23.04 25.0801C20.2676 25.0801 18.02 25.6039 18.02 26.2501C18.02 26.8963 20.2676 27.4201 23.04 27.4201Z" stroke="#A4A4A4" stroke-miterlimit="10" stroke-linecap="round" stroke-linejoin="round"/>
<path d="M26.75 25.4702V26.0202V28.1602C26.75 29.8302 25.07 30.5002 23 30.5002C20.93 30.5002 19.25 29.5702 19.25 28.1602V26.0202V25.4702C19.25 25.4702 22.95 24.6002 26.75 25.4702Z" fill="white" stroke="#A4A4A4" stroke-miterlimit="10" stroke-linecap="round" stroke-linejoin="round"/>
<path d="M23 27.2401V25.0801" stroke="#A4A4A4" stroke-miterlimit="10" stroke-linecap="round" stroke-linejoin="round"/>
<path d="M13.34 23.79C13.34 23.79 8.41999 33.89 13.34 33.89C13.34 33.89 19.17 34.63 13.34 23.79Z" fill="white" stroke="#A4A4A4" stroke-miterlimit="10" stroke-linecap="round" stroke-linejoin="round"/>
</svg>
