<svg width="112" height="56" viewBox="0 0 112 56" fill="none" xmlns="http://www.w3.org/2000/svg">
<g filter="url(#filter0_d_2543_99662)">
<path d="M8 14C8 9.58172 11.5817 6 16 6H96C100.418 6 104 9.58172 104 14V38C104 42.4183 100.418 46 96 46H16C11.5817 46 8 42.4183 8 38V14Z" fill="white" shape-rendering="crispEdges"/>
<path d="M20.375 20.4606L21.2506 32.6346C21.2674 32.8693 21.3731 33.089 21.5463 33.2496C21.7195 33.4101 21.9475 33.4995 22.1844 33.4998H29.8138C30.0508 33.4997 30.279 33.4104 30.4524 33.2499C30.6258 33.0893 30.7316 32.8695 30.7484 32.6346L31.625 20.4606M26 25.1175V28.843M33.5 20.4606H18.5M22.7188 20.4606L23.2287 18.9406C23.3531 18.5697 23.5918 18.2471 23.911 18.0184C24.2301 17.7897 24.6137 17.6666 25.0072 17.6665H26.9919C27.3856 17.6664 27.7693 17.7894 28.0887 18.0181C28.408 18.2468 28.6468 18.5696 28.7713 18.9406L29.2812 20.4606" stroke="#FF5656" stroke-width="2" stroke-linecap="round" stroke-linejoin="round"/>
<path d="M49.392 20.424C49.5413 20.36 49.648 20.328 49.712 20.328C49.7867 20.3387 49.8773 20.392 49.984 20.488L50.176 20.664L50.16 21.72C50.1493 22.424 50.1333 22.792 50.112 22.824C50.0907 22.8667 50.1013 22.9147 50.144 22.968C50.1973 23.064 50.576 23.4533 51.28 24.136C51.9947 24.84 52.3893 25.2187 52.464 25.272C52.5493 25.3253 52.6613 25.4427 52.8 25.624C52.928 25.8267 52.992 25.9653 52.992 26.04C52.992 26.1573 52.9227 26.2693 52.784 26.376C52.6347 26.4933 52.4907 26.552 52.352 26.552C52.2027 26.5307 52.048 26.456 51.888 26.328C51.6747 26.168 51.2853 25.816 50.72 25.272C50.0587 24.632 49.7013 24.3013 49.648 24.28C49.6053 24.248 49.4133 24.424 49.072 24.808C48.6667 25.288 48.3947 25.6027 48.256 25.752C48.032 25.976 47.84 26.1947 47.68 26.408C47.3707 26.7707 47.0987 26.952 46.864 26.952C46.7253 26.952 46.5867 26.8933 46.448 26.776C46.352 26.68 46.2987 26.616 46.288 26.584C46.256 26.5307 46.24 26.4507 46.24 26.344C46.24 26.1627 46.304 25.9867 46.432 25.816C46.5493 25.656 46.864 25.32 47.376 24.808C48.0907 24.0933 48.544 23.544 48.736 23.16C48.928 22.7867 49.024 22.264 49.024 21.592C49.024 21.2187 49.0507 20.9413 49.104 20.76C49.1573 20.6107 49.2533 20.4987 49.392 20.424ZM48.048 28.008C48.1227 27.848 48.208 27.7467 48.304 27.704C48.4533 27.64 48.608 27.6027 48.768 27.592C48.8533 27.5813 49.2 27.576 49.808 27.576C50.736 27.576 51.5413 27.5813 52.224 27.592H52.512C54.048 27.592 54.9493 27.608 55.216 27.64C55.4933 27.672 55.6693 27.7733 55.744 27.944C55.7547 27.9547 55.76 27.9707 55.76 27.992C55.824 28.0987 55.856 28.5253 55.856 29.272V29.768C55.8347 30.8453 55.7973 31.464 55.744 31.624C55.6267 31.9013 55.472 32.04 55.28 32.04C55.1947 32.04 55.0933 32.008 54.976 31.944C54.7947 31.8267 54.688 31.6827 54.656 31.512C54.6133 31.352 54.592 30.8933 54.592 30.136C54.592 29.2293 54.5707 28.7707 54.528 28.76C54.464 28.7387 53.44 28.7227 51.456 28.712C50.112 28.6907 49.264 28.6747 48.912 28.664C48.5387 28.6427 48.32 28.616 48.256 28.584C48.0853 28.5093 48 28.392 48 28.232C48 28.1573 48.016 28.0827 48.048 28.008ZM54.448 26.2L54.544 23.24C54.5653 21.9707 54.5973 21.208 54.64 20.952C54.6933 20.7067 54.816 20.5307 55.008 20.424C55.1573 20.36 55.264 20.328 55.328 20.328C55.392 20.3387 55.472 20.3867 55.568 20.472L55.728 20.616V21.88C55.728 22.04 55.7227 22.1787 55.712 22.296C55.712 22.7547 55.744 23.0267 55.808 23.112C55.8507 23.176 56.0533 23.2187 56.416 23.24H56.704C57.1947 23.2613 57.4933 23.3093 57.6 23.384C57.6747 23.4267 57.7227 23.48 57.744 23.544C57.7653 23.608 57.776 23.704 57.776 23.832C57.7973 23.9707 57.7973 24.0667 57.776 24.12C57.7547 24.1733 57.7013 24.2267 57.616 24.28C57.5413 24.3333 57.456 24.3707 57.36 24.392C57.2853 24.4027 57.056 24.408 56.672 24.408H56.144C56.08 24.408 56.0053 24.424 55.92 24.456L55.76 24.536C55.728 24.6 55.7067 24.6747 55.696 24.76C55.6747 24.9093 55.664 25.0107 55.664 25.064V26.968L55.488 27.144C55.3707 27.2613 55.2267 27.32 55.056 27.32C54.9387 27.32 54.8533 27.304 54.8 27.272C54.7467 27.2507 54.6773 27.192 54.592 27.096L54.4 26.888L54.448 26.2ZM68.4633 21.144C68.5486 21.0907 68.6926 21.0747 68.8953 21.096C69.0446 21.1173 69.1459 21.144 69.1993 21.176C69.2526 21.2187 69.3006 21.3147 69.3433 21.464C69.3646 21.5493 69.3753 22.0987 69.3753 23.112L69.3593 26.088C69.3273 29.064 69.2953 30.6267 69.2633 30.776C69.1886 31.1067 69.0073 31.272 68.7193 31.272C68.5059 31.272 68.3193 31.1653 68.1593 30.952C68.0953 30.8667 68.0473 30.6107 68.0153 30.184L67.9833 29.336L68.0312 27.896C68.0739 26.712 68.1006 25.4213 68.1113 24.024V24.008C68.1219 22.6853 68.1486 21.88 68.1913 21.592C68.2233 21.3573 68.3139 21.208 68.4633 21.144ZM58.2713 23.24C58.2713 23.0373 58.3299 22.888 58.4473 22.792C58.5646 22.696 58.8953 22.632 59.4393 22.6C59.5353 22.5893 59.9459 22.584 60.6713 22.584L61.9193 22.568C62.9219 22.568 63.5139 22.5733 63.6953 22.584C63.9726 22.6053 64.1433 22.632 64.2073 22.664C64.3246 22.728 64.4099 22.792 64.4633 22.856C64.4953 22.92 64.5219 23.0213 64.5433 23.16C64.5433 23.3947 64.3993 23.5707 64.1113 23.688C64.0153 23.7307 63.6633 23.752 63.0553 23.752C62.5219 23.752 62.2019 23.7787 62.0953 23.832C61.9886 23.8747 61.9353 24.0453 61.9353 24.344C61.9353 24.6107 61.9139 24.9093 61.8713 25.24C61.8606 25.3573 61.8553 25.5067 61.8553 25.688C61.8553 25.816 61.8606 25.896 61.8713 25.928C61.9033 25.992 62.1166 26.2213 62.5113 26.616C62.9379 27.064 63.3379 27.4587 63.7113 27.8C64.0206 28.0987 64.2233 28.3493 64.3193 28.552C64.3406 28.5947 64.3513 28.6533 64.3513 28.728C64.3513 28.856 64.2926 28.9627 64.1753 29.048C64.0579 29.1547 63.9193 29.208 63.7593 29.208C63.6313 29.208 63.5033 29.16 63.3753 29.064C63.2046 28.936 62.8526 28.6 62.3193 28.056C61.7326 27.4693 61.4073 27.176 61.3433 27.176C61.2793 27.176 61.0873 27.4 60.7673 27.848C60.3726 28.392 60.0633 28.8027 59.8393 29.08C59.6473 29.304 59.4713 29.4587 59.3113 29.544C59.1833 29.608 59.0979 29.64 59.0553 29.64H59.0233C59.0126 29.64 58.9433 29.6187 58.8153 29.576C58.5699 29.48 58.4419 29.3307 58.4313 29.128C58.4313 29 58.4633 28.8827 58.5273 28.776C58.5699 28.6907 58.6819 28.536 58.8633 28.312L59.3593 27.704L59.8553 27.144C60.2286 26.7387 60.4686 26.3867 60.5753 26.088C60.6926 25.7787 60.7726 25.3253 60.8153 24.728C60.8259 24.5467 60.8313 24.3387 60.8313 24.104C60.8313 23.912 60.8206 23.8107 60.7993 23.8C60.7353 23.768 60.3833 23.752 59.7433 23.752C59.2099 23.752 58.8633 23.7307 58.7033 23.688C58.5113 23.6347 58.3833 23.5547 58.3193 23.448C58.2873 23.384 58.2713 23.3147 58.2713 23.24ZM63.5673 25.832C63.5459 25.7467 63.5353 25.688 63.5353 25.656C63.5353 25.6027 63.5459 25.5333 63.5673 25.448C63.6419 25.288 63.7593 25.1867 63.9193 25.144C64.0473 25.112 64.3993 25.0853 64.9753 25.064C65.5833 25.0427 65.8979 25.016 65.9193 24.984C65.9513 24.92 65.9673 24.3653 65.9673 23.32C65.9673 22.4987 65.9726 22.0293 65.9833 21.912C66.0046 21.7413 66.0366 21.6187 66.0793 21.544C66.1753 21.416 66.2606 21.336 66.3353 21.304C66.3779 21.2827 66.4419 21.272 66.5273 21.272C66.6873 21.272 66.8206 21.3253 66.9273 21.432L67.0553 21.56L67.0873 26.008C67.0979 26.904 67.1033 27.96 67.1033 29.176C67.1033 30.136 67.0926 30.6427 67.0712 30.696C67.0073 30.9627 66.8526 31.096 66.6073 31.096C66.3513 31.096 66.1593 30.9573 66.0312 30.68C65.9779 30.552 65.9406 29.7947 65.9193 28.408C65.9086 27.0427 65.8713 26.3333 65.8073 26.28C65.7646 26.2373 65.4446 26.2 64.8473 26.168C64.3459 26.136 64.0259 26.0987 63.8873 26.056C63.7166 26.0027 63.6099 25.928 63.5673 25.832ZM80.5368 20.888C80.6648 20.8453 80.7608 20.824 80.8248 20.824C80.8568 20.824 80.9154 20.8347 81.0008 20.856C81.1288 20.8987 81.2194 20.9893 81.2728 21.128C81.3154 21.2453 81.3368 22.0347 81.3368 23.496C81.3368 24.9253 81.3634 25.6667 81.4168 25.72C81.4701 25.7733 81.7421 25.8 82.2328 25.8C82.6914 25.8 82.9848 25.8267 83.1128 25.88C83.2088 25.9227 83.2674 26.0613 83.2888 26.296V26.392C83.2888 26.5733 83.2514 26.7013 83.1768 26.776C83.1341 26.8293 83.0594 26.8667 82.9528 26.888C82.8568 26.8987 82.6381 26.9147 82.2968 26.936C81.7634 26.968 81.4754 27.0053 81.4328 27.048C81.3688 27.0907 81.3368 27.4267 81.3368 28.056C81.3368 28.8453 81.3154 29.544 81.2728 30.152C81.2194 30.856 81.1714 31.2613 81.1288 31.368L81.0328 31.56L80.6008 31.544C80.3768 31.5227 80.2594 31.512 80.2488 31.512C80.2061 31.5013 80.1581 31.448 80.1048 31.352C80.0514 31.224 80.0248 30.8293 80.0248 30.168L80.0728 25.384C80.1261 22.792 80.1688 21.4427 80.2008 21.336C80.2754 21.1013 80.3874 20.952 80.5368 20.888ZM71.3208 23.32C71.4061 23.2027 71.5181 23.1227 71.6568 23.08C71.7741 23.0373 72.8194 23.016 74.7928 23.016H76.2648C77.2568 23.016 77.7581 23.0107 77.7688 23C77.7901 22.9787 77.8488 22.968 77.9448 22.968C78.0514 22.968 78.1421 22.9733 78.2168 22.984C78.4514 23.016 78.6061 23.0587 78.6808 23.112C78.7981 23.2187 78.8674 23.352 78.8888 23.512C78.8888 23.7253 78.7608 23.8853 78.5048 23.992C78.2914 24.0773 77.1181 24.1307 74.9848 24.152H74.0248C72.4888 24.152 71.6514 24.1147 71.5128 24.04C71.3101 23.9333 71.2088 23.8 71.2088 23.64C71.2088 23.5333 71.2461 23.4267 71.3208 23.32ZM71.9448 27.96C71.9128 27.7467 71.9608 27.4427 72.0888 27.048C72.1954 26.6747 72.3394 26.3653 72.5208 26.12C72.9794 25.5013 73.5394 25.096 74.2008 24.904C74.4141 24.8507 74.7341 24.8133 75.1608 24.792C75.5768 24.792 75.9021 24.8293 76.1368 24.904C76.5208 25.0107 76.8834 25.2027 77.2248 25.48C77.5448 25.736 77.7954 26.056 77.9768 26.44C78.0834 26.6533 78.1421 26.8027 78.1528 26.888C78.1634 26.9627 78.1688 27.192 78.1688 27.576C78.1688 27.9707 78.1421 28.2907 78.0888 28.536C78.0461 28.7387 77.9394 28.984 77.7688 29.272C77.5874 29.5493 77.3954 29.768 77.1928 29.928C77.0114 30.0773 76.6968 30.248 76.2488 30.44C76.1101 30.4933 75.8434 30.52 75.4488 30.52C74.7341 30.52 74.2594 30.4827 74.0248 30.408C73.6728 30.2907 73.3528 30.1307 73.0648 29.928C72.7448 29.7147 72.5208 29.496 72.3928 29.272C72.3394 29.1867 72.2541 28.9787 72.1368 28.648C72.0194 28.3387 71.9554 28.1093 71.9448 27.96ZM72.7448 21.304C72.8194 21.1653 72.9528 21.064 73.1448 21C73.3261 20.9253 73.9874 20.888 75.1288 20.888H76.8248L76.9848 21.032C77.0701 21.1173 77.1128 21.2133 77.1128 21.32C77.1128 21.416 77.0861 21.5067 77.0328 21.592C76.9368 21.7627 76.7768 21.864 76.5528 21.896C76.3821 21.928 75.8061 21.9547 74.8248 21.976C73.9714 21.976 73.4861 21.9707 73.3688 21.96C73.1661 21.9387 73.0274 21.9067 72.9528 21.864C72.7821 21.768 72.6968 21.6507 72.6968 21.512C72.6968 21.4373 72.7128 21.368 72.7448 21.304ZM73.1608 27.768C73.1821 28.152 73.2514 28.4453 73.3688 28.648C73.4754 28.8507 73.7101 29.0427 74.0728 29.224C74.1901 29.288 74.3181 29.3307 74.4568 29.352C74.5848 29.3733 74.7874 29.384 75.0648 29.384C75.4274 29.384 75.7048 29.3573 75.8968 29.304C76.0354 29.2613 76.2168 29.128 76.4408 28.904C76.7501 28.584 76.9048 28.1787 76.9048 27.688C76.9048 27.304 76.8194 26.9733 76.6488 26.696C76.4354 26.3867 76.1314 26.168 75.7368 26.04C75.4808 25.9547 75.2141 25.912 74.9368 25.912C74.6381 25.9227 74.4034 25.976 74.2328 26.072C73.8168 26.2853 73.5074 26.5893 73.3048 26.984C73.2088 27.1867 73.1608 27.448 73.1608 27.768ZM92.4913 20.968C92.6299 20.8293 92.7739 20.76 92.9233 20.76C93.0726 20.7707 93.1846 20.8027 93.2593 20.856C93.3446 20.92 93.4086 21.0373 93.4513 21.208C93.5153 21.4107 93.5473 23.0907 93.5473 26.248C93.5473 29.4053 93.5153 31.0587 93.4513 31.208C93.3766 31.3787 93.2699 31.496 93.1313 31.56C93.0673 31.592 92.9873 31.608 92.8913 31.608C92.8166 31.608 92.7313 31.592 92.6353 31.56L92.5712 31.528C92.4219 31.4747 92.3419 31.272 92.3313 30.92C92.3099 30.4507 92.2993 29.208 92.2993 27.192V21.16L92.4913 20.968ZM83.7713 22.648C83.7713 22.52 83.8033 22.4133 83.8673 22.328C83.9419 22.232 84.0379 22.168 84.1553 22.136C84.2619 22.1147 85.1259 22.104 86.7473 22.104C88.4006 22.1147 89.2966 22.1307 89.4353 22.152C89.5526 22.1627 89.6593 22.2213 89.7553 22.328C89.8086 22.392 89.8406 22.456 89.8513 22.52C89.8619 22.5413 89.8673 22.5893 89.8673 22.664C89.8673 23.08 89.7713 23.5013 89.5793 23.928C89.4726 24.1733 89.2379 24.6533 88.8753 25.368C88.5766 25.944 88.3259 26.3973 88.1233 26.728C88.0806 26.792 87.9206 27.0107 87.6432 27.384L87.2913 27.848C86.9393 28.328 86.6726 28.6747 86.4913 28.888L86.0593 29.352C85.6859 29.768 85.3926 29.9867 85.1793 30.008L85.0033 30.024C84.6513 30.024 84.4433 29.8907 84.3793 29.624L84.3633 29.528C84.3633 29.4427 84.4006 29.336 84.4753 29.208C84.5819 29.048 84.8059 28.7973 85.1473 28.456C85.6166 27.9653 85.9153 27.6453 86.0433 27.496C86.1819 27.3147 86.2833 27.192 86.3473 27.128C86.3899 27.096 86.6833 26.6853 87.2273 25.896C87.3873 25.6507 87.5686 25.3147 87.7713 24.888C88.0059 24.408 88.1819 23.9973 88.2993 23.656V23.64C88.3846 23.416 88.3899 23.2827 88.3153 23.24C88.2406 23.208 87.9099 23.192 87.3233 23.192H87.2753C86.6459 23.192 85.9313 23.176 85.1313 23.144C84.7153 23.1333 84.4059 23.112 84.2033 23.08C84.0859 23.0693 83.9899 23.0267 83.9153 22.952C83.8193 22.8667 83.7713 22.7653 83.7713 22.648Z" fill="#FF5656"/>
</g>
<defs>
<filter id="filter0_d_2543_99662" x="0" y="0" width="112" height="56" filterUnits="userSpaceOnUse" color-interpolation-filters="sRGB">
<feFlood flood-opacity="0" result="BackgroundImageFix"/>
<feColorMatrix in="SourceAlpha" type="matrix" values="0 0 0 0 0 0 0 0 0 0 0 0 0 0 0 0 0 0 127 0" result="hardAlpha"/>
<feOffset dy="2"/>
<feGaussianBlur stdDeviation="4"/>
<feComposite in2="hardAlpha" operator="out"/>
<feColorMatrix type="matrix" values="0 0 0 0 0 0 0 0 0 0 0 0 0 0 0 0 0 0 0.25 0"/>
<feBlend mode="normal" in2="BackgroundImageFix" result="effect1_dropShadow_2543_99662"/>
<feBlend mode="normal" in="SourceGraphic" in2="effect1_dropShadow_2543_99662" result="shape"/>
</filter>
</defs>
</svg>
