<svg width="24" height="24" viewBox="0 0 24 24" fill="none" xmlns="http://www.w3.org/2000/svg">
<path d="M8 9.03594C8.74795 9.14406 9.44081 9.49137 9.975 10.0259M4 12.4999C4 13.4282 4.36875 14.3184 5.02513 14.9748C5.6815 15.6312 6.57174 15.9999 7.5 15.9999H17.25C17.915 15.9997 18.5575 15.7585 19.0583 15.321C19.5592 14.8835 19.8845 14.2793 19.9741 13.6203C20.0637 12.9614 19.9114 12.2922 19.5455 11.7369C19.1796 11.1816 18.6249 10.7777 17.984 10.5999C17.8948 9.4784 17.43 8.41971 16.6647 7.59503C15.8994 6.77036 14.8783 6.2279 13.7665 6.05537C12.6547 5.88283 11.5173 6.0903 10.538 6.64423C9.55872 7.19816 8.79489 8.06618 8.37 9.10794C7.85287 8.97523 7.31224 8.96259 6.78948 9.07097C6.26671 9.17935 5.77567 9.40589 5.35392 9.73325C4.93218 10.0606 4.59092 10.4801 4.35625 10.9596C4.12157 11.4392 3.99972 11.9661 4 12.4999Z" stroke="#121212" stroke-width="2" stroke-linecap="round" stroke-linejoin="round"/>
</svg>
