<svg width="32" height="32" viewBox="0 0 32 32" fill="none" xmlns="http://www.w3.org/2000/svg">
<path d="M21 9.33333H21.0167M1 6C1 4.67392 1.52678 3.40215 2.46447 2.46447C3.40215 1.52678 4.67392 1 6 1H26C27.3261 1 28.5979 1.52678 29.5355 2.46447C30.4732 3.40215 31 4.67392 31 6V26C31 27.3261 30.4732 28.5979 29.5355 29.5355C28.5979 30.4732 27.3261 31 26 31H6C4.67392 31 3.40215 30.4732 2.46447 29.5355C1.52678 28.5979 1 27.3261 1 26V6Z" stroke="#121212" stroke-width="2" stroke-linecap="round" stroke-linejoin="round"/>
<path d="M1 22.6669L9.33333 14.3335C10.88 12.8452 12.7867 12.8452 14.3333 14.3335L22.6667 22.6669" stroke="#121212" stroke-width="2" stroke-linecap="round" stroke-linejoin="round"/>
<path d="M19.3335 19.3332L21.0002 17.6665C22.5468 16.1782 24.4535 16.1782 26.0002 17.6665L31.0002 22.6665" stroke="#121212" stroke-width="2" stroke-linecap="round" stroke-linejoin="round"/>
</svg>
