<svg width="30" height="30" viewBox="0 0 30 30" fill="none" xmlns="http://www.w3.org/2000/svg">
<path d="M11.8897 8.48961C11.6497 8.48961 11.4397 8.31961 11.3997 8.07961L10.9197 5.54961C10.8797 5.32961 10.9897 5.09961 11.1997 4.99961C11.2397 4.97961 12.2097 4.51961 12.2097 3.59961C12.2097 3.31961 12.4297 3.09961 12.7097 3.09961H16.9597C17.1997 3.09961 17.4097 3.26961 17.4497 3.50961C17.5697 4.11961 17.9397 4.97961 18.2697 4.97961C18.4297 4.97961 18.5797 5.05961 18.6697 5.17961C18.7597 5.30961 18.7897 5.46961 18.7497 5.61961L17.9697 8.12961C17.9097 8.33961 17.7097 8.47961 17.4897 8.47961H11.8897V8.48961Z" fill="#CCCCCC"/>
<path d="M16.9598 3.60938C16.9598 3.60938 17.3098 5.47938 18.2698 5.47938L17.4898 7.98938H11.8898L11.4098 5.45938C11.4098 5.45938 12.7098 4.86937 12.7098 3.60938H16.9598ZM16.9598 2.60938H12.7098C12.1598 2.60938 11.7098 3.05937 11.7098 3.60938C11.7098 4.19937 10.9898 4.54938 10.9798 4.55938C10.5698 4.75938 10.3398 5.20938 10.4198 5.64938L10.8998 8.17938C10.9898 8.64938 11.3998 8.98938 11.8798 8.98938H17.4798C17.9198 8.98938 18.3098 8.69938 18.4398 8.28938L19.2198 5.77938C19.3098 5.47938 19.2598 5.14937 19.0698 4.88937C18.8998 4.65937 18.6498 4.51937 18.3698 4.48937C18.2198 4.32937 18.0198 3.82938 17.9398 3.42938C17.8498 2.94938 17.4398 2.60938 16.9598 2.60938Z" fill="#A4A4A4"/>
<path d="M14.7899 7.01882C14.7999 8.17882 14.7999 9.34882 14.7999 10.5088C14.7999 11.6988 14.7999 12.8988 14.7999 14.0888M14.7899 6.89882C13.7999 6.51882 12.2499 5.52882 11.6699 4.61882C11.6099 4.51882 11.5599 4.38882 11.4099 4.44882C10.4799 4.81882 9.49994 5.06882 8.86994 5.97882C8.33994 6.75882 7.87994 7.56882 7.53994 8.43882C6.74994 10.4988 6.16994 12.6388 5.56994 14.7688C5.46994 15.1288 5.17994 15.5688 5.34994 15.8488C5.50994 16.1188 5.97994 16.1888 6.30994 16.3588C6.51994 16.4688 6.63994 16.4788 6.75994 16.2088C7.69994 14.0488 8.76994 11.9488 9.59994 9.74882C9.71994 9.44882 9.87994 9.22882 10.2299 9.26882C10.5799 9.30882 10.6799 9.56882 10.7099 9.85882C10.8299 11.1188 10.9999 12.3788 10.8599 13.6488C10.6699 15.5188 10.4099 17.3788 10.1899 19.2488C9.89994 21.5788 9.76994 23.9288 9.76994 26.2888C9.76994 26.4988 9.79994 26.6088 10.0399 26.6088C10.6899 26.5988 11.3399 26.5988 11.9799 26.6088C12.1699 26.6088 12.2499 26.5388 12.2999 26.3388C12.7499 24.6588 13.2199 22.9788 13.6799 21.2988C13.8599 20.6388 14.0199 19.9688 14.2099 19.2988C14.2999 18.9988 14.3599 18.6388 14.7899 18.6388C15.2399 18.6388 15.2799 19.0188 15.3899 19.3188C15.3999 19.3288 15.3999 19.3488 15.3999 19.3588C15.9299 21.6888 16.6499 23.9588 17.2799 26.2688C17.3399 26.5188 17.4499 26.5888 17.6899 26.5888C18.2899 26.5788 18.8999 26.5688 19.4999 26.5888C19.7699 26.5988 19.8699 26.5388 19.8699 26.2288C19.8499 22.5788 19.4899 18.9488 18.9099 15.3488C18.6099 13.5188 18.6799 11.6888 18.8799 9.85882C18.9099 9.56882 19.0099 9.29882 19.3499 9.25882C19.6699 9.21882 19.8499 9.40882 19.9499 9.69882C20.6799 11.6588 21.6099 13.5288 22.4899 15.4288C22.6499 15.7788 22.7099 16.2788 23.0099 16.3988C23.3499 16.5388 23.6899 16.1088 24.0499 15.9888C24.3299 15.8888 24.3599 15.7288 24.2799 15.4588C23.6999 13.5688 23.1399 11.6688 22.5499 9.78882C22.2299 8.76882 21.7899 7.79882 21.2999 6.83882C20.6499 5.56882 19.6099 4.84882 18.2899 4.47882C18.0899 4.43882 17.9999 4.45882 17.8999 4.63882C16.8699 5.93882 14.7899 6.89882 14.7899 6.89882Z" fill="#CCCCCC"/>
<path d="M14.7899 7.01882C14.7999 8.17882 14.7999 9.34882 14.7999 10.5088C14.7999 11.6988 14.7999 12.8988 14.7999 14.0888M14.7899 6.89882C13.7999 6.51882 12.2499 5.52882 11.6699 4.61882C11.6099 4.51882 11.5599 4.38882 11.4099 4.44882C10.4799 4.81882 9.49994 5.06882 8.86994 5.97882C8.33994 6.75882 7.87994 7.56882 7.53994 8.43882C6.74994 10.4988 6.16994 12.6388 5.56994 14.7688C5.46994 15.1288 5.17994 15.5688 5.34994 15.8488C5.50994 16.1188 5.97994 16.1888 6.30994 16.3588C6.51994 16.4688 6.63994 16.4788 6.75994 16.2088C7.69994 14.0488 8.76994 11.9488 9.59994 9.74882C9.71994 9.44882 9.87994 9.22882 10.2299 9.26882C10.5799 9.30882 10.6799 9.56882 10.7099 9.85882C10.8299 11.1188 10.9999 12.3788 10.8599 13.6488C10.6699 15.5188 10.4099 17.3788 10.1899 19.2488C9.89994 21.5788 9.76994 23.9288 9.76994 26.2888C9.76994 26.4988 9.79994 26.6088 10.0399 26.6088C10.6899 26.5988 11.3399 26.5988 11.9799 26.6088C12.1699 26.6088 12.2499 26.5388 12.2999 26.3388C12.7499 24.6588 13.2199 22.9788 13.6799 21.2988C13.8599 20.6388 14.0199 19.9688 14.2099 19.2988C14.2999 18.9988 14.3599 18.6388 14.7899 18.6388C15.2399 18.6388 15.2799 19.0188 15.3899 19.3188C15.3999 19.3288 15.3999 19.3488 15.3999 19.3588C15.9299 21.6888 16.6499 23.9588 17.2799 26.2688C17.3399 26.5188 17.4499 26.5888 17.6899 26.5888C18.2899 26.5788 18.8999 26.5688 19.4999 26.5888C19.7699 26.5988 19.8699 26.5388 19.8699 26.2288C19.8499 22.5788 19.4899 18.9488 18.9099 15.3488C18.6099 13.5188 18.6799 11.6888 18.8799 9.85882C18.9099 9.56882 19.0099 9.29882 19.3499 9.25882C19.6699 9.21882 19.8499 9.40882 19.9499 9.69882C20.6799 11.6588 21.6099 13.5288 22.4899 15.4288C22.6499 15.7788 22.7099 16.2788 23.0099 16.3988C23.3499 16.5388 23.6899 16.1088 24.0499 15.9888C24.3299 15.8888 24.3599 15.7288 24.2799 15.4588C23.6999 13.5688 23.1399 11.6688 22.5499 9.78882C22.2299 8.76882 21.7899 7.79882 21.2999 6.83882C20.6499 5.56882 19.6099 4.84882 18.2899 4.47882C18.0899 4.43882 17.9999 4.45882 17.8999 4.63882C16.8699 5.93882 14.7899 6.89882 14.7899 6.89882Z" stroke="#A4A4A4" stroke-miterlimit="10" stroke-linecap="round" stroke-linejoin="round"/>
</svg>
