<svg width="41" height="40" viewBox="0 0 41 40" fill="none" xmlns="http://www.w3.org/2000/svg">
<path d="M9.25 8.92149L11.0013 33.2694C11.0349 33.7389 11.2462 34.1783 11.5926 34.4994C11.9391 34.8204 12.395 34.9992 12.8687 34.9999H28.1275C28.6016 34.9997 29.058 34.8211 29.4048 34.5C29.7517 34.1789 29.9632 33.7392 29.9969 33.2694L31.75 8.92149M20.5 18.2352V25.6862M35.5 8.92149H5.5M13.9375 8.92149L14.9575 5.88149C15.2062 5.13965 15.6836 4.49436 16.3219 4.03701C16.9603 3.57967 17.7273 3.33345 18.5144 3.33325H22.4837C23.2711 3.33306 24.0386 3.57909 24.6773 4.03647C25.3161 4.49384 25.7937 5.13935 26.0425 5.88149L27.0625 8.92149" stroke="#121212" stroke-width="2" stroke-linecap="round" stroke-linejoin="round"/>
</svg>
