<svg width="30" height="30" viewBox="0 0 30 30" fill="none" xmlns="http://www.w3.org/2000/svg">
<path d="M17.8198 28C17.4798 28 17.0499 27.85 16.9299 27.16L15.2999 18.6C15.2699 18.43 15.2499 18.3 15.2099 18.17C15.1299 17.89 15.0799 17.89 15.0099 17.89C14.9199 17.89 14.8299 17.89 14.7599 18.18C14.6699 18.58 14.5999 18.98 14.5199 19.39L13.0199 27.24C12.8999 27.9 12.4298 28 12.1598 28C11.8898 27.98 11.7098 27.98 11.5298 27.98C11.3498 27.98 11.1698 27.99 10.9898 28C10.9798 28 10.8999 28 10.8899 28C10.6399 28 10.4398 27.92 10.2998 27.77C10.0698 27.53 10.0898 27.21 10.0999 27.07C10.1399 26.44 10.1598 25.82 10.1898 25.2L10.2298 24.27C10.3598 21.23 10.5798 17.96 10.9198 14.29C11.0898 12.47 10.9299 10.62 10.7699 8.82L10.7398 8.53C10.7298 8.38 10.7098 8.34 10.6998 8.33C10.6998 8.35 10.6598 8.39 10.6098 8.52L9.72985 10.77C9.19985 12.13 8.65985 13.49 8.14985 14.85C8.06985 15.04 7.87985 15.55 7.31985 15.55C7.18985 15.55 7.04985 15.52 6.87985 15.46L6.77985 15.42C6.04985 15.16 5.90985 14.9 6.06985 14.11L6.09985 13.99C6.46985 12.2 6.83985 10.34 7.42985 8.56C7.67985 7.79 7.90985 7.1 8.22985 6.42C8.91985 4.92 10.0598 3.94 11.6198 3.52C11.8598 3.45 12.0999 3.38 12.3499 3.29C12.5799 3.21 12.8598 3.07 12.9299 2.83C13.1898 2.09 13.7299 2 14.1199 2H14.2699C14.5199 2.01 14.7599 2.01 15.0099 2.01L16.2599 2C16.6199 2 16.8898 2.21 16.9798 2.56C17.0898 2.94 17.3499 3.18 17.8599 3.36L18.0299 3.42C18.0999 3.44 18.1698 3.47 18.2298 3.49C20.0598 3.95 21.3498 5.16 22.0598 7.07C22.8998 9.37 23.5298 11.76 23.9798 14.39C24.0998 15.06 23.5898 15.29 23.4298 15.36L23.3398 15.4C23.1299 15.51 22.9499 15.56 22.7799 15.56C22.2099 15.56 21.9999 15.03 21.9199 14.83L21.5299 13.87C20.8299 12.15 20.1099 10.37 19.4499 8.6C19.4299 8.53 19.3999 8.47 19.3699 8.41L19.2699 8.36C19.1099 10.44 18.9099 12.73 19.1599 14.99C19.4199 17.35 19.6098 19.87 19.7198 22.48C19.7799 24 19.8798 25.5 19.9798 27.01C19.9999 27.21 19.9899 27.51 19.7799 27.74C19.5599 28 19.2499 28 19.1498 28C19.1398 28 19.0399 28 19.0299 28C18.8299 27.98 18.6299 27.97 18.4299 27.97C18.2699 27.97 18.1198 27.98 17.9698 27.99C17.9498 27.99 17.8399 28 17.8198 28Z" fill="#CCCCCC"/>
<path d="M14.1199 2.5C14.1599 2.5 14.1999 2.5 14.2499 2.5C14.4999 2.51 14.7499 2.52 14.9999 2.52C15.3799 2.52 15.7499 2.51 16.1299 2.51C16.1699 2.51 16.2099 2.51 16.2499 2.51C16.3499 2.51 16.4499 2.53 16.4899 2.7C16.6599 3.32 17.1299 3.64 17.6899 3.84C17.8299 3.88 17.9599 3.94 18.0999 3.98C19.8499 4.42 20.9599 5.54 21.5899 7.25C22.4499 9.6 23.0599 12.02 23.4899 14.49C23.5499 14.85 23.3199 14.86 23.0999 14.98C22.9699 15.05 22.8599 15.08 22.7799 15.08C22.5999 15.08 22.4899 14.94 22.3799 14.66C21.5499 12.59 20.6999 10.53 19.9199 8.44C19.8899 8.36 19.8599 8.28 19.8199 8.2C19.7099 7.98 19.5499 7.87 19.3299 7.87C19.2999 7.87 19.2599 7.87 19.2299 7.88C18.9399 7.92 18.8199 8.13 18.7899 8.39C18.5999 10.61 18.4199 12.82 18.6599 15.07C18.9299 17.55 19.1099 20.04 19.2199 22.53C19.2799 24.05 19.3799 25.56 19.4799 27.07C19.5099 27.4 19.4099 27.5 19.1499 27.5C19.1199 27.5 19.0899 27.5 19.0599 27.5C18.8499 27.48 18.6299 27.47 18.4199 27.47C18.2499 27.47 18.0699 27.48 17.8999 27.5C17.8699 27.5 17.8399 27.5 17.8099 27.5C17.5299 27.5 17.4599 27.33 17.4099 27.07C16.8699 24.21 16.3299 21.36 15.7799 18.5C15.7499 18.35 15.7199 18.19 15.6799 18.03C15.5699 17.68 15.4099 17.39 14.9999 17.39C14.9899 17.39 14.9899 17.39 14.9799 17.39C14.5399 17.4 14.3399 17.69 14.2599 18.07C14.1199 18.69 14.0199 19.33 13.8999 19.95C13.4399 22.35 12.9799 24.75 12.5199 27.14C12.4699 27.39 12.3799 27.48 12.1499 27.48C12.1299 27.48 12.1199 27.48 12.0999 27.48C11.9099 27.47 11.7099 27.46 11.5199 27.46C11.3299 27.46 11.1299 27.47 10.9399 27.48C10.9199 27.48 10.8999 27.48 10.8799 27.48C10.6199 27.48 10.5699 27.35 10.5899 27.08C10.6499 26.15 10.6799 25.22 10.7199 24.28C10.8599 20.96 11.1099 17.65 11.4099 14.33C11.5999 12.37 11.3999 10.42 11.2299 8.48C11.1999 8.2 11.1399 7.9 10.7599 7.86C10.7399 7.86 10.7199 7.86 10.6999 7.86C10.3899 7.86 10.2499 8.06 10.1399 8.34C9.3199 10.45 8.4799 12.55 7.6799 14.66C7.5799 14.92 7.4899 15.03 7.3199 15.03C7.2499 15.03 7.1599 15.01 7.0499 14.97C6.4699 14.76 6.4399 14.79 6.5599 14.2C6.9399 12.34 7.3099 10.5 7.8999 8.7C8.1399 8 8.3699 7.31 8.6899 6.64C9.3199 5.28 10.3399 4.4 11.7599 4.01C12.0199 3.94 12.2699 3.86 12.5299 3.76C12.9199 3.62 13.2899 3.38 13.4199 2.99C13.5499 2.57 13.7899 2.5 14.1199 2.5ZM14.1199 1.5C13.0799 1.5 12.6399 2.13 12.4699 2.67C12.4599 2.69 12.3799 2.76 12.1999 2.82C11.9499 2.91 11.7199 2.98 11.4899 3.05C9.7899 3.51 8.5499 4.58 7.7899 6.22C7.4599 6.92 7.2199 7.62 6.9599 8.4C6.3599 10.21 5.9799 12.08 5.6099 13.89L5.5799 14.02C5.3699 15.04 5.6499 15.55 6.6099 15.9L6.6999 15.93C6.9299 16.01 7.1299 16.05 7.3099 16.05C7.7199 16.05 8.2799 15.87 8.6099 15.04C9.1399 13.65 9.6799 12.27 10.2199 10.9C10.2799 10.75 10.3399 10.6 10.3999 10.45C10.4999 11.74 10.5399 12.99 10.4199 14.26C10.0899 17.95 9.8599 21.22 9.7299 24.27L9.6899 25.19C9.6599 25.81 9.6399 26.43 9.5999 27.05C9.5899 27.23 9.5699 27.74 9.9399 28.13C10.1099 28.3 10.4099 28.51 10.8899 28.51C10.9299 28.51 10.9799 28.51 11.0199 28.51C11.1899 28.5 11.3599 28.49 11.5299 28.49C11.6999 28.49 11.8599 28.5 12.0299 28.51C12.0599 28.51 12.1299 28.51 12.1599 28.51C12.8699 28.51 13.3799 28.08 13.5099 27.35L14.1999 23.75L14.8899 20.15C14.9199 19.98 14.9599 19.81 14.9899 19.63L16.4299 27.19L16.4399 27.26C16.6399 28.41 17.5499 28.5 17.8199 28.5C17.8799 28.5 17.9399 28.5 18.0099 28.49C18.1499 28.47 18.2899 28.47 18.4299 28.47C18.6199 28.47 18.8099 28.48 18.9899 28.49C19.0499 28.49 19.0999 28.5 19.1499 28.5C19.6699 28.5 19.9799 28.28 20.1499 28.1C20.5299 27.69 20.4899 27.16 20.4799 26.99C20.3899 25.65 20.2899 24.06 20.2199 22.48C20.1099 19.86 19.9199 17.33 19.6599 14.96C19.4999 13.46 19.5399 11.94 19.6299 10.49C20.0899 11.68 20.5699 12.85 21.0299 14L21.4499 15.05C21.7999 15.91 22.3599 16.09 22.7699 16.09C23.0199 16.09 23.2799 16.02 23.5599 15.87L23.6199 15.84C24.5199 15.44 24.5299 14.72 24.4599 14.32C23.9999 11.67 23.3599 9.24 22.5199 6.92C21.7499 4.84 20.3499 3.52 18.3299 3.02C18.3099 3 18.2499 2.98 18.1999 2.96C18.1299 2.94 18.0699 2.91 17.9999 2.89C17.5399 2.73 17.4899 2.55 17.4599 2.44C17.2999 1.87 16.8399 1.51 16.2499 1.51H16.1499C15.9399 1.51 15.7399 1.51 15.5499 1.51C15.3699 1.51 15.1799 1.51 14.9999 1.51C14.7599 1.51 14.5299 1.51 14.2899 1.5C14.2299 1.5 14.1699 1.5 14.1199 1.5Z" fill="#A4A4A4"/>
</svg>
