<svg width="46" height="45" viewBox="0 0 46 45" fill="none" xmlns="http://www.w3.org/2000/svg">
<path d="M23.08 41.159C33.4795 41.159 41.91 39.0995 41.91 36.559C41.91 34.0185 33.4795 31.959 23.08 31.959C12.6805 31.959 4.25 34.0185 4.25 36.559C4.25 39.0995 12.6805 41.159 23.08 41.159Z" fill="#CECECE"/>
<path d="M23.42 41.159C33.8195 41.159 42.25 39.0995 42.25 36.559C42.25 34.0185 33.8195 31.959 23.42 31.959C13.0204 31.959 4.58997 34.0185 4.58997 36.559C4.58997 39.0995 13.0204 41.159 23.42 41.159Z" fill="#A4A4A4" stroke="#A4A4A4" stroke-miterlimit="10" stroke-linecap="round" stroke-linejoin="round"/>
<path d="M6.49005 35.5592C6.49005 35.5592 11.6801 23.6692 33.2401 29.2392C34.5701 29.5792 35.84 30.1592 36.9501 30.9592C39.14 32.5292 42.06 35.2492 39.05 37.0292C39.05 37.0292 36.7201 38.5692 32.7701 38.1092C31.2001 37.9292 29.6 38.0992 28.16 38.7592C26.16 39.6692 22.63 40.4992 17.73 38.8092C17.57 38.7492 17.39 38.6892 17.23 38.6292C15.57 38.0192 13.97 37.4092 12.24 37.5992C9.45005 37.9292 5.46005 37.9892 6.49005 35.5592Z" fill="#CECECE"/>
<path d="M6.66003 35.5592C6.66003 35.5592 11.85 23.6692 33.41 29.2392C34.74 29.5792 36.01 30.1592 37.12 30.9592C39.31 32.5292 42.23 35.2492 39.22 37.0292C39.22 37.0292 36.89 38.5692 32.94 38.1092C31.37 37.9292 29.77 38.0992 28.33 38.7592C26.33 39.6692 22.8 40.4992 17.9 38.8092C17.74 38.7492 17.56 38.6892 17.4 38.6292C15.74 38.0192 14.14 37.4092 12.41 37.5992C9.62003 37.9292 5.62003 37.9892 6.66003 35.5592Z" stroke="#A4A4A4" stroke-miterlimit="10" stroke-linecap="round" stroke-linejoin="round"/>
<path d="M19.9001 33.6196C19.8701 33.6196 19.8401 33.6196 19.8101 33.6096C19.3501 33.5596 19.0101 33.1696 19.0601 32.7296L21.7401 7.87963C21.7901 7.43963 22.2001 7.11963 22.6601 7.15963C23.1201 7.20963 23.4601 7.59963 23.4101 8.03963L20.7301 32.8896C20.6901 33.3096 20.3201 33.6196 19.9001 33.6196Z" fill="#CECECE"/>
<path d="M34.59 20.6888C34.41 18.6688 32.59 10.5287 22.36 8.21875C22.36 8.21875 27.83 11.9587 27.55 19.7987C27.54 20.0787 27.66 20.3588 27.89 20.5188C28.91 21.2788 31.87 23.1587 34.23 21.4887C34.48 21.3087 34.62 20.9988 34.59 20.6888Z" fill="#A4A4A4"/>
<path d="M19.73 33.6096C19.7 33.6096 19.67 33.6096 19.64 33.5996C19.18 33.5496 18.84 33.1596 18.89 32.7196L21.57 7.87963C21.62 7.43963 22.03 7.11963 22.49 7.15963C22.95 7.20963 23.29 7.59963 23.24 8.03963L20.56 32.8796C20.52 33.2996 20.16 33.6096 19.73 33.6096Z" fill="#A4A4A4" stroke="#A4A4A4" stroke-miterlimit="10" stroke-linecap="round" stroke-linejoin="round"/>
<path d="M6.56004 16.5993C7.34004 14.7193 11.53 7.47927 22 8.23927C22 8.23927 15.65 10.2193 13.56 17.7893C13.49 18.0593 13.28 18.2893 13.01 18.3793C11.81 18.8093 8.42004 19.7493 6.67004 17.4593C6.49004 17.2093 6.44004 16.8793 6.56004 16.5993Z" fill="#CECECE"/>
<path d="M34.69 20.6888C34.51 18.6688 32.69 10.5287 22.46 8.21875C22.46 8.21875 27.93 11.9587 27.65 19.7987C27.64 20.0787 27.76 20.3588 27.99 20.5188C29.01 21.2788 31.97 23.1587 34.33 21.4887C34.58 21.3087 34.72 20.9988 34.69 20.6888Z" stroke="#A4A4A4" stroke-miterlimit="10" stroke-linecap="round" stroke-linejoin="round"/>
<path d="M6.66001 16.5993C7.44001 14.7193 11.64 7.47927 22.1 8.23927C22.1 8.23927 15.75 10.2193 13.66 17.7893C13.59 18.0593 13.38 18.2893 13.11 18.3793C11.91 18.8093 8.52001 19.7493 6.77001 17.4593C6.59001 17.2093 6.54001 16.8793 6.66001 16.5993Z" fill="#A4A4A4" stroke="#A4A4A4" stroke-miterlimit="10" stroke-linecap="round" stroke-linejoin="round"/>
<path d="M22.9001 8.5593C23.9701 9.5293 27.3601 11.9093 27.6501 19.2593C27.6801 20.0393 27.1201 20.7293 26.3401 20.8893C23.7801 21.4093 18.1601 22.0893 14.1401 19.1393C13.5401 18.6993 13.3001 17.9393 13.5601 17.2493C14.4501 14.9493 16.6901 10.0893 21.6901 8.3193C22.1101 8.1693 22.5801 8.2593 22.9001 8.5593Z" fill="#CECECE"/>
<path d="M23.01 8.48899C24.08 9.45899 27.47 11.839 27.76 19.189C27.79 19.969 27.23 20.659 26.45 20.819C23.89 21.339 18.27 22.019 14.25 19.069C13.65 18.629 13.41 17.869 13.67 17.179C14.56 14.879 16.8 10.019 21.8 8.24899C22.21 8.09899 22.68 8.18899 23.01 8.48899Z" stroke="#A4A4A4" stroke-miterlimit="10" stroke-linecap="round" stroke-linejoin="round"/>
<path d="M17.91 32.8496C17.91 32.8496 19.52 34.5896 21.97 32.8496" stroke="#A4A4A4" stroke-miterlimit="10" stroke-linecap="round" stroke-linejoin="round"/>
</svg>
