<svg width="30" height="30" viewBox="0 0 30 30" fill="none" xmlns="http://www.w3.org/2000/svg">
<path d="M17.42 27C17.18 27 16.97 26.83 16.93 26.59C16.49 24.25 16.05 21.92 15.61 19.59C15.58 19.41 15.56 19.29 15.52 19.17C15.44 18.89 15.39 18.89 15.33 18.89C15.24 18.89 15.15 18.89 15.09 19.18C15 19.58 14.93 19.99 14.85 20.4L13.68 26.6C13.65 26.83 13.44 27 13.2 27H11.05C10.91 27 10.78 26.94 10.69 26.84C10.6 26.74 10.55 26.61 10.55 26.47C10.57 26.01 10.59 25.63 10.6 25.27C10.73 22.12 10.95 18.86 11.29 15.29C11.46 13.48 11.3 11.63 11.14 9.84L11.11 9.53C11.1 9.38 11.08 9.34 11.07 9.32C11.08 9.35 11.05 9.38 11 9.51C10.39 11.1 9.77003 12.68 9.17003 14.27C9.12003 14.4 9.02003 14.5 8.90003 14.56C8.84003 14.59 8.77003 14.6 8.70003 14.6C8.64003 14.6 8.57003 14.59 8.51003 14.56L7.15003 14C6.93003 13.91 6.80003 13.67 6.85003 13.44C7.18003 11.85 7.48003 10.65 7.84003 9.55C8.09003 8.79 8.32003 8.1 8.64003 7.42C9.32003 5.92 10.45 4.94 11.99 4.52C12.23 4.45 12.47 4.37 12.71 4.29C12.93 4.21 13.21 4.07 13.28 3.83C13.53 3.09 14.07 3 14.45 3H14.6C14.84 3.01 15.08 3.01 15.32 3.01L16.56 3C16.92 3 17.19 3.21 17.28 3.56C17.38 3.94 17.64 4.18 18.15 4.36L18.32 4.42C18.38 4.44 18.45 4.47 18.51 4.49C20.32 4.95 21.59 6.16 22.29 8.07C22.91 9.77 23.41 11.56 23.83 13.53C23.88 13.77 23.75 14 23.53 14.1L22.21 14.64C22.15 14.66 22.09 14.68 22.02 14.68C21.95 14.68 21.89 14.67 21.82 14.64C21.7 14.59 21.6 14.49 21.55 14.37C20.98 12.94 20.31 11.28 19.7 9.6C19.67 9.53 19.64 9.46 19.61 9.39C19.38 11.44 19.18 13.73 19.42 16C19.68 18.36 19.86 20.88 19.97 23.49C20 24.16 20.04 24.84 20.08 25.51L20.14 26.47C20.15 26.61 20.1 26.74 20 26.84C19.9 26.94 19.79 27 19.65 27H17.42Z" fill="#1392FF"/>
<path d="M14.45 3.5C14.49 3.5 14.53 3.5 14.58 3.5C14.83 3.51 15.08 3.52 15.32 3.52C15.69 3.52 16.06 3.51 16.43 3.51C16.47 3.51 16.51 3.51 16.55 3.51C16.65 3.51 16.74 3.53 16.79 3.7C16.96 4.32 17.42 4.64 17.97 4.84C18.1 4.88 18.24 4.94 18.37 4.98C20.09 5.42 21.19 6.54 21.81 8.25C22.45 10.01 22.94 11.81 23.33 13.65L22.01 14.19C21.38 12.61 20.75 11.04 20.17 9.44C20.14 9.36 20.11 9.28 20.07 9.2C19.97 8.98 19.8 8.87 19.59 8.87C19.56 8.87 19.52 8.87 19.49 8.88C19.2 8.92 19.08 9.13 19.06 9.39C18.87 11.61 18.69 13.82 18.93 16.06C19.2 18.54 19.37 21.03 19.48 23.52C19.52 24.52 19.59 25.51 19.65 26.51H17.42C16.98 24.17 16.54 21.84 16.1 19.51C16.07 19.36 16.04 19.2 16 19.04C15.9 18.69 15.74 18.4 15.33 18.4C15.32 18.4 15.32 18.4 15.31 18.4C14.88 18.41 14.68 18.7 14.6 19.08C14.47 19.7 14.36 20.34 14.24 20.96C13.89 22.81 13.54 24.66 13.19 26.51H11.04C11.06 26.11 11.08 25.7 11.1 25.3C11.23 21.98 11.47 18.66 11.78 15.35C11.96 13.39 11.77 11.44 11.6 9.5C11.57 9.21 11.51 8.91 11.14 8.87C11.12 8.87 11.1 8.87 11.08 8.87C10.77 8.87 10.64 9.07 10.53 9.35C9.91997 10.93 9.30997 12.52 8.69997 14.1L7.33997 13.54C7.60997 12.25 7.90997 10.96 8.31997 9.71C8.54997 9 8.78997 8.31 9.09997 7.64C9.71997 6.28 10.73 5.4 12.13 5.01C12.38 4.94 12.64 4.86 12.89 4.76C13.28 4.62 13.64 4.38 13.76 3.99C13.89 3.57 14.13 3.5 14.45 3.5ZM14.45 2.5C13.41 2.5 12.98 3.14 12.8 3.67C12.79 3.69 12.71 3.75 12.54 3.82C12.3 3.91 12.07 3.98 11.84 4.05C10.16 4.51 8.92997 5.58 8.17997 7.23C7.85997 7.93 7.61997 8.63 7.36997 9.41C6.99997 10.53 6.68997 11.75 6.35997 13.35C6.25997 13.82 6.51997 14.3 6.95997 14.48L8.31997 15.04C8.43997 15.09 8.56997 15.11 8.69997 15.11C8.83997 15.11 8.96997 15.08 9.09997 15.03C9.34997 14.92 9.53997 14.72 9.63997 14.47C10.02 13.48 10.4 12.5 10.78 11.51C10.87 12.78 10.91 14.02 10.8 15.26C10.47 18.84 10.24 22.11 10.11 25.26C10.1 25.66 10.08 26.06 10.05 26.46C10.04 26.73 10.13 27 10.32 27.2C10.51 27.4 10.77 27.51 11.05 27.51H13.2C13.68 27.51 14.09 27.17 14.18 26.7C14.36 25.76 14.54 24.82 14.71 23.88C14.88 22.97 15.05 22.06 15.23 21.15C15.26 21 15.29 20.85 15.31 20.71C15.69 22.72 16.06 24.71 16.44 26.7C16.53 27.17 16.94 27.51 17.42 27.51H19.65C19.93 27.51 20.19 27.4 20.38 27.2C20.57 27 20.67 26.73 20.65 26.46L20.59 25.48C20.55 24.82 20.51 24.16 20.48 23.49C20.37 20.88 20.18 18.34 19.93 15.97C19.77 14.49 19.81 12.99 19.9 11.56C20.31 12.62 20.72 13.65 21.09 14.58C21.19 14.83 21.38 15.02 21.63 15.13C21.75 15.18 21.89 15.21 22.02 15.21C22.15 15.21 22.28 15.19 22.4 15.14L23.72 14.6C24.17 14.42 24.42 13.94 24.32 13.47C23.9 11.47 23.39 9.66 22.76 7.94C22.01 5.86 20.61 4.55 18.62 4.04C18.59 4 18.54 3.98 18.49 3.96C18.42 3.94 18.36 3.91 18.29 3.89C17.88 3.74 17.8 3.59 17.76 3.44C17.6 2.87 17.14 2.51 16.56 2.51H16.46C16.25 2.51 16.06 2.51 15.87 2.51C15.69 2.51 15.51 2.51 15.32 2.51C15.09 2.51 14.86 2.51 14.62 2.5C14.56 2.5 14.51 2.5 14.45 2.5Z" fill="#0074DA"/>
</svg>
