<svg width="46" height="45" viewBox="0 0 46 45" fill="none" xmlns="http://www.w3.org/2000/svg">
<path d="M27.19 30.839C27.16 30.839 27.13 30.829 27.11 30.819C26.67 30.689 26.42 30.229 26.54 29.799L33.81 5.40896C33.94 4.97896 34.41 4.73896 34.84 4.85896C35.28 4.98896 35.53 5.44896 35.41 5.87896L28.14 30.269C28.02 30.669 27.61 30.919 27.19 30.839Z" fill="#1392FF"/>
<path d="M27.0399 30.7899C27.0099 30.7899 26.9799 30.7799 26.9599 30.7699C26.5199 30.6399 26.2699 30.1799 26.3899 29.7499L33.6599 5.3699C33.7899 4.9399 34.2599 4.6999 34.6899 4.8199C35.1299 4.9499 35.3799 5.4099 35.2599 5.8399L27.9799 30.2199C27.8699 30.6299 27.4599 30.8699 27.0399 30.7899Z" stroke="#0074DA" stroke-miterlimit="10"/>
<path d="M14.33 17.9205L21.83 7.08047C21.83 7.08047 24.27 4.12047 30.79 6.09047L37.42 9.03047C38.06 9.35047 38.17 10.2205 37.63 10.6905L35.15 12.9305C34.88 13.1705 34.75 13.5405 34.83 13.8905L37 23.9805L14.33 17.9205Z" fill="white"/>
<path d="M18.75 11.5508L24.1 12.9408C26.72 13.6208 28.68 15.7908 29.1 18.4808L29.62 21.7408L14.34 17.9308L18.75 11.5508Z" fill="#1392FF"/>
<path d="M22.6501 12.5605L21.0801 19.2405" stroke="#0074DA" stroke-miterlimit="10"/>
<path d="M14.33 17.9205L21.83 7.08047C21.83 7.08047 24.27 4.12047 30.79 6.09047L37.42 9.03047C38.06 9.35047 38.17 10.2205 37.63 10.6905L35.15 12.9305C34.88 13.1705 34.75 13.5405 34.83 13.8905L37 23.9805L14.33 17.9205Z" stroke="#A4A4A4" stroke-miterlimit="10"/>
<path d="M42.39 25.6403C37.15 23.9603 14.99 17.0003 4.60999 15.6803C3.33999 15.5203 2.33999 16.7303 2.72999 17.9603L6.52999 30.0303C7.97999 34.6503 12.24 37.7903 17.05 37.7903H36.66C40.01 37.7903 42.88 35.3503 43.4 32.0203C43.61 30.7103 43.7 29.1303 43.61 27.2303C43.56 26.4903 43.09 25.8503 42.39 25.6403Z" fill="white"/>
<path d="M14.63 17.5008L18.75 11.5508L25.64 13.5508C25.64 13.5508 29.44 14.7508 29.62 21.7408" stroke="#0074DA" stroke-miterlimit="10"/>
<path d="M42.39 25.6403C37.15 23.9603 14.99 17.0003 4.60999 15.6803C3.33999 15.5203 2.33999 16.7303 2.72999 17.9603L6.52999 30.0303C7.97999 34.6503 12.24 37.7903 17.05 37.7903H36.66C43.04 37.7903 42.88 35.3503 43.4 32.0203C43.5 30.6703 43.7 29.1303 43.61 27.2303C43.56 26.4903 43.09 25.8503 42.39 25.6403Z" stroke="#A4A4A4" stroke-miterlimit="10"/>
<path d="M5.48999 26.7207C14.76 29.0507 24.21 30.5807 33.75 31.3007L43.4 32.0207L43.21 33.6807C43.13 36.3207 41.44 37.2007 39.66 37.6807C39.3 37.7507 38.97 37.7907 38.67 37.7907H16.9C12.33 37.7907 8.11999 34.8607 6.63999 30.5107L5.48999 26.7207Z" fill="#1392FF"/>
<path d="M5.48999 26.7207C14.76 29.0507 24.21 30.5807 33.75 31.3007L43.4 32.0207L43.21 33.6807C43.13 36.3207 41.64 37.6207 39.66 37.6807C39.3 37.7507 38.97 37.7907 38.67 37.7907H16.9C12.33 37.7907 8.11999 34.8607 6.63999 30.5107L5.48999 26.7207Z" stroke="#0074DA" stroke-miterlimit="10"/>
</svg>
