<svg width="24" height="24" viewBox="0 0 24 24" fill="none" xmlns="http://www.w3.org/2000/svg">
<path d="M12.8551 13.9955L11.9981 19.9955M9.49805 12.9955L8.64105 18.9955M16.4981 12.9955L15.6411 18.9955M7.99805 8.03154C8.746 8.13966 9.43887 8.48697 9.97305 9.02154M5.99805 14.6575C5.21231 14.2842 4.59375 13.6317 4.26295 12.8272C3.93214 12.0226 3.9128 11.1237 4.2087 10.3057C4.5046 9.48762 5.09454 8.80909 5.86349 8.40234C6.63245 7.9956 7.52533 7.88979 8.36805 8.10554C8.7942 7.06548 9.55823 6.19925 10.5369 5.64655C11.5156 5.09385 12.652 4.88688 13.7627 5.05902C14.8734 5.23116 15.8938 5.77238 16.6592 6.5954C17.4247 7.41842 17.8907 8.47527 17.9821 9.59554C18.396 9.71004 18.7773 9.91989 19.0956 10.2083C19.4138 10.4967 19.6601 10.8556 19.8146 11.2563C19.9692 11.657 20.0278 12.0883 19.9856 12.5157C19.9435 12.9431 19.8019 13.3547 19.5721 13.7175" stroke="#121212" stroke-width="2" stroke-linecap="round" stroke-linejoin="round"/>
</svg>
