<svg width="46" height="45" viewBox="0 0 46 45" fill="none" xmlns="http://www.w3.org/2000/svg">
<path d="M23 36C30.4558 36 36.5 29.9558 36.5 22.5C36.5 15.0442 30.4558 9 23 9C15.5442 9 9.5 15.0442 9.5 22.5C9.5 29.9558 15.5442 36 23 36Z" stroke="#A4A4A4" stroke-miterlimit="10" stroke-linecap="round" stroke-linejoin="round"/>
<path d="M19.25 20.54V19.79" stroke="#A4A4A4" stroke-miterlimit="10" stroke-linecap="round" stroke-linejoin="round"/>
<path d="M26.75 20.54V19.79" stroke="#A4A4A4" stroke-miterlimit="10" stroke-linecap="round" stroke-linejoin="round"/>
<path d="M28.6501 27.8599H17.3501C16.1301 27.8599 15.1401 26.8699 15.1401 25.6499C15.1401 24.4299 16.1301 23.4399 17.3501 23.4399H19.2501H28.6501C29.8701 23.4399 30.8601 24.4299 30.8601 25.6499C30.8601 26.8699 29.8701 27.8599 28.6501 27.8599Z" stroke="#A4A4A4" stroke-miterlimit="10" stroke-linecap="round" stroke-linejoin="round"/>
<path d="M19.25 26.4502V24.6602" stroke="#A4A4A4" stroke-miterlimit="10" stroke-linecap="round" stroke-linejoin="round"/>
<path d="M27.2402 26.4502V24.6602" stroke="#A4A4A4" stroke-miterlimit="10" stroke-linecap="round" stroke-linejoin="round"/>
<path d="M23.2402 26.4502V24.6602" stroke="#A4A4A4" stroke-miterlimit="10" stroke-linecap="round" stroke-linejoin="round"/>
<path d="M15.1401 25.6499H30.8601" stroke="#A4A4A4" stroke-miterlimit="10" stroke-linecap="round" stroke-linejoin="round"/>
<path d="M9.5 23.4502L11.32 37.0402L12.08 30.4402" stroke="#A4A4A4" stroke-miterlimit="10" stroke-linecap="round" stroke-linejoin="round"/>
<path d="M15.5098 33.73L16.5298 38.46L17.3298 34.98" stroke="#A4A4A4" stroke-miterlimit="10" stroke-linecap="round" stroke-linejoin="round"/>
<path d="M36.5 23.4502L34.68 38.4602L33.77 30.7302" stroke="#A4A4A4" stroke-miterlimit="10" stroke-linecap="round" stroke-linejoin="round"/>
<path d="M30.49 33.73L29.47 37.04L28.71 34.73" stroke="#A4A4A4" stroke-miterlimit="10" stroke-linecap="round" stroke-linejoin="round"/>
</svg>
